<svg width="277" height="705" xmlns="http://www.w3.org/2000/svg"><g id="Desktop" stroke="none" stroke-width="1" fill="none" fill-rule="evenodd"><g id="Desktop/tour-page" transform="translate(-582 -2522)" fill="#161616"><g id="gallery" transform="translate(170 2522)"><g id="chilie-map" transform="translate(412)"><path id="Fill-1" d="M32 133.12l-5.012 1.924-1.988-3.76 3.025-1.24z"/><path id="Fill-2" d="M68 89.777l-.607 1.267-1.09-2.16-4.569-2.119L61 84.044l3.48.291z"/><path id="Fill-3" d="M54.573 61.008l-3.279.929 3.657 2.09 5.15-3.399 3.824-.296 2.08 1.415-.671 5.28 2.29 3.611-1.512 2.535 3.132 2.661.756 2.324-.715 2.364-8.196 2.07-.695 4.203 2.208 1.964-3.237 1.352-1.66-1.5.567-1.605-1.766 1.901.358 3.717 9.226 7.921.19 3.104-3.468.254-1.261 2.154 4.791 7.392-8.637.465.44 3.442 2.123 2.894-.609 3.654-4.539 1.14-2.628-1.817-9.794-1.668L39 118.814l6.809-14.7.841-12.608-1.829-3.084 1.135-10.814 2.88-3.717 1.933-9.25-1.471-4.013.988-1.584 3.489.316z"/><path id="Fill-4" d="M58.234.044l-.917 5.882 1.063 3.58-7.38 17.9.647 4.416 3.376 10.384-.375 5.4 4.545 4.543 4.419.084 2.106-3.035-1.938 3.621-3.607.607-1.814 5.066 6.963 2.03 3.314-1.234 6.024.565 4.045-3.684-1.418-4.418 1.835-2.909 3.231-1.089 3.877 1.32 3.836 6.425 2.877 1.194 5.17-2.093 1.71-8.333 1.084-.397-1.21 8.583-3.732 2.533-5.295.461-6.316 8.122 3.544 3.015 3.731.565 2.96-2.346 1.815.398-.856 5.967 2.044 12.958-.96.334-2.668-8.728-1.814-2.093-4.356 1.401-2.898 2.785 4.878 7.62L94.07 90.5l-7.693-2.429-1.71 2.933-.124 7.827.875 3.54 2.627 2.595-.083 5.505-3.065-1.465-2.501 4.46.563 4.688-4.962 3.12-1.021 5.254 2.272 5.673-.084 6.239 2.772-1.194 2.377 1.528.46-1.402v1.694l10.172 1.99 3.648-5.108 1.418.565 2.418 5.547 3.835 2.26.772 2.724 4.148-.462.417-1.653 4.17-2.052 3.23 1.006-3.251-4.252v-1.191l3.106-1.842.042-3.601-6.943-6.072 1.189-5.233 4.607-1.13.02-4.942-2.835-1.757-6.44-1.152-2.482-4.019 1.022-6.113-1.105-10.655 2.794-8.918-2.544-3.35 3.356-6.07 1.647-.19 1.626 1.885 5.358-3.245-1.813-9.337-3.753-8.31 1.918-4.083-1.46-7.64 1.815-15.806-3.316-8.96 2.69-3.264.646-4.398-10.048-.145-5.796 7.577-5.795-2.323-9.277-7.578-2.897-5.233L76.433.798l-4.649 3.496-2.898-.587L67.135.798z"/><path id="Fill-5" d="M95.272 141.158l-10.223-1.991.189 1.132-5.112 1.34-3.561 8.824-4.252 3.772-.084 2.62 3.73 3.564 6.849 2.283v1.175l5.51 4.548 4.001-3.227-.19 3.919-4.546 11.715-11.206 8.005-6.933.986-.86 2.662 2.933 4.903-1.068 1.698-3.143.545-.44 2.18.672 1.447 2.135.335 4.19-1.719 5.384 5.303 2.975 1.403 3.268-.418-1.11 2.955-4.065-1.09-5.971-6.225-8.923 6.519-1.948 13.706 5.278-5.512 2.43-.545 4.085 1.385-6.138 1.11-4.546 4.924-3.645 7.273 1.341 4.442-2.01 9.914 7.813-10.332-13.385 22.781-3.562-1.906 5.53-7.44 1.362-6.246-3.875-4.402-2.032.19-1.696 3.016 4.587 5.766-4.21-2.474-1.238-3.962-8.525 2.892-4.525-3.5 5.154 2.81 7.038-2.914 3.058-3.982-.125-2.159-2.325-2.285-.63 4.905-2.533 1.655 1.822-2.451 1.257-5.743-1.571-4.716-1.341-1.572-4.756 1.572-1.57-1.844-9.133 1.467-4.379 12.22-4.021 4.4H18.54l-3.31 3.647-.586 4.673-1.404-1.76-1.99 1.068-2.054 2.243.21 1.509-5.09 4.004-2.284-.085-1.865 2.788L0 267.746l4.253 6.434 2.367.607 4.337-3.353-2.305-7.104-1.612-.545-4.735 3.459 1.026-3.438 4.944-2.306 7.248-1.005 3.184-2.285 4.064-5.679.146 2.892-4.106 5.154 2.074 5.325 15.04 6.56 1.992-1.886-5.51-.755.104-2.452 8.317-.839 2.199.923.565 3.646 3.248 5.009 2.995-.482 2.953 2.579-5.76 7.859.796 5.826-2.01-5.847-4.38.251-6.221 9.41 6.642 7.44 4.084-.607 3.143-2.18.46 3.542-6.263.566-1.236 2.117 1.298 2.536 2.346.44-2.89-.377-4.588-7.881-3.393-.587-1.906.986-4.085 6.204 3.644 2.66 6.871-1.11 9.784 1.781.753 1.866 2.975.796 4.86-2.682 1.277-6.624-1.32-1.823 1.362-2.809 2.033 4.486-2.369 3.102.714 3.395 7.163 8.236 3.981-.103 3.352 1.759-7.792-.795-2.452-3.375h-2.493l.273 3.375 4.734 6.12 3.33 2.011 2.368-1.908.23-2.389.397.986-.335 2.703-1.927 1.928-4.252-.964-1.822 3.122-1.195-4.82-5.32-4.799-5.677.797-3.372-2.306-7.5.42 4.274 9.829-.901.272-1.844-1.907-2.157-7.42-5.28-2.913-3.142 1.93-.438 3.394 4.692 2.41 6.703 6.77 4.335 1.655-3.372 1.425 6.306 2.766-.754 6.016-4.61-3.185-5.843 6.077 2.491 5.197 4.275-.921 3.163 1.656 26.73 23.054 2.681-8.405 2.827-4.044 6.766-2.286 5.783-5.805-1.026-14.67 9.048-5.617-.9-12.03-5.76-5.22-.609-2.011 6.118-14.126.628-3.982-1.53-1.194.274-1.238 2.785-1.698h2.89l4.231-5.866 4.463-2.579.168-3.458-3.393-4.59 1.11-9.494 3.75-1.32 4.188-4.422-2.198-18.842-4.63-4.213 4.043-1.383 4.818-5.994-1.341-3.982-3.1-1.467-1.153-5.114 1.237-7.252 8.441-3.436 5.028-7.294-.922-3.122-7.541-10.774-14.433-3.101-.439-4.8 1.025-1.383 6.138 1.614 2.074-1.551 3.498 1.153 4.818-1.636 3.624 2.201 2.744.084 1.55-2.159 1.068-6.476 2.431-2.368-2.597-4.38-6.117-1.237-11.25.315-2.22-1.489 1.675-1.823-.627-6.896 5.11-9.263-1.529-2.933-3.246-1.007-4.19 2.054-.419 1.656-4.168.462-.776-2.727-3.854-2.262-2.43-5.555-1.425-.565z"/><path id="Fill-6" d="M84.534 180.526l-7.832 7.28-4.197 1.238-3.884-4.93 3.116-1.448 2.825.461-2.721-1.551-2.66 1.174L67 176.687l1.413-2.097 4.134-.693 1.413-6.775 6.772-2.078 6.751 4.301L89 172.051l-2.97 4.406-4.716-1.364 4.196 2.79z"/><path id="Fill-7" d="M15.427 352.575l-1.081.469-1.33-3.28-1.1-6.542.728-2.663-2.992-1.831-3.034 1.32-1.724-.895.645-1.555 4.216-1.406 1.33-1.96-5.672 1.214L4 325.07l2.265-2.79 4.3-1.236 8.31 22.776.125 4.772z"/><path id="Fill-8" d="M31.948 352.044l-3.579-2.576-7.32-1.402L20 344.048l3.207-4.35 2.283-.144 2.51 3.813 1.398-1.731-3.003-5.483 2.18-9.11 1.748 7.709 2.674 4.782-.267 7.378 1.439 1.958.535-1.628 1.296.577-.597 3.03z"/><path id="Fill-9" d="M20.601 341.044l-4.895-9.85-1.706-7.15 6.216 1.178L27 329.054l-.996 8.285z"/><path id="Fill-10" d="M59.16 203.044l-2.94-1.93-5.038.128-3.339-3.986-3.422.89L44 194.14l1.87-1.971 9.846-1.124L60 196.62z"/><path id="Fill-11" d="M41.452 320.044L36 316.92l6.197-4.877 11.054 3.568 2.556-1.056 1.193.865-.617 2.808-1.555.718-7.157-.634z"/><path id="Fill-12" d="M43.2 183.044l-3.421-2.353-.779-5.448 4.676-1.2 7.622.307L55 177.422z"/><path id="Fill-13" d="M18.953 237.525l-.709-2.68 4.132-1.037-.932-1.101-2.31.27-1.134-4.84 1.094-.58 3.505 1.68L29 225.044l-2.33 9.699-3.544 3.3z"/><path id="Fill-14" d="M3.344 351.806l4.968-3.358-2.815 1.062L2 348.535l.853-7.993 8.528-.498.619 7.711-5.352 4.289z"/><path id="Fill-15" d="M37.232 224.044L36 221.982l1.519-2.02-.551-5.959 2.244-3.96 3.741 2.083L45 218.044l-.836 1.897z"/><path id="Fill-16" d="M24.526 324.044l-4.343-1.598.215-1.445-1.441-.713-3.076 2.202-2.881-.28 2.623-3.28 4.022-1.08 6.645-5.806.71 10.533z"/><path id="Fill-17" d="M60.917 224.044l-3.834-3.994-.083-6.077 3-3.93 3 1.26z"/><path id="Fill-18" d="M42.425 193.044L40 192.425l.266-1.472 5.318-4.91 5.745 1.452L53 189.821z"/><path id="Fill-19" d="M58.396 180.044l-2.291-2.547-.105-3.81 3.973-1.643L63 178.78z"/><path id="Fill-20" d="M51.149 147.044L46 144.772l.358-2.497 7.102-.81 1.66-1.421 2.88 4.991-2.69.223-.757-1.988-2.543.304 1.03 2.15z"/><path id="Fill-21" d="M51.105 206.044l-3.803-1.373-.302-3.82 2.193-.807 1.609 2.141 5.131.04L57 203.398l-.241 2.344z"/><path id="Fill-22" d="M35.22 336.044L33 331.268l.993-5.224L40 332.296z"/><path id="Fill-23" d="M57.51 243.044L53 237.318l.706-2.155 2.235-.12L60 237.539z"/><path id="Fill-24" d="M39.367 172.044l-3.45-.746-.917-2.705 7.052-2.55 1.55.472L45 169.122l-5.983 1.432z"/><path id="Fill-25" d="M51.482 222.044l-2.085-.658L48 217.417l2.301-3.373L54 217.439l-.787 3.628z"/><path id="Fill-26" d="M3.094 357.044L2 356.337l.042-3.267 4.018.887 4.942-3.913 1.41.947.588 2.28-1.093 1.252z"/><path id="Fill-27" d="M47 216.044l2.483-7 5.297 2.23 2.22-.553-1.384 4.771-5.67-2.231z"/><path id="Fill-28" d="M45.85 285.044L44 282.355l1.36-4.133 4.835-.178 1.805 1.4-3.298 4.423z"/><path id="Fill-29" d="M55.784 190.044l-2.573-3.204-.211-3.182 1.54-1.614 1.56.689L58 187.7l-.233 2.3z"/><path id="Fill-30" d="M42.38 342.044L36 337.122l4.267-3.078 1.436.587-.45 2.47L44 340.565z"/><path id="Fill-31" d="M30 222.93l.868-5.072L34 216.044l-.755 7.279-1.189.72z"/><path id="Fill-32" d="M54.063 233.044L53 230.454l1.223-2.34 5.015-3.07.762 3.927-2.948-.355-1.445 3.843z"/><path id="Fill-33" d="M15.439 314.19l-.205-1.584L12 311.293l4.708-3.25L19 312.045l-1.228 2.125-2.865.875z"/><path id="Fill-34" d="M50.306 230.044l-2.306-5.8 1.99-2.2 1.931.754.079 1.488-.217 3.903z"/><path id="Fill-35" d="M39.91 186.044l-2.358-1.3L36 180.585l2.648-.541L42 185.07z"/><path id="Fill-36" d="M39.647 208.044l-3.605-2.604-.042-2.396 3.986.206L42 207.79z"/><path id="Fill-37" d="M49.317 173.044L47 171.874v-3.83l4.71 1.674.29 2.775z"/><path id="Fill-38" d="M76.055 151.044L72 148.4l1.06-2.211 2.81-1.146 1.13 1.352z"/><path id="Fill-39" d="M50.38 164.044l-2.448-2.051-.932-3.81 1.761-2.14L52 159.967l-1.66.668z"/><path id="Fill-40" d="M60.778 155.044L58 149.377l.75-2.333 2.639 2.865.611 2.823z"/><path id="Fill-41" d="M37.84 345.044l-1.84-6 6 3.794z"/><path id="Fill-42" d="M41.256 203.962L39 201.566l.758-3.522L43 200.42l-.815 3.624z"/><path id="Fill-43" d="M36.861 179.044l-4.59-.04L31 177.856l1.728-1.811 1.69.058 2.582.722z"/><path id="Fill-44" d="M36.504 284.044L36 280.978l5-.934-.373 1.981z"/><path id="Fill-45" d="M19.034 188.044L17 184.13l1.813-2.086L21 184.885v1.847z"/><path id="Fill-46" d="M51.867 167.842l-2.89-1.771-.977-3.027 4.862 1.345.138 3.655z"/><path id="Fill-47" d="M41.327 174.044L40 171.9l2.334-1.572 3.039-.285L47 172.59z"/><path id="Fill-48" d="M48.922 343.044l-3.184-1.996L44 338.102l1.972-.058L49 340.156z"/><path id="Fill-49" d="M60 235.044l-4-2.046 1.818-3.954 1.596 1.244z"/><path id="Fill-50" d="M59.714 184.044l-1.692-1.045-.022-2.148 3.956-.807.044 3.645z"/><path id="Fill-51" d="M54.946 158.044l-3.026-.742-.92-1.485 2.624-1.773L56 156.559z"/><path id="Fill-52" d="M49.511 185.044L45 183.43l6.933-1.387.067 1.95z"/><path id="Fill-53" d="M21.195 311.044l-1.787-1.301-.408-2.7 3.372.493L24 309.388l-.157 1.065z"/><path id="Fill-54" d="M27.2 178.044L26 175.46l.536-3.416L29 174.102l-.471 3.241z"/><path id="Fill-55" d="M53.01 209.044l-3.01-.74v-.773l5.978-.487.022 1.11z"/><path id="Fill-56" d="M55.294 164.044l-2.798-.628L52 161.37l4.841-.325.159 2.394z"/><path id="Fill-57" d="M80 138.605l2.693-1.561 2.307 2z"/><path id="Fill-58" d="M75.036 510.49l-1.682-.355-1.03-2.62-1.345-14.777-1.808-2.683L72.24 512l-1.157 2.18-7.422-6.267-2.523-9.956 1.492-.923 5.005 10.061.967-.335-5.594-12.575 3.45-2.977-4.332 1.237-2.524 3.333-2.711-6.98-3.428-1.026.021-11.717 2.734.859 3.07 3.52 3.153 7.61-5.214-19.43 1.199-.818 1.43 3.124-.61-5.22-1.409-.293-4.248 4.234-5.487-1.593-1.346-1.068-.715-5.345-2.502-1.865-.336-5.052 2.018-2.18 8.116-.502 1.703 2.158 2.986-11.989 3.532-.797 3.007 3.25.904-2.076-4.5-2.493-2.081-3.333 3.574-2.661.947-3.942-6.035 6.498-1.472 10.333-3.722 3.375-2.88-.336-2.27-2.662-5.067-13.645 2.25-.775 5.76 3.25 3.89.628-6.854-5.03-5.13-.462L30 420.973l.546-2.578 2.524-2.264 7.086-.628 4.33 5.994 7.191 3.27 2.881.042-9.251-4.024-5.803-9.746 1.009-2.976 2.06.272 4.31 3.647 7.002 2.893-.295-2.684-12.699-6.896-.714-3.08 4.646-2.327 3.595-.189.294-1.425-7.042 1.09-.674-5.344 2.335-2.368 4.646-1.552 4.183 1.006 1.999 4.967 3.931 2.851.778 2.725.336-1.468-1.346-3.835-2.838-.754-.651-5.764-7.086-2.242 1.261-10.061 4.521 3.856 2.081-.02-2.838-1.426-1.683-2.766-.903-7.336 2.564-3.081 3.428 1.32-.084-1.006-1.85-.985-4.5.503.043 5.973-3.239 7.546-1.976 9.746-4.73-4.8-.652-21.106-1.62-6.665 2.145-3.982 2.123 1.152 2.818-1.404 4.415.985 26.829 23.056 2.417.67-1.47 1.677-9.82.335-3.511 10.48 1.997 2.955 2.061 8.53-2.46 2.851-.757 4.066 2.523 2.829-1.977 5.492 6.098 6.015 1.64 3.668 1.45 12.597 2.755 8.07 3.554-.965 3.343-3.856 4.183-2.2 3.785 2.409 4.436-3.228 3.616.524 2.293 1.802-1.346 3.689 2.88 5.786-.694 7.356-2.04 1.112-1.828 3.499.568 2.41 3.784 3.752-1.85 3.5-1.072 8.258-1.577 1.384 3.322 8.74 4.605 2.096 5.256 5.512 1.471 6.812 57.19.02 16.063 7.127 6.812-.021 12.11 6.623 11.754 2.39-.168 2.388-2.018-2.577-12.973-1.719-6.266-4.003-3.49.042-6.034 2.956-.63 5.575-5.53 7.084-4.059-1.362-3.09.69-17.43 9.286-9.42 1.383-.946 7.19.926 5.658-4.017 9.621-1.387 9.934 1.703 10.71-1.199 8.008-2.102 3.143-7.107 3.186-5.025-2.557-7.359-1.258-4.625-3.416-7.822-2.767-5.172-5.365-4.9-8.824.884-4.234 4.163-3.689 5.13.63.526 6.475-3.974 2.39 3.658-.294 2.776-1.95-.063-7.398 4.415-.943 2.418 10.291-1.872 2.62-4.667 2.725-.02 1.446 6.243-2.64 1.262-2.516.484-12.324 12.279-5.722 5.991-10.438-1.135-3.856-5.487-.965-7.612 4.15-8.81 6.1-3.616 6.204-2.565.419-3.469-4.254-2.46-.86-6.392 1.635-.84.984 5.424-.293 5.236 5.26-4.542 2.201-4.289-1.928-1.45.755.757 1.3 2.648.984-2.944 5.764-2.501-.105-1.41-1.865 2.755 4.821 1.682-.923 3.049 4.654-.084 2.158-3.195.482-16.8-13.162-2.27-.628-4.627-5.598 10.618.17 5.677 6.621 1.304-.167.483-2.599-2.922-2.871 1.03-2.054 3.049.314-3.47-1.405-2.375 1.384-2.587-2.242 1.766-3.668-2.144-4.57-.252-3.877 7.148-5.491 4.08 2.493 4.835.797 7.506-8.152 4.9-.714 3.364 2.41 3.09.441 4.205-.357 5.257-2.452-2.062-3.647-17.555-2.263-5.404.44-3.259 6.54-3.763-3.186 1.43-2.096 3.11-1.258-.63-.838-3.847 1.592-7.317.272-3.259 4.046 2.67-.817 3.848 1.467.084 1.132-3.616 4.673-4.542 2.327-1.639 2.431 1.744 6.352-.988 4.044-6.665 2.054L71 558.55l-3.91-3.71 6.412-5.533-3.658-.524-5.95-3.794 1.513-1.215 3.511 1.048 4.69-.566-.737-3.396 4.647-10.333 1.262-.712 5.045 1.195-3.658-1.761-4.079.398-.61 4.381-2.86 4.443-1.85-.441-1.114-3.605-5.803 4.947-1.577 2.83-2.46-1.174.316-6.015 3.973-2.788-1.429-.461-2.039-5.387.504-2.389 1.746.377.777-2.577-.546-4.549-4.163-6.686-.252-2.892 1.618.167 4.036 7.336 2.335-.985 4.268 2.494 2.44-.943 2.27-4.485 5.34-1.992-.02 5.66 3.595 3.71 2.438-9.788-2.713 6.832-1.996-1.447-.02-4.15 2.459-6.224 1.786-.922 3.218 2.369-.127 2.745 4.9 7.482-1.242 5.89-10.555 6.33.884.335 9.524-4.108 2.692-2.788.693-5.491-5.424-7.399-.525-4.15.966-.901 3.448.546 1.85-1.824-1.491-9.223-6.161-6.916-6.097-1.844-5.972-4.884-3.764.943-.42 1.802 3.091-.586 5.234 2.2 8.054 7.651 4.752 2.159-2.293 4.443-2.796.251-2.837-3.017-14.047-7.735 1.704 4.611 4.016.294 2.838 3.228-1.85 3.1-3.932 1.384 3.596-.523 2.944-2.18 1.345 1.991-6.37 3.836z"/><path id="Fill-59" d="M211.455 645.643l-.21 5.174-7.364-4.42 4.217 5.05-1.616 1.32-7.888 1.277-17.498-6.683.776-6.475-2.601 1.635-.777 4.19-16.092 2.325-1.28-3.205 2.455-5.26-3.714 6.412-7.867-.356-4.029 1.76-2.182-1.425 1.427-1.823 7.448-3.939 2.224-3.917-2.79.167-1.993 2.2 1.006 1.383-6.23 2.409-2.896-.126-.671-1.613 4.405-1.404-2.936.127-4.973 4.713 1.972-8.108-1.3-.294-1.323 2.515-3.65 2.053-2.748-1.215-.882-1.299 1.112-3.918-2.119-2.85-1.993 1.656-2.455 6.998-5.895-4.358-4.154 2.451-3.881-.041-1.49-4.464.797-5.803 4.49 4.798 4.448 1.55 2.79-1.446-3.461-4.023-3.882-.544-.608-2.116 1.699-.985 1.741.041 2.917 4.903 2.098.881 2.287-1.383-3.105-1.362-.316-2.66 4.595 1.801 2.12-.985-1.406-.838 1.7-1.635 11.937 5.029.924-6.516 3.734-1.236 5.896 1.341-2.938 5.552-1.237 7.124 1.027-1.216 2.267 1.99-1.888-4.168 3.502-6.936 9.043 8.842 4.553-1.11-9.315-6.034-2.959-6.768-8.98-1.676-2.139-6.034 1.132-.356 15.988 9.49 6.126 5.47 2.161-2.87-3.021-1.07-.902-1.864 4.28-3.29 2.454 2.451 5.938 13.242.965-3.98-4.259-8.444.755-1.53 18.022 8.046.735 2.032-5.601 7.501 1.258 3.1 2.874-7.396 1.91-.733 1.154 2.704.839-1.383-.168-5.134 4.763.712.042-1.865-2.812-2.032-28.597-14.854-3.944-13.264.966-4.755 6.797-4.38 4.49-.502 12.358-6.977-.21-8.024-6.274-1.028-9.587 1.363-9.714 6.054-6.84-5.259-1.028-4.357 1.091-13.264 2.685-3.31.462 4.714 4.448-1.194 2.685-5.384-.357-1.32-3.104-.545-2.267-4.149-3.776-.293.525-1.446 7.616-1.467 4.112 5.176 2.686.02 6.356-4.463 2.98-5.53-.126-4.568 5.727-3.394 7.93 11 5.477-1.844 4.679-3.457 5.79 3.185z"/><path id="Fill-60" d="M27.722 414.044l-3.177-2.104.831-1.62 3.529-2.462 1.66 1.157-2.179-2.104-4.298 2.61-.997-12.585 1.039-6.859 6.769-8.102-8.617 8.376-.685-2.82-1.038 1.346v5.387l1.246 2.251-1.558 10.29-3.758-2.335-4.506-9.974.146-5.955-2.263-3.178-1.952 1.032-.914-6.46 2.41-1.558 2.948 6.313 3.446 3.809-4.526-8.649.104-2.188 1.391-.357 3.156 3.787 2.823-4.356-.684-1.894 5.086 6.019 2.679-10.985-4.215-4.86-2.7-6.734.353-1.999 2.14-1.641 6.934-3.598 5.918 1.43.519 1.853 2.366 25.208-2.325 10.69.685 2.061-2.844 6.165 1.952-2.02-.042-1.872 1.848-.4L38 399.4l-1.91 9.679-4.402 4.607z"/><path id="Fill-61" d="M212.987 672.875l-3.273-3.197-1.943.836 4.202 4.471 5.703-1.274 7.454 3.49-.17 3.593 3.063.19-1.246 2.757 1.858 3.093 2.365.564-.359 4.2-2.618 2.446-4.71-5.141-.822-4.513-3.295-2.76-3.358 1.17-2.027-1.816-5.702-.084-3.611 2.172-2.681-2.612-.866-1.713.992-1.484 4.54-.648.423-2.632-3.844 1.357-.443-1.002 2.999-7.92-6.632 4.117-4.982-2.32-1.5-4.535-5.342 1.463 3.97.062.844 3.114-3.19 1.191-.464 2.153 2.577 3.95.085 3.196 4.73.753-.782 3.657-4.667-1.191-3.103.584-1.965-4.554 2.935-2.696-2.956-1.233-2.407 2.09-1.161-2.236-2.725-1.233 1.078-3.365 4.835-3.531-10.559 4.242-1.858-1.777 2.302-.815-1.837-1.964-3.844-.71 4.097-4.681 21.076-4.096 10.875-.334 2.808-1.777 6.82-.898 3.19 1.254 2.364 4.577-.358 1.357-7.433 3.95-5.49-.542-7.562-5.685-1.202 1.253 8.509 6.562 11.89.46 5.173 4.326-.169 1.003z"/><path id="Fill-62" d="M71.103 596.49l1.472-1.031.294-4.861-9.776 2.041 2.796-2.293-.273-2.043-2.986-.063-.63-2.673.924-1.536 2.692.484 2.249-1.369 4.878 4.842 8.955.357-.042-1.326-3.574.78-6.012-1.58-4.331-7.892 9.523 2.147-2.06-4.463 2.901-.967 4.899 1.347 1.05 12.523 2.019-6.882-1.535-3.789 2.186.8 3.386 6.167 2.564-2.064 4.415 1.306 1.03 3.41-2.333 1.241 1.26 3.368 2.102-2.82 3.996 1.872L106 595.25l-3.11 3.62-3.154-.61-1.934 1.663.042 3.62 2.753 1.346-.126 2.358-3.068.315-3.154 2.737-2.65-1.832-5.949 3.578-6.054-2.862 7.463-3.22 1.472-8.714-2.208-1.178-3.678 2.673-2.629-.169-1.387-2.926-2.186 10.04-2.713-1.242z"/><path id="Fill-63" d="M227.848 652.044l18.997.566 6.144 1.674 5.011 6.28-1.133 6.451-4.193 5.631-1.593.398-4.53-1.528.504-3.727-3.103-2.093-2.538.9-1.174 4.146-6.877-1.362.838-.586-.943-2.534-6.794 2.638-1.194-1.319-1.657-11.369-3.313.293-1.3-2.93z"/><path id="Fill-64" d="M70.05 568.188l2.349-.272 5.58 3.85.021 1.278-11.58-1.905-.461-1.946-11.579-11.177-5.202 2.115-7.697-.67-2.937-5.65-4.866-2.387-.273-5.085-4.405-3.39 1.259-1.905 1.762.9 8.41 10.36 3.315.752 3.607-1.38 12.292 6.99 3.336-.523 1.468 2.07-.462 3.957 1.426 3.474 1.595-1.8-.902-3.767.797-.565 4.678 4.625z"/><path id="Fill-65" d="M132.222 605.684l.714 3.234 2.415.535 2.667-1.2 2.31 2.056.672 8.695-3.969 6.04-6.72-3.834-2.856-5.46.084-1.735 1.953-1.071-1.155-1.927-2.457 2.077-1.386 5.14-3.548-1.093-.946-2.699 1.66-3.876-.758-5.996 1.47-2.334 4.264-.192z"/><path id="Fill-66" d="M154.83 617.044l-5.007-2.334-3.555-3.532-1.717-3.28-.551-8.6 3.228-2.23 4.823 1.452.122-2.04-2.452-2.018-.122-4.71 2.84-2.082 1.573-3.995 1.8-.631.02 8.243L160 605.774l-.715 1.472-3.024-.148-5.579-5.992.163 2.902 3.597 7.842z"/><path id="Fill-67" d="M120.555 602.79l-1.505 1.584 1.95 6.35-2.31 3.337-2.671-.897-3.18-7.08-.807.77 1.145 5.005 5.195 5.817-2.672 5.368-3.328-.385-.15-3.87-8.183-8.919-1.039-7.977 1.908-.213 3.902 2.266 2.056-5.218 1.399-.684 8.714 3.55z"/><path id="Fill-68" d="M19.273 425.582l-5.421 6.462-2.54-.288-.129-1.112 3.18-4.712L7 428.422l2.583-9.733 3.521.762-2.582 1.297.705 1.542 5.314.988-.448-3.662-6.788-4.033-.533-1.646 2.476-1.893 5.7 1.378 3.99 4.691-2.155 2.407 6.296-1.09.213-1.687 1.708-.04-.299 3.95z"/><path id="Fill-69" d="M29.383 464.044l-4.98-2.322L22 456.454l1.32-3.07 6.957 1.722 2.276-1.224.085-4.583-2.148-2.385.829-.87 7.51 4.832 1.171 9.02-.915 3.048-2.298-4.25L33 460.829l-.83 2.344z"/><path id="Fill-70" d="M159.445 651.044l1.121.412-5.712 2.416-.229 2.168-5.754-.227-.707 1.073 7.146 1.61 6.046-.577.644 4.108-1.662.95-2.68-2.333-1.1 2.003 2.035 1.177-.104 1.217-4.362 2.003-1.019-1.177.438-3.386-1.683-1.982-2.743 2.291-9.12-4.252.602-4.769 3.262-.702 8.725 1.755-.892-1.508 2.99-1.713z"/><path id="Fill-71" d="M45.133 452.044l-1.864-3.092-1.539 1.232-6.026-3.678-1.734-5.35 4.488-4.326L31 434.593l3.23-2.55 6.134 3.136L46 448.219z"/><path id="Fill-72" d="M173.363 659.044l.186-2.098-1.549-2.202.66-3.252 2.336-.966 4.795-.482 15.209 4.72z"/><path id="Fill-73" d="M53.755 542.044L49 536.058l2.658-4.283 7.37-5.731 1.972 3.6-1.702 6.2-2.305 4.772z"/><path id="Fill-74" d="M21.762 481.044L21 479.26l6.61-5.912-4.098 2.325-.72-2.5 4.673-5.303 5.27-.827L35 471.305l-.597 4.76-2.182 1.674-1.4-3.912-3.088 5.043z"/><path id="Fill-75" d="M11.713 449.044l-3.924-1.377L6 442.92l2.651-2.568 1.639.554-.776-3.514-1.94-1.437 1.53-1.911L19 435.728l-3.256 4.48-2.392-.719.172 7.644z"/><path id="Fill-76" d="M16 407.044l-3.014-3.25.496 2.744-1.141-.064-3.96-5.677-4.046 2.975L3 395.774l1.249-1.625 6.22-.105 4.929 8.906z"/><path id="Fill-77" d="M21.75 512.044L19 504.917l3.158-7.713.73 2.683 3.115-1.027-.924-5.786-2.212-3.73 1.976-1.3 2.427 1.382.73 6.31-3.63 12.807z"/><path id="Fill-78" d="M13.351 370.044l-1.92-5.838-5.279 4.209-4.152-3.3.521-5.289 2.295-.782 7.2 1.312L15 367.823z"/><path id="Fill-79" d="M22.323 378.177l-2.719-3.187L14 372.67l3.416-5.626 4.212.262 2.372 2.38-.94 9.358z"/><path id="Fill-80" d="M12.142 489.044L12 484.495l2.443-3.453.51-7.917 2.402-2.081L21 474.455l-.02 3.476-2.077.064-2.24 8.26z"/><path id="Fill-81" d="M46.842 525.044l-2.402-3.185-.205-3.813 1.006-.985 2.75 1.09-1.17-2.618L39 513.08l2.997-3.037L53 521.65l-1.253 1.634z"/><path id="Fill-82" d="M6.208 378.044L2 375.375l1.625-3.28 2.562-.933 5.125-6.118L13 370.019z"/><path id="Fill-83" d="M29.942 454.044l-7.316-2.325-.626-4.994 2.007-2.928 2.137-.753 2.33 1.959L31 450.599z"/><path id="Fill-84" d="M45.895 504.044l-6.133-3.087L36 492.044l3.762 1.348 8.238 6.87z"/><path id="Fill-85" d="M138.697 654.044l-4.304-2.65-4.01 2.627-1.984-.596-1.399-3.29 1.566-3.091 9.756 2.914 2.214-1.28 2.464 3.776z"/><path id="Fill-86" d="M58.88 517.336l-4.54-6.145-7.34-4.71 1.614-4.437 8.868 7.709L60 516.399l-.15 1.645z"/><path id="Fill-87" d="M50.182 497.044L44 492.177l.183-1.385 2.594-.281 1.5-2.747v-3.72L53 494.946z"/><path id="Fill-88" d="M249.443 698.044l-.228-1.83-6.09-.895-.125-1.302.396-2.48 5.09-4.493 3.514 9.475z"/><path id="Fill-89" d="M24.811 513.044l-.811-1.18 4.33-12.82 4.67.02-5.118 11.254z"/><path id="Fill-90" d="M101.453 609.044l2.547 3.323-2.777 5.409-4.949.268L95 615.237l4.302-6.173z"/><path id="Fill-91" d="M55.347 525.044l-2.231-4.316L48 515.242l1.116-2.198 8.126 6.452.758 4.52z"/><path id="Fill-92" d="M67.98 575.253l1.02.918-2.104 2.861L69 582.478l-2.791 1.566-9.209-7.1 5.293 2.213 2.52-.96-1.23-1.253.418-1.9z"/><path id="Fill-93" d="M15.006 366.044l-3.006-9 3.665 1.092 2.985 3.022.35 3.75z"/><path id="Fill-94" d="M37.894 469.044l-3.69-2.007L33 463.904l3.049-3.86L39 465.316z"/><path id="Fill-95" d="M42.585 468.667L41 455.044l1.226 1.19L45 467.765l-1.906 2.28z"/><path id="Fill-96" d="M162.114 619.044l-5.678-1.928L155 615.03l.407-1.987 8.142 3 .451 1.539z"/><path id="Fill-97" d="M72.752 612.044L67 609.048l2.317-2.004 6.063 1.284.62 2.801z"/><path id="Fill-98" d="M264.148 669.044l.852 4.144-1.638.856-5.362-.506.583-3.677z"/><path id="Fill-99" d="M77 509.044l1.75-5.703 5.25-2.297-3.15 7.582z"/><path id="Fill-100" d="M48.968 476.044L48 469.339l3.64-.295 1.36 4.709z"/><path id="Fill-101" d="M17.706 358.044L14 355.114l5.625-6.07.375 3.014z"/><path id="Fill-102" d="M28.84 435.044l-.84-.526.901-4.17 1.965-1.304 4.134.779z"/><path id="Fill-103" d="M38 394.044l.08-9 3.92 5.882z"/><path id="Fill-104" d="M18 502.044l1.053-7.843 2.264-1.157.683 1.393-1.152 5.314z"/><path id="Fill-105" d="M46.375 480.044l-3.034-2.34L43 472.86l2.085-.815L47 477.057z"/><path id="Fill-106" d="M271.307 666.855l-.307 3.423 1.643.766 2.055-.867L277 665.99l-3.144-.946z"/><path id="Fill-107" d="M156.292 648.37l1.708 2.278-8.042 1.396-1.958-1.837 4.604-2.163z"/><path id="Fill-108" d="M19.498 448.599L18 444.937l1.05-2.752 2.838-.141.112 7z"/><path id="Fill-109" d="M97.245 627.044L95 622.88l3.245-1.837 3.755 1.332-.143 1.536z"/><path id="Fill-110" d="M29 509.928l5.654-6.884 1.103.665.243 3.216-6.912 4.119z"/><path id="Fill-111" d="M160.048 613.044l-3.72-2.925-.328-1.858 5.24-1.217.76 2.455z"/><path id="Fill-112" d="M55.05 585.044L54 582.4l.685-4.357L60 581.406z"/><path id="Fill-113" d="M67.912 553.005l-1.232.039-1.19-1.376 1.088-.814-2.175-1.027-6.403.407 5.15-2.19 4.29 1.163 1.56 1.667z"/><path id="Fill-114" d="M57.091 498.044l-1.777-.914L53 490.044l4.133 3.275.867 2.139z"/><path id="Fill-115" d="M235.127 700.195l-.127 2.132 5.696-.793 1.287 2.51.549-1.227 2.11.038.358-2.811z"/><path id="Fill-116" d="M259.465 656.147l4.896 1.566 1.639 4.33-8-4.493.087-1.506z"/><path id="Fill-117" d="M28.17 522.044L26 518.087l6-1.043-2.021 4.209z"/><path id="Fill-118" d="M57.045 476.044l-2.6-.71L53 472.647l2.711-2.602 2.289 2.58z"/><path id="Fill-119" d="M21.067 354.044L20 353.146l1.456-3.102 4.544.604z"/><path id="Fill-120" d="M28.458 515.044l-.458-3 5-3-2.011 5.088z"/><path id="Fill-121" d="M238 689.044l.756-5.93 1.468-1.07 1.776 4.731z"/><path id="Fill-122" d="M165.153 657.044l-1.153-.687.736-1.255 5.264-2.058-.617 2.63z"/><path id="Fill-123" d="M49 567.345l-2.49 3.699-3.51-.365 4.392-4.635z"/><path id="Fill-124" d="M252.84 704.044l1.16-.21-1.16-3.367-4.84-.423z"/><path id="Fill-125" d="M54.803 502.044L52 501.272l1.049-4.228L56 500.54z"/></g></g></g></g></svg>