<svg width="96" height="27" xmlns="http://www.w3.org/2000/svg"><g id="Desktop" stroke="none" stroke-width="1" fill="none" fill-rule="evenodd"><g id="Desktop/tour-page" transform="translate(-447 -3297)"><g id="share" transform="translate(447 3251)"><g id="Group" transform="translate(0 46)"><g id="facebook"><rect id="Rectangle-6" fill="#2F5BEA" x="0" y="0" width="96" height="27" rx="13.5"/><text id="Нравится" font-family="ProximaNova-Regular, Proxima Nova" font-size="11" font-weight="normal" fill="#FFF"><tspan x="34" y="17">Нравится</tspan></text><path d="M25.548 8H14.675a.668.668 0 0 0-.675.662v10.676c0 .365.302.662.675.662h5.853v-4.647h-1.593v-1.811h1.593v-1.336c0-1.55.964-2.394 2.373-2.394.674 0 1.254.05 1.423.072v1.62h-.977c-.766 0-.914.357-.914.882v1.156h1.827l-.238 1.811h-1.589V20h3.115a.669.669 0 0 0 .674-.662V8.662A.668.668 0 0 0 25.548 8" id="Fill-16" fill="#FFF"/></g></g></g></g></g></svg>