<svg xmlns="http://www.w3.org/2000/svg" width="24" height="24"><path fill="#13CB65" fill-rule="evenodd" d="M4.926 7h14.148c.237 0 .386.037.517.107.13.07.232.172.302.302.07.13.107.28.107.517v.148c0 .237-.037.386-.107.517a.727.727 0 0 1-.302.302c-.13.07-.28.107-.517.107H4.926c-.237 0-.386-.037-.517-.107a.727.727 0 0 1-.302-.302C4.037 8.46 4 8.31 4 8.074v-.148c0-.237.037-.386.107-.517a.727.727 0 0 1 .302-.302c.13-.07.28-.107.517-.107zm5 4h9.148c.237 0 .386.037.517.107.13.07.232.172.302.302.07.13.107.28.107.517v.148c0 .237-.037.386-.107.517a.727.727 0 0 1-.302.302c-.13.07-.28.107-.517.107H9.926c-.237 0-.386-.037-.517-.107a.727.727 0 0 1-.302-.302c-.07-.13-.107-.28-.107-.517v-.148c0-.237.037-.386.107-.517a.727.727 0 0 1 .302-.302c.13-.07.28-.107.517-.107zm5 4h4.148c.237 0 .386.037.517.107.13.07.232.172.302.302.07.13.107.28.107.517v.148c0 .237-.037.386-.107.517a.727.727 0 0 1-.302.302c-.13.07-.28.107-.517.107h-4.148c-.237 0-.386-.037-.517-.107a.727.727 0 0 1-.302-.302c-.07-.13-.107-.28-.107-.517v-.148c0-.237.037-.386.107-.517a.727.727 0 0 1 .302-.302c.13-.07.28-.107.517-.107z"/></svg>