<svg width="345" height="661" xmlns="http://www.w3.org/2000/svg" xmlns:xlink="http://www.w3.org/1999/xlink"><defs><path id="path-1" d="M147.489 0l-.822 5.322.954 3.24L141 24.756l.58 3.996 3.029 9.394-.337 4.887 4.078 4.11 3.964.076 1.89-2.747-1.74 3.277-3.235.55-1.628 4.583 6.247 1.837 2.972-1.117 5.404.511 3.63-3.333-1.273-3.997 1.646-2.632 2.899-.986 3.478 1.194 3.44 5.814 2.581 1.08 4.638-1.894 1.534-7.539.972-.36-1.085 7.767-3.348 2.29-4.75.418-5.665 7.349 3.179 2.727 3.347.511 2.656-2.122 1.627.36-.768 5.399 1.834 11.724-.86.302-2.395-7.897-1.627-1.894-3.908 1.269-2.6 2.52 4.377 6.893 3.852 2.766-6.9-2.198-1.534 2.653-.112 7.082.785 3.202 2.357 2.348-.075 4.982-2.75-1.326-2.243 4.034.506 4.242-4.452 2.823-.916 4.754 2.038 5.133-.075 5.644 2.487-1.08 2.132 1.383.412-1.269v1.533l9.125 1.8 3.273-4.621 1.272.51 2.169 5.02 3.44 2.045.693 2.464 3.72-.417.375-1.497 3.74-1.856 2.898.91-2.916-3.847v-1.078l2.786-1.666.038-3.258-6.229-5.493 1.067-4.736 4.133-1.022.018-4.47-2.543-1.59-5.778-1.043-2.226-3.636.917-5.531-.992-9.64 2.507-8.069-2.282-3.03 3.01-5.494 1.478-.17 1.458 1.705 4.806-2.936-1.625-8.448-3.367-7.52 1.72-3.692-1.31-6.913 1.629-14.3-2.975-8.107 2.413-2.954.58-3.979-9.014-.131-5.199 6.856-5.198-2.102-8.323-6.856-2.598-4.735-4.17-1.573-4.17 3.164-2.6-.531-1.571-2.633z"/><filter x="-70.5%" y="-30.8%" width="241%" height="164.7%" filterUnits="objectBoundingBox" id="filter-2"><feOffset dy="2" in="SourceAlpha" result="shadowOffsetOuter1"/><feGaussianBlur stdDeviation="14" in="shadowOffsetOuter1" result="shadowBlurOuter1"/><feColorMatrix values="0 0 0 0 0.192156863 0 0 0 0 0.71372549 0 0 0 0 0.294117647 0 0 0 0.338996941 0" in="shadowBlurOuter1"/></filter></defs><g id="Desktop" stroke="none" stroke-width="1" fill="none" fill-rule="evenodd"><g id="Desktop/landing-page" transform="translate(-34 -1010)"><g id="description" transform="translate(34 1035)"><g id="chilie-map"><path id="Fill-1" fill="#161616" d="M124 120.077L119.704 122 118 118.24l2.593-1.24z"/><path id="Fill-2" fill="#161616" d="M156 80.914L155.48 82l-.935-1.851-3.916-1.817L150 76l2.982.25z"/><path id="Fill-3" fill="#161616" d="M144.066 54.786l-2.962.844 3.303 1.9 4.651-3.09 3.455-.268 1.88 1.285-.608 4.8 2.07 3.283-1.367 2.305 2.829 2.419.683 2.113-.646 2.149-7.403 1.882-.627 3.82 1.994 1.786-2.924 1.23-1.5-1.364.513-1.46-1.595 1.729.323 3.379 8.333 7.2.172 2.822-3.132.231-1.14 1.959 4.328 6.72-7.801.422.398 3.13 1.917 2.63-.55 3.322-4.1 1.036-2.373-1.651-8.847-1.517-3.34-2.496 6.15-13.363.76-11.462-1.652-2.804 1.025-9.83 2.6-3.38 1.747-8.41-1.329-3.647.893-1.44 3.151.288z"/><g id="Fill-4"><use fill="#000" filter="url(#filter-2)" xlink:href="#path-1"/><use fill="#31B64B" xlink:href="#path-1"/></g><path id="Fill-5" fill="#161616" d="M181.232 127.626l-9.253-1.801.17 1.024-4.626 1.213-3.223 7.981-3.849 3.413-.076 2.37 3.376 3.223 6.2 2.065v1.063l4.986 4.114 3.622-2.92-.172 3.545-4.114 10.598-10.144 7.241-6.275.892-.778 2.408 2.655 4.435-.967 1.536-2.845.492-.397 1.973.607 1.308 1.933.303 3.792-1.554 4.873 4.796 2.693 1.27 2.958-.378-1.006 2.672-3.679-.985-5.404-5.631-8.076 5.896-1.763 12.398 4.777-4.986 2.199-.492 3.698 1.252-5.556 1.004-4.114 4.455-3.299 6.578 1.214 4.019-1.82 8.967 7.072-9.345-12.116 20.607-3.223-1.725 5.006-6.73 1.232-5.65-3.507-3.981-1.84.171-1.535 2.728 4.152 5.216-3.811-2.238-1.12-3.584-7.716 2.617-4.096-3.166 4.666 2.54 6.37-2.635 2.768-3.602-.114-1.952-2.104-2.067-.57 4.436-2.294 1.498 1.65-2.218 1.138-5.194-1.422-4.266-1.214-1.422-4.304 1.422-1.421-1.669-8.267 1.328-3.963 11.052-3.64 3.981h-3.546l-2.995 3.299-.531 4.227-1.27-1.592-1.802.967-1.859 2.028.19 1.365-4.607 3.622-2.067-.077-1.687 2.522-.152 6.237 3.85 5.82 2.142.55 3.925-3.034-2.086-6.426-1.46-.493-4.285 3.129.929-3.11 4.475-2.086 6.56-.91 2.882-2.066 3.678-5.137.133 2.616-3.717 4.663 1.878 4.816 13.613 5.934 1.802-1.706-4.988-.683.095-2.218 7.528-.759 1.99.835.512 3.298 2.94 4.531 2.71-.436 2.673 2.333-5.214 7.109.721 5.27-1.82-5.29-3.963.228-5.632 8.512 6.012 6.73 3.697-.55 2.844-1.971.417 3.204-5.668.512-1.12 1.915 1.175 2.294 2.124.397-2.616-.34-4.153-7.13-3.07-.53-1.726.892-3.697 5.612 3.298 2.406 6.22-1.004 8.854 1.611.682 1.687 2.693.72 4.399-2.426 1.156-5.99-1.195-1.65 1.233-2.541 1.84 4.058-2.144 2.806.646 3.071 6.483 7.45 3.603-.094 3.034 1.592-7.053-.72-2.219-3.053h-2.256l.247 3.054 4.284 5.535 3.014 1.82 2.144-1.726.208-2.161.36.891-.304 2.445-1.744 1.745-3.848-.872-1.65 2.824-1.08-4.36-4.816-4.341-5.139.72-3.052-2.086-6.788.38 3.868 8.891-.815.247-1.669-1.726-1.953-6.71-4.778-2.636-2.844 1.745-.397 3.07 4.247 2.181 6.067 6.123 3.924 1.498-3.052 1.289 5.707 2.502-.682 5.441-4.172-2.88-5.29 5.496 2.256 4.702 3.868-.834 2.863 1.498L163.542 341l2.427-7.603 2.558-3.658 6.125-2.067 5.233-5.252-.928-13.27 8.19-5.08-.815-10.883-5.214-4.72-.55-1.82 5.536-12.778.569-3.602-1.384-1.08.247-1.12 2.521-1.536h2.616l3.83-5.307 4.039-2.332.152-3.128-3.071-4.151 1.004-8.59 3.395-1.194 3.79-3.998-1.99-17.044-4.19-3.812 3.66-1.251 4.36-5.422-1.213-3.602-2.807-1.327-1.043-4.626 1.12-6.56 7.64-3.107 4.55-6.599-.834-2.824-6.825-9.745-13.064-2.805-.397-4.342.928-1.251 5.556 1.46 1.877-1.404 3.166 1.043 4.36-1.48 3.28 1.992 2.484.076 1.404-1.953.966-5.858 2.2-2.142-2.35-3.962-5.538-1.119-10.18.284-2.01-1.346 1.515-1.65-.567-6.236 4.625-8.38-1.384-2.653-2.938-.91-3.793 1.857-.378 1.498-3.773.418-.702-2.466-3.489-2.047-2.199-5.024-1.29-.512z"/><path id="Fill-6" fill="#161616" d="M170.94 163.192l-7.12 6.673-3.815 1.135-3.532-4.52 2.833-1.326 2.568.422-2.473-1.422-2.418 1.076-1.983-5.557 1.284-1.923 3.758-.635 1.285-6.21 6.157-1.905 6.137 3.943 1.379 2.48-2.7 4.039-4.288-1.25 3.815 2.557z"/><path id="Fill-7" fill="#161616" d="M108.665 318.575l-1.009.425-1.24-2.973-1.028-5.928.68-2.414-2.793-1.66-2.831 1.197-1.61-.81.602-1.41 3.936-1.274 1.24-1.777-5.293 1.101L98 293.65l2.114-2.529 4.013-1.12 7.757 20.64.116 4.325z"/><path id="Fill-8" fill="#161616" d="M123.454 318l-3.13-2.37-6.407-1.29-.917-3.696 2.806-4.002 1.998-.133 2.196 3.508 1.223-1.593-2.627-5.043 1.907-8.381 1.53 7.091 2.34 4.4-.234 6.788 1.259 1.8.468-1.496 1.134.53-.522 2.787z"/><path id="Fill-9" fill="#161616" d="M114.094 308l-4.519-8.69L108 293l5.738 1.04 6.262 3.38-.92 7.31z"/><path id="Fill-10" fill="#161616" d="M148.265 184l-2.573-1.768-4.408.116-2.921-3.653-2.995.815-.368-3.672 1.636-1.808 8.616-1.03 3.748 5.111z"/><path id="Fill-11" fill="#161616" d="M131.933 289L127 286.267l5.607-4.267 10.001 3.122 2.313-.924 1.079.757-.558 2.457-1.407.628-6.475-.554z"/><path id="Fill-12" fill="#161616" d="M133.675 165l-2.993-2.092-.682-4.842 4.092-1.066 6.668.272 3.24 2.73z"/><path id="Fill-13" fill="#161616" d="M111.866 214.521l-.644-2.473 3.756-.958-.847-1.017-2.1.25-1.031-4.466.995-.537 3.186 1.552L121 203l-2.117 8.953L115.66 215z"/><path id="Fill-14" fill="#161616" d="M98.21 317.782l4.47-3.078-2.533.973-3.147-.894.768-7.327 7.675-.456.557 7.069-4.816 3.931z"/><path id="Fill-15" fill="#161616" d="M129.095 203L128 201.086l1.35-1.877-.49-5.532 1.995-3.677 3.326 1.934 1.819 5.495-.743 1.761z"/><path id="Fill-16" fill="#161616" d="M117.703 293l-4.033-1.464.2-1.325-1.339-.654-2.856 2.018-2.675-.257 2.436-3.006 3.735-.99 6.17-5.322.659 9.655z"/><path id="Fill-17" fill="#161616" d="M150.264 203l-3.195-3.708-.069-5.643 2.5-3.649 2.5 1.17z"/><path id="Fill-18" fill="#161616" d="M133.239 174l-2.239-.53.245-1.262 4.91-4.208 5.303 1.244 1.542 1.994z"/><path id="Fill-19" fill="#161616" d="M148.054 163l-1.964-2.229-.09-3.333 3.405-1.438 2.595 5.894z"/><path id="Fill-20" fill="#161616" d="M140.72 133l-4.72-1.948.328-2.14 6.51-.694L144.36 127l2.64 4.278-2.466.192-.693-1.705-2.332.261.944 1.843z"/><path id="Fill-21" fill="#161616" d="M140.694 186l-3.423-1.144-.271-3.183 1.974-.673 1.448 1.784 4.618.034.96.976-.217 1.954z"/><path id="Fill-22" fill="#161616" d="M126.903 304L125 299.702l.851-4.702 5.149 5.627z"/><path id="Fill-23" fill="#161616" d="M146.865 219L143 213.99l.605-1.885 1.916-.105 3.479 2.182z"/><path id="Fill-24" fill="#161616" d="M130.93 155l-3.105-.621-.825-2.255 6.347-2.124 1.395.393 1.258 2.172-5.384 1.193z"/><path id="Fill-25" fill="#161616" d="M141.901 201l-1.737-.575-1.164-3.473 1.918-2.952 3.082 2.971-.656 3.174z"/><path id="Fill-26" fill="#161616" d="M97.995 322l-.995-.606.038-2.8 3.653.76 4.493-3.354 1.281.812.535 1.955-.994 1.072z"/><path id="Fill-27" fill="#161616" d="M137 195l2.235-6 4.767 1.912 1.998-.474-1.245 4.089-5.104-1.913z"/><path id="Fill-28" fill="#161616" d="M136.618 257L135 254.695l1.19-3.543 4.23-.152 1.58 1.2-2.886 3.791z"/><path id="Fill-29" fill="#161616" d="M145.784 172l-2.573-2.804-.211-2.784 1.54-1.412 1.56.603 1.9 4.346-.233 2.013z"/><path id="Fill-30" fill="#161616" d="M133.582 309L128 304.693l3.734-2.693 1.256.514-.394 2.161 2.404 3.031z"/><path id="Fill-31" fill="#161616" d="M122 201.025l.868-4.437L126 195l-.755 6.37-1.189.63z"/><path id="Fill-32" fill="#161616" d="M143.91 210l-.91-2.266 1.048-2.048 4.299-2.686.653 3.436-2.527-.31-1.238 3.363z"/><path id="Fill-33" fill="#161616" d="M108.947 283.268l-.175-1.357-2.772-1.126 4.035-2.785 1.965 3.429-1.053 1.821-2.455.75z"/><path id="Fill-34" fill="#161616" d="M140.306 208L138 202.924l1.99-1.924 1.931.66.079 1.302-.217 3.415z"/><path id="Fill-35" fill="#161616" d="M131.259 168l-1.966-1.083L128 163.45l2.207-.451 2.793 4.188z"/><path id="Fill-36" fill="#161616" d="M131.039 188l-3.004-2.604L128 183l3.322.206 1.678 4.54z"/><path id="Fill-37" fill="#161616" d="M139.317 157L137 155.83V152l4.71 1.674.29 2.775z"/><path id="Fill-38" fill="#161616" d="M164.055 136L160 133.798l1.06-1.843 2.81-.955 1.13 1.127z"/><path id="Fill-39" fill="#161616" d="M140.38 148l-2.448-1.795-.932-3.333 1.761-1.872 3.239 3.432-1.66.584z"/><path id="Fill-40" fill="#161616" d="M149.778 140L147 135.041l.75-2.041 2.639 2.507.611 2.47z"/><path id="Fill-41" fill="#161616" d="M129.533 312L128 307l5 3.162z"/><path id="Fill-42" fill="#161616" d="M132.256 183.932L130 181.935l.758-2.935 3.242 1.98-.815 3.02z"/><path id="Fill-43" fill="#161616" d="M127.884 162l-3.825-.039-1.059-1.15 1.44-1.811 1.408.058 2.152.722z"/><path id="Fill-44" fill="#161616" d="M127.504 257l-.504-3.066 5-.934-.373 1.981z"/><path id="Fill-45" fill="#161616" d="M112.034 170L110 166.738l1.813-1.738 2.187 2.368v1.54z"/><path id="Fill-46" fill="#161616" d="M141.867 151.798l-2.89-1.77L138 147l4.862 1.346L143 152z"/><path id="Fill-47" fill="#161616" d="M132.138 157L131 154.857l2-1.571 2.605-.286 1.395 2.547z"/><path id="Fill-48" fill="#161616" d="M138.922 310l-3.184-1.996-1.738-2.946 1.972-.058 3.028 2.112z"/><path id="Fill-49" fill="#161616" d="M149 212l-4-1.705 1.818-3.295 1.596 1.036z"/><path id="Fill-50" fill="#161616" d="M148.714 166l-1.692-1.045-.022-2.148 3.956-.807.044 3.646z"/><path id="Fill-51" fill="#161616" d="M144.946 143l-3.026-.742-.92-1.485 2.624-1.773 2.376 2.515z"/><path id="Fill-52" fill="#161616" d="M139.867 167L136 165.388l5.943-1.388.057 1.95z"/><path id="Fill-53" fill="#161616" d="M114.195 281l-1.787-1.3L112 277l3.372.492 1.628 1.853-.157 1.064z"/><path id="Fill-54" fill="#161616" d="M119.2 161l-1.2-2.153.536-2.847 2.464 1.715-.471 2.701z"/><path id="Fill-55" fill="#161616" d="M142.509 189l-2.509-.74v-.773l4.982-.487.018 1.11z"/><path id="Fill-56" fill="#161616" d="M145.294 148l-2.798-.627-.496-2.048 4.841-.325.159 2.395z"/><path id="Fill-57" fill="#161616" d="M167 125.562l2.693-1.562 2.307 2z"/><path id="Fill-58" fill="#161616" d="M162.701 461.086l-1.52-.321-.931-2.365-1.216-13.334-1.634-2.422 2.775 19.804-1.046 1.967-6.707-5.655-2.28-8.985 1.348-.832 4.523 9.08.874-.303-5.055-11.35 3.117-2.685-3.914 1.116-2.281 3.008-2.45-6.3-3.098-.925.019-10.574 2.47.775 2.774 3.178 2.85 6.866-4.712-17.534 1.083-.738 1.293 2.819-.552-4.71-1.272-.265-3.84 3.82-4.959-1.437-1.216-.964-.646-4.823-2.262-1.684-.303-4.558 1.824-1.967 7.335-.454 1.539 1.948 2.699-10.82 3.19-.718 2.718 2.931.818-1.872-4.067-2.25-1.88-3.008 3.23-2.402.855-3.556-5.454 5.864-1.33 9.325-3.364 3.045-2.602-.303-2.052-2.402-4.58-12.314 2.033-.7 5.206 2.933 3.516.567-6.194-4.54-4.637-.416L122 380.302l.494-2.327 2.28-2.042 6.404-.567 3.914 5.409 6.499 2.95 2.603.038-8.36-3.63-5.245-8.796.912-2.686 1.862.246 3.895 3.29 6.328 2.611-.266-2.421-11.477-6.223-.646-2.78 4.199-2.1 3.25-.17.265-1.287-6.365.984-.608-4.823 2.11-2.137 4.198-1.4 3.781.908 1.806 4.483 3.553 2.572.703 2.459.304-1.324-1.216-3.462-2.565-.68-.589-5.201-6.403-2.024 1.14-9.08 4.085 3.48 1.88-.018-2.565-1.287-1.52-2.496-.816-6.62 2.317-2.78 3.098 1.19-.076-.907-1.672-.888-4.067.453.039 5.39-2.927 6.81-1.786 8.795-4.276-4.331-.588-19.048-1.463-6.014 1.938-3.593 1.919 1.04 2.546-1.268 3.99.89 24.246 20.806 2.185.604-1.33 1.514-8.874.302-3.173 9.458 1.805 2.666 1.863 7.698-2.224 2.573-.683 3.67 2.28 2.552-1.787 4.957 5.511 5.428 1.483 3.31 1.31 11.368 2.49 7.282 3.211-.87 3.021-3.48 3.781-1.986 3.42 2.174 4.01-2.913 3.268.473 2.072 1.627-1.217 3.329 2.603 5.22-.627 6.64-1.843 1.003-1.653 3.157.514 2.176 3.419 3.386-1.671 3.159-.97 7.451-1.425 1.249 3.002 7.887 4.162 1.892 4.75 4.974 1.33 6.148 51.684.018 14.518 6.431 6.156-.019 10.945 5.978L291 471.338l-.152 2.156-1.824-2.326-11.724-1.551-5.663-3.613-3.154.038-5.453 2.667-.57 5.031-4.997 6.394-3.668-1.23-2.793.624-15.752 8.379-8.513 1.248-.855 6.488.836 5.107-3.63 8.682-1.253 8.965 1.539 9.665-1.083 7.226-1.9 2.837-6.423 2.875-4.542-2.307-6.65-1.135-4.18-3.083-7.069-2.498-4.675-4.84-4.427-7.964.798-3.821 3.762-3.33 4.637.569.475 5.844-3.591 2.157 3.306-.266 2.508-1.759-.056-6.677 3.99-.851 2.184 9.287-1.69 2.365-4.219 2.458-.019 1.306 5.643-2.383 1.14-2.27.438-11.122 11.097-5.164 5.415-9.42-1.027-3.48-4.958-.87-6.88 3.746-7.961 5.503-3.268 5.6-2.318.378-3.136-3.84-2.222-.776-5.777 1.476-.76.888 4.903-.264 4.731 4.747-4.105 1.986-3.876-1.74-1.311.682.685 1.172 2.393.889-2.66 5.201-2.261-.094-1.273-1.684 2.488 4.351 1.52-.833 2.756 4.2-.076 1.948-2.887.434-15.183-11.878-2.052-.567-4.181-5.05 9.596.152 5.13 5.976 1.179-.151.436-2.345-2.64-2.592.93-1.853 2.756.283-3.136-1.267-2.146 1.248-2.338-2.023 1.596-3.31-1.938-4.124-.228-3.5 6.46-4.955 3.687 2.25 4.37.72 6.784-7.357 4.427-.644 3.04 2.175 2.793.398 3.801-.323 4.75-2.212-1.862-3.291-15.866-2.043-4.883.397-2.946 5.902-3.4-2.875 1.291-1.892 2.812-1.135-.57-.756-3.477 1.437-6.612.245-2.946 3.652 2.414-.738 3.477 1.324.076 1.021-3.268 4.218-4.105 2.1-1.481 2.194 1.576 5.731-.893 3.65-6.023 1.854-3.117-1.305-3.534-3.348 5.796-4.994-3.306-.472-5.378-3.424 1.368-1.097 3.173.946 4.238-.511-.666-3.064 4.2-9.325 1.14-.643 4.56 1.078-3.306-1.589-3.686.36-.55 3.953-2.586 4.01-1.672-.398-1.007-3.254-5.244 4.465-1.426 2.553-2.222-1.06.284-5.427 3.592-2.516-1.292-.416-1.843-4.861.456-2.156 1.577.34.703-2.326-.494-4.105-3.762-6.034-.228-2.61 1.462.152 3.648 6.62 2.11-.89 3.857 2.252 2.205-.852 2.052-4.047 4.826-1.798-.019 5.108 3.25 3.348 2.204-8.833-2.452 6.165-1.804-1.305-.02-3.745 2.224-5.617 1.614-.833 2.908 2.138-.115 2.478 4.428 6.752-1.121 5.316-9.54 5.711.8.303 8.607-3.707 2.432-2.516.627-4.956-4.902-6.676-.475-3.745.873-.814 3.117.492 1.672-1.645-1.348-8.323-5.568-6.241-5.51-1.665-5.398-4.407-3.4.85-.38 1.627 2.793-.53 4.73 1.987 7.278 6.904 4.295 1.948-2.072 4.01-2.526.226-2.565-2.723-12.694-6.98 1.539 4.162 3.63.265 2.565 2.913-1.672 2.798-3.554 1.249 3.25-.473 2.66-1.967 1.217 1.797-5.758 3.461z"/><path id="Fill-59" fill="#161616" d="M285.509 583.405l-.19 4.678-6.634-3.996 3.8 4.565-1.456 1.193L273.92 591l-15.765-6.041.699-5.853-2.344 1.477-.7 3.788-14.499 2.102-1.152-2.897 2.211-4.755-3.346 5.796-7.088-.322-3.63 1.591-1.966-1.288 1.286-1.648 6.71-3.56 2.004-3.542-2.514.151-1.795 1.989.906 1.25-5.613 2.178-2.61-.114-.604-1.458 3.97-1.27-2.647.115-4.48 4.261 1.777-7.33-1.172-.265-1.192 2.273-3.289 1.856-2.475-1.099-.795-1.173 1.002-3.542-1.909-2.576-1.795 1.496-2.213 6.326-5.311-3.939-3.743 2.216-3.497-.038L195 573.12l.718-5.246 4.046 4.337 4.007 1.401 2.514-1.307-3.119-3.636-3.497-.492-.548-1.913 1.53-.89 1.57.037 2.628 4.432 1.89.796 2.06-1.25-2.797-1.231-.284-2.405 4.14 1.629 1.909-.891-1.266-.757 1.531-1.479 10.756 4.546.832-5.89 3.365-1.117 5.311 1.212-2.647 5.02-1.114 6.439.925-1.099 2.043 1.8-1.702-3.77 3.156-6.269 8.148 7.993 4.102-1.004-8.393-5.455-2.666-6.118-8.09-1.515-1.928-5.455 1.02-.321 14.404 8.58 5.52 4.943 1.948-2.594-2.723-.967-.812-1.685 3.856-2.974 2.211 2.215 5.35 11.972.87-3.599-3.838-7.633.68-1.383 16.238 7.274.663 1.837-5.047 6.78 1.133 2.803 2.59-6.686 1.72-.663 1.04 2.444.756-1.25-.151-4.64 4.291.643.038-1.686-2.533-1.837-25.766-13.429-3.553-11.99.87-4.298 6.124-3.96 4.045-.454 11.135-6.307-.19-7.254-5.652-.929-8.638 1.232-8.752 5.473-6.163-4.754-.927-3.94.984-11.99 2.419-2.992.417 4.262 4.007-1.08 2.419-4.867-.321-1.193-2.797-.493-2.043-3.75-3.402-.265.473-1.307 6.862-1.326 3.704 4.678 2.42.02 5.728-4.036 2.684-5-.113-4.129 5.16-3.068 7.145 9.944 4.934-1.667 4.216-3.125L286 486.03z"/><path id="Fill-60" fill="#161616" d="M119.717 374l-2.87-1.904.75-1.466 3.188-2.227 1.5 1.047-1.969-1.904-3.881 2.361-.9-11.385.937-6.206 6.114-7.33-7.783 7.577-.618-2.551-.938 1.218v4.874l1.125 2.037-1.407 9.31-3.394-2.113-4.07-9.025.131-5.387-2.044-2.875-1.762.933-.826-5.845 2.176-1.409 2.663 5.712 3.113 3.446-4.088-7.825.094-1.98 1.256-.323 2.851 3.427 2.55-3.942-.618-1.713 4.593 5.445 2.42-9.938-3.807-4.397-2.438-6.093.319-1.808 1.932-1.485 6.263-3.256 5.345 1.295.469 1.675 2.138 22.808-2.1 9.671.618 1.866-2.569 5.577 1.763-1.827-.037-1.694 1.669-.362 1.425 4.74-1.725 8.758-3.977 4.169z"/><path id="Fill-61" fill="#161616" d="M287.73 607.896l-2.956-2.885-1.755.755 3.795 4.035 5.151-1.15 6.733 3.15-.153 3.242 2.766.17-1.125 2.49 1.678 2.79 2.136.51-.324 3.79-2.365 2.207-4.253-4.64-.744-4.072-2.975-2.49-3.033 1.056-1.831-1.64-5.15-.076-3.262 1.96-2.422-2.356-.782-1.547.896-1.339 4.101-.584.382-2.376-3.473 1.225-.4-.904 2.709-7.148-5.99 3.716-4.5-2.093-1.354-4.093-4.826 1.32 3.586.056.762 2.81-2.88 1.075-.42 1.942 2.328 3.565.076 2.885 4.272.68-.705 3.3-4.216-1.076-2.803.528-1.775-4.11 2.652-2.433-2.67-1.113-2.175 1.886-1.048-2.018-2.461-1.113.973-3.036 4.367-3.187-9.537 3.829-1.678-1.604 2.08-.735-1.66-1.773-3.472-.64 3.701-4.225 19.035-3.696 9.823-.302 2.536-1.604 6.161-.81 2.88 1.132 2.137 4.13-.324 1.225-6.714 3.565-4.96-.49-6.828-5.13-1.087 1.13 7.686 5.923 10.739.415 4.673 3.903-.153.906z"/><path id="Fill-62" fill="#161616" d="M159.275 539.128l1.338-.92.268-4.335-8.888 1.82 2.542-2.046-.248-1.821-2.714-.057-.573-2.383.84-1.37 2.447.431 2.045-1.22 4.434 4.317 8.142.32-.039-1.184-3.249.696-5.465-1.408-3.938-7.04 8.657 1.915-1.872-3.98 2.637-.863 4.454 1.202.955 11.169 1.834-6.139-1.395-3.378 1.987.712 3.079 5.501 2.33-1.84 4.015 1.164.936 3.04-2.122 1.109 1.146 3.003 1.911-2.516 3.632 1.671 2.599 3.323-2.828 3.228-2.867-.544-1.758 1.483.038 3.229 2.503 1.2-.114 2.104-2.79.281-2.867 2.44-2.408-1.633L172.5 553l-5.503-2.552 6.784-2.873 1.338-7.771-2.007-1.05-3.344 2.383-2.39-.15-1.261-2.61-1.987 8.954-2.466-1.107z"/><path id="Fill-63" fill="#161616" d="M300.94 589l17.05.512 5.513 1.515 4.497 5.682-1.016 5.837-3.764 5.094-1.43.36-4.065-1.382.453-3.372-2.786-1.894-2.277.814-1.053 3.751-6.172-1.232.752-.53-.846-2.293-6.097 2.387-1.072-1.193-1.487-10.286-2.973.265-1.167-2.652z"/><path id="Fill-64" fill="#161616" d="M157.86 513.6l2.11-.247 5.011 3.49L165 518l-10.398-1.726-.415-1.764-10.396-10.129-4.672 1.917-6.912-.608-2.637-5.12-4.37-2.163-.244-4.608-3.956-3.073 1.13-1.726 1.583.815 7.552 9.389 2.976.682 3.24-1.25 11.037 6.334 2.995-.474 1.319 1.877-.415 3.585 1.28 3.149 1.432-1.631-.809-3.414.715-.513 4.201 4.192z"/><path id="Fill-65" fill="#161616" d="M214.058 547.324l.646 2.953 2.185.488 2.413-1.095 2.09 1.877.608 7.938-3.59 5.515-6.08-3.5-2.585-4.986.076-1.584 1.767-.978-1.045-1.76-2.223 1.897-1.254 4.693-3.21-.998-.856-2.464 1.501-3.539-.685-5.474 1.33-2.131 3.858-.176z"/><path id="Fill-66" fill="#161616" d="M234.476 558l-4.38-2.128-3.112-3.22-1.502-2.991-.482-7.842 2.824-2.032 4.22 1.323.107-1.859-2.145-1.84-.107-4.295 2.485-1.898 1.377-3.642 1.574-.576.018 7.516L239 547.724l-.625 1.343-2.647-.135-4.881-5.464.142 2.646 3.148 7.15z"/><path id="Fill-67" fill="#161616" d="M203.604 544.367l-1.338 1.456 1.734 5.844-2.054 3.07-2.374-.827-2.827-6.512-.717.707 1.018 4.605 4.618 5.351-2.375 4.939-2.958-.354-.133-3.561-7.274-8.205-.924-7.339 1.696-.196 3.468 2.085 1.828-4.8 1.243-.63 7.746 3.266z"/><path id="Fill-68" fill="#161616" d="M112.046 384.185l-4.88 5.815-2.285-.26-.116-1 2.862-4.24-6.627 2.24 2.325-8.76 3.169.687-2.324 1.167.634 1.388 4.783.889-.403-3.296-6.11-3.63-.48-1.481 2.23-1.704 5.129 1.24 3.592 4.223-1.94 2.166 5.666-.98.192-1.52 1.537-.037-.269 3.556z"/><path id="Fill-69" fill="#161616" d="M121.563 419l-4.426-2.064-2.137-4.682 1.173-2.729 6.184 1.53 2.024-1.088.075-4.074-1.91-2.12.738-.773 6.675 4.295 1.041 8.019-.814 2.709-2.042-3.779-3.366 1.899-.737 2.083z"/><path id="Fill-70" fill="#161616" d="M238.677 588l1.02.361-5.194 2.113-.207 1.898-5.232-.199-.642.939 6.496 1.41 5.497-.506.585 3.594-1.511.832-2.436-2.041-1.001 1.752 1.85 1.03-.094 1.065-3.965 1.752-.926-1.03.397-2.963-1.53-1.734-2.493 2.005-8.291-3.72.547-4.173 2.966-.615 7.932 1.536-.812-1.32 2.72-1.499z"/><path id="Fill-71" fill="#161616" d="M136.191 408l-1.74-2.783-1.436 1.109-5.624-3.31-1.619-4.815 4.189-3.893-6.961-2.014 3.015-2.294 5.725 2.822 5.26 11.736z"/><path id="Fill-72" fill="#161616" d="M251.245 595l.17-1.865-1.415-1.957.603-2.891 2.132-.858 4.378-.429L271 591.196z"/><path id="Fill-73" fill="#161616" d="M143.358 490L139 484.762l2.436-3.748 6.756-5.014 1.808 3.15-1.56 5.425-2.113 4.176z"/><path id="Fill-74" fill="#161616" d="M114.708 435l-.708-1.655 6.137-5.49-3.804 2.159-.669-2.32 4.34-4.926 4.893-.768 2.103 3.957-.554 4.42-2.026 1.555-1.3-3.634-2.868 4.684z"/><path id="Fill-75" fill="#161616" d="M105.274 406l-3.622-1.285-1.652-4.43 2.447-2.398 1.513.518-.716-3.28-1.791-1.341 1.412-1.784 9.135 1.572-3.005 4.181-2.209-.67.16 7.133z"/><path id="Fill-76" fill="#161616" d="M110 368l-2.782-3 .458 2.533-1.054-.059-3.655-5.24-3.735 2.746L98 357.597l1.153-1.5 5.741-.097 4.55 8.221z"/><path id="Fill-77" fill="#161616" d="M114.444 463L112 456.467l2.807-7.07.65 2.46 2.767-.942-.82-5.304-1.966-3.42 1.756-1.191 2.157 1.267.649 5.784-3.227 11.74z"/><path id="Fill-78" fill="#161616" d="M107.478 334l-1.772-5.308-4.873 3.827-3.833-3 .481-4.808L99.6 324l6.645 1.193L109 331.98z"/><path id="Fill-79" fill="#161616" d="M115.49 342.205l-2.446-2.92-5.044-2.127 3.075-5.158 3.79.24 2.135 2.182-.846 8.578z"/><path id="Fill-80" fill="#161616" d="M106.127 442l-.127-4.043 2.172-3.07.453-7.037 2.135-1.85 3.24 3.032-.018 3.09-1.846.057-1.99 7.341zm-105 0L1 437.957 0 432l1.127-5L6 425h12l-3 5c-1.3 1.219-2.633 2.219-4 3-1.367.781-2.034 1.448-2 2l-3 4-4.873 3z"/><path id="Fill-81" fill="#161616" d="M137.282 475l-2.23-2.972-.191-3.559.934-.92 2.554 1.018-1.086-2.444-7.263-2.288 2.783-2.835L143 471.832l-1.163 1.525z"/><path id="Fill-82" fill="#161616" d="M100.825 342L97 339.537l1.477-3.029 2.33-.86 4.659-5.648 1.534 4.592z"/><path id="Fill-83" fill="#161616" d="M122.06 410l-6.504-2.113-.556-4.54 1.784-2.662 1.9-.685 2.07 1.78 2.246 5.09z"/><path id="Fill-84" fill="#161616" d="M136.07 456l-5.621-2.83L127 445l3.449 1.236 7.551 6.297z"/><path id="Fill-85" fill="#161616" d="M220.235 591l-3.766-2.272-3.509 2.252-1.736-.51-1.224-2.82 1.37-2.65 8.536 2.498 1.938-1.097 2.156 3.236z"/><path id="Fill-86" fill="#161616" d="M147.966 467.38l-4.191-5.377-6.775-4.12 1.49-3.883 8.186 6.745 2.324 5.816-.139 1.439z"/><path id="Fill-87" fill="#161616" d="M140.495 449L135 444.507l.163-1.278 2.306-.26 1.333-2.535V437L143 447.063z"/><path id="Fill-88" fill="#161616" d="M319.727 631l-.203-1.664-5.412-.813-.112-1.184.352-2.254 4.525-4.085 3.123 8.614z"/><path id="Fill-89" fill="#161616" d="M117.72 464l-.72-1.096L120.849 451l4.151.019-4.549 10.45z"/><path id="Fill-90" fill="#161616" d="M186.736 550l2.264 2.954-2.468 4.808-4.4.238-1.132-2.495 3.824-5.487z"/><path id="Fill-91" fill="#161616" d="M144.612 474l-2.008-3.956-4.604-5.029 1.005-2.015 7.312 5.915.683 4.143z"/><path id="Fill-92" fill="#161616" d="M156.065 520.186l.935.816-1.929 2.543 1.929 3.063-2.558 1.392-8.442-6.311 4.852 1.967 2.31-.853-1.127-1.114.383-1.689z"/><path id="Fill-93" fill="#161616" d="M108.577 331L106 323l3.141.97 2.56 2.687.299 3.333z"/><path id="Fill-94" fill="#161616" d="M129.078 424l-3.074-1.784L125 419.43l2.54-3.431 2.46 4.686z"/><path id="Fill-95" fill="#161616" d="M133.585 423.715L132 411l1.226 1.112 2.774 10.76-1.906 2.128z"/><path id="Fill-96" fill="#161616" d="M241.324 559l-5.048-1.607-1.276-1.737.362-1.656 7.237 2.5.401 1.282z"/><path id="Fill-97" fill="#161616" d="M161.112 553L156 550.004l2.06-2.004 5.389 1.284.551 2.801z"/><path id="Fill-98" fill="#161616" d="M333.27 604l.73 4.144-1.404.856-4.596-.506.5-3.676z"/><path id="Fill-99" fill="#161616" d="M165 460l1.5-4.99L171 453l-2.7 6.635z"/><path id="Fill-100" fill="#161616" d="M138.968 430l-.968-5.747 3.64-.253 1.36 4.036z"/><path id="Fill-101" fill="#161616" d="M111.088 323L108 320.395l4.688-5.395.312 2.68z"/><path id="Fill-102" fill="#161616" d="M120.72 393l-.72-.438.772-3.475 1.684-1.087 3.544.649z"/><path id="Fill-103" fill="#161616" d="M129 356l.08-8 3.92 5.229z"/><path id="Fill-104" fill="#161616" d="M111 454l1.053-6.971 2.264-1.029.683 1.238-1.152 4.724z"/><path id="Fill-105" fill="#161616" d="M137.375 434l-3.034-2.047-.341-4.24 2.085-.713 1.915 4.386z"/><path id="Fill-106" fill="#161616" d="M340.256 602.51l-.256 2.852 1.37.638 1.711-.723L345 601.79l-2.62-.789z"/><path id="Fill-107" fill="#161616" d="M236.462 585.325l1.538 2.28-7.237 1.395-1.763-1.837 4.143-2.163z"/><path id="Fill-108" fill="#161616" d="M112.498 405.619L111 402.48l1.05-2.359 2.838-.121.112 6z"/><path id="Fill-109" fill="#161616" d="M182.924 566L181 562.531l2.781-1.531 3.219 1.11-.122 1.28z"/><path id="Fill-110" fill="#161616" d="M121 461.024l4.846-6.024.946.582.208 2.814-5.924 3.604z"/><path id="Fill-111" fill="#161616" d="M239.373 554l-3.1-2.437-.273-1.548 4.367-1.015.633 2.046z"/><path id="Fill-112" fill="#161616" d="M144.875 528l-.875-2.265.571-3.735 4.429 2.882z"/><path id="Fill-113" fill="#161616" d="M156.01 499.961l-1.119.039-1.081-1.376.988-.814-1.977-1.027-5.821.408 4.683-2.191 3.9 1.163L157 497.83z"/><path id="Fill-114" fill="#161616" d="M147.091 450l-1.777-.8L143 443l4.133 2.866.867 1.871z"/><path id="Fill-115" fill="#161616" d="M307.114 632.15l-.114 2.133 5.127-.793 1.157 2.51.495-1.226 1.898.037L316 632z"/><path id="Fill-116" fill="#161616" d="M329.282 593.086l4.284 1.305L335 598l-7-3.745.076-1.255z"/><path id="Fill-117" fill="#161616" d="M120.808 472L119 468.043l5-1.043-1.684 4.209z"/><path id="Fill-118" fill="#161616" d="M147.045 430l-2.6-.591-1.445-2.24 2.711-2.169 2.289 2.15z"/><path id="Fill-119" fill="#161616" d="M113.89 320l-.89-.898 1.213-3.102 3.787.605z"/><path id="Fill-120" fill="#161616" d="M120.458 465l-.458-2.5 5-2.5-2.011 4.24z"/><path id="Fill-121" fill="#161616" d="M310 622l.756-5.083 1.468-.917 1.776 4.055z"/><path id="Fill-122" fill="#161616" d="M243.96 594l-.96-.686.613-1.256L248 590l-.514 2.63z"/><path id="Fill-123" fill="#161616" d="M139 512.3l-2.075 3.7-2.925-.365 3.66-4.635z"/><path id="Fill-124" fill="#161616" d="M323.033 636l.967-.21-.967-3.367L319 632z"/><path id="Fill-125" fill="#161616" d="M144.803 454l-2.803-.772 1.049-4.228 2.951 3.496z"/></g></g></g></g></svg>