<svg xmlns="http://www.w3.org/2000/svg" xmlns:xlink="http://www.w3.org/1999/xlink" width="61" height="63"><defs><path id="b" d="M723.543 2228.586s1.534-8.776-4.727-12.586c-.188 3.05-1.704 5.877-4.167 7.774-2.673 2.286-7.702 7.426-7.649 12.906-.039 4.779 2.712 9.165 7.098 11.32a7.895 7.895 0 0 1 2.867-5.51 6.468 6.468 0 0 0 2.563-4.37c3.745 1.936 6.166 5.643 6.376 9.762v.026c4.139-1.843 6.863-5.79 7.05-10.212.445-5.148-2.455-12.148-5.028-14.436a13.661 13.661 0 0 1-4.383 5.326z"/><filter id="a" width="307.7%" height="268.8%" x="-103.8%" y="-84.4%" filterUnits="objectBoundingBox"><feOffset in="SourceAlpha" result="shadowOffsetOuter1"/><feGaussianBlur in="shadowOffsetOuter1" result="shadowBlurOuter1" stdDeviation="9"/><feColorMatrix in="shadowBlurOuter1" values="0 0 0 0 0.816203773 0 0 0 0 0.00751322834 0 0 0 0 0.106696017 0 0 0 1 0"/></filter></defs><g fill="none" transform="translate(-690 -2201)"><use fill="#000" filter="url(#a)" xlink:href="#b"/><use fill="#D0021B" xlink:href="#b"/></g></svg>