<svg width="147" height="27" xmlns="http://www.w3.org/2000/svg"><g id="Desktop" stroke="none" stroke-width="1" fill="none" fill-rule="evenodd"><g id="Desktop/tour-page" transform="translate(-847 -3297)"><g id="share" transform="translate(447 3251)"><g id="Group" transform="translate(0 46)"><g id="subscribe" transform="translate(400)"><rect id="Rectangle-9" fill="#2B3740" x="0" y="0" width="147" height="27" rx="13.5"/><text id="отправить-по-почте" font-family="ProximaNova-Regular, Proxima Nova" font-size="11" font-weight="normal" fill="#FFF"><tspan x="34" y="17">отправить по почте</tspan></text><path d="M21.588 16.31v-.504c-.467.439-1.045.658-1.736.658-.943 0-1.694-.303-2.254-.91s-.84-1.405-.84-2.394c0-.933.34-1.717 1.022-2.352.681-.635 1.545-.952 2.59-.952 1.083 0 2.025.252 2.828.756v4.2h.28c.392 0 .716-.212.973-.637.257-.425.385-.987.385-1.687 0-1.12-.413-2.065-1.239-2.835-.826-.77-1.92-1.155-3.283-1.155s-2.504.425-3.423 1.274c-.92.85-1.379 1.979-1.379 3.388 0 1.344.464 2.457 1.393 3.339.929.882 2.065 1.323 3.409 1.323.532 0 1.036-.056 1.512-.168l.07 1.498a7.353 7.353 0 0 1-1.582.182c-1.82 0-3.327-.581-4.522-1.743C14.597 16.429 14 14.952 14 13.16c0-1.736.602-3.197 1.806-4.382C17.01 7.593 18.513 7 20.314 7c1.736 0 3.173.506 4.312 1.519 1.139 1.013 1.708 2.336 1.708 3.969 0 1.017-.278 1.9-.833 2.646-.555.747-1.323 1.139-2.303 1.176h-1.61zm-1.442-1.344c.56 0 1.04-.22 1.442-.658v-2.632c-.43-.205-.84-.308-1.232-.308-.588 0-1.048.18-1.379.539-.331.36-.497.8-.497 1.323 0 .541.152.966.455 1.274.303.308.707.462 1.211.462z" id="@" fill="#CE212B"/></g></g></g></g></g></svg>