<svg width="94" height="27" xmlns="http://www.w3.org/2000/svg"><defs><linearGradient x1="60.939%" y1="47.375%" x2="80.089%" y2="73.485%" id="linearGradient-1"><stop stop-color="#EFF6FB" offset="0%"/><stop stop-color="#FFF" offset="100%"/></linearGradient></defs><g id="Desktop" stroke="none" stroke-width="1" fill="none" fill-rule="evenodd"><g id="Desktop/tour-page" transform="translate(-647 -3297)"><g id="share" transform="translate(447 3251)"><g id="Group" transform="translate(0 46)"><g id="telega" transform="translate(200)"><rect id="Rectangle-9" fill="#37AEE2" x="0" y="0" width="94" height="27" rx="13.5"/><text id="Telegram" font-family="ProximaNova-Regular, Proxima Nova" font-size="11" font-weight="normal" fill="#FFF"><tspan x="34" y="17">Telegram</tspan></text><g id="Group-9" transform="translate(14 8)"><path d="M5.446 10.934c-.35 0-.29-.153-.411-.538L3.282 6.46l8.635-5.421" id="Fill-1" fill="#C8DAEA"/><path d="M5.446 10.934c.27 0 .388-.143.539-.312l1.438-1.62-1.977-1.739" id="Fill-3" fill="#A9C9DD"/><path d="M12.075.128L.605 4.585c-.783.316-.779.756-.143.952l2.944.926 6.814-4.332c.322-.197.617-.091.375.126l-5.522 5.02 4.8 3.573c.547.304.942.147 1.079-.512l1.953-9.277c.16-.643-.13-1.007-.518-1.007-.1 0-.205.024-.312.072" id="Fill-6" fill="url(#linearGradient-1)"/></g></g></g></g></g></g></svg>