<svg width="98" height="27" xmlns="http://www.w3.org/2000/svg"><g id="Desktop" stroke="none" stroke-width="1" fill="none" fill-rule="evenodd"><g id="Desktop/tour-page" transform="translate(-745 -3297)"><g id="share" transform="translate(447 3251)"><g id="Group" transform="translate(0 46)"><g id="twitter" transform="translate(298)"><rect id="Rectangle-9" fill="#1DADEB" x="0" y="0" width="98" height="27" rx="13.5"/><text id="Твитнуть" font-family="ProximaNova-Regular, Proxima Nova" font-size="12" font-weight="normal" fill="#FFF"><tspan x="35" y="17">Твитнуть</tspan></text><path d="M27.444 9.291a5.518 5.518 0 0 1-1.584.434c.57-.34 1.007-.88 1.213-1.524a5.527 5.527 0 0 1-1.752.669A2.756 2.756 0 0 0 23.308 8a2.756 2.756 0 0 0-2.687 3.382 7.835 7.835 0 0 1-5.685-2.878 2.752 2.752 0 0 0 .854 3.677 2.75 2.75 0 0 1-1.25-.345v.035c0 1.334.95 2.447 2.213 2.7a2.765 2.765 0 0 1-1.246.048 2.76 2.76 0 0 0 2.577 1.912A5.54 5.54 0 0 1 14 17.671a7.816 7.816 0 0 0 4.228 1.238c5.074 0 7.848-4.196 7.848-7.836 0-.12-.003-.238-.008-.356a5.6 5.6 0 0 0 1.376-1.426" id="Fill-2" fill="#FFF"/></g></g></g></g></g></svg>