<svg width="96" height="27" xmlns="http://www.w3.org/2000/svg"><g id="Desktop" stroke="none" stroke-width="1" fill="none" fill-rule="evenodd"><g id="Desktop/tour-page" transform="translate(-547 -3297)"><g id="share" transform="translate(447 3251)"><g id="Group" transform="translate(0 46)"><g id="vk" transform="translate(100)"><rect id="Rectangle-6" fill="#5181B8" x="0" y="0" width="96" height="27" rx="13.5"/><text id="Нравится" font-family="ProximaNova-Regular, Proxima Nova" font-size="11" font-weight="normal" fill="#FFF"><tspan x="34" y="17">Нравится</tspan></text><path d="M25.725 10.488c.083-.281 0-.488-.397-.488h-1.313a.567.567 0 0 0-.571.375s-.668 1.644-1.614 2.712c-.306.31-.445.408-.612.408-.083 0-.204-.099-.204-.38v-2.627c0-.338-.097-.488-.375-.488h-2.063c-.208 0-.334.157-.334.305 0 .32.473.393.522 1.293v1.953c0 .428-.077.506-.244.506-.445 0-1.527-1.652-2.17-3.541-.125-.368-.252-.516-.587-.516H14.45c-.375 0-.45.178-.45.375 0 .351.445 2.094 2.072 4.398 1.085 1.574 2.614 2.427 4.004 2.427.835 0 .938-.19.938-.516v-1.19c0-.378.08-.454.343-.454.195 0 .529.099 1.308.857.89.9 1.037 1.303 1.537 1.303h1.313c.375 0 .563-.19.455-.563-.119-.373-.544-.914-1.108-1.555-.306-.365-.765-.758-.904-.955-.194-.253-.139-.366 0-.59 0 0 1.6-2.277 1.767-3.05" id="Fill-1" fill="#FFF"/></g></g></g></g></g></svg>