<svg width="182" height="464" xmlns="http://www.w3.org/2000/svg"><g id="Desktop" stroke="none" stroke-width="1" fill="none" fill-rule="evenodd"><g id="Desktop/landing-page" transform="translate(-630 -6206)" fill="#161616"><g id="contact-us" transform="translate(513 6206)"><g id="chilie-map" transform="translate(117)"><path id="Fill-1" d="M21 87.846L17.42 89 16 86.744 18.16 86z"/><path id="Fill-2" d="M45 59.095l-.434.905-.779-1.543-3.263-1.513L40 55l2.485.208z"/><path id="Fill-3" d="M36.047 40.28l-2.115.605 2.359 1.362 3.322-2.215 2.468-.192 1.342.92-.433 3.441 1.477 2.353-.975 1.652 2.02 1.733.488 1.514-.461 1.54-5.288 1.35-.448 2.738 1.424 1.28-2.088.88-1.071-.977.365-1.046-1.139 1.238.23 2.422 5.953 5.16.123 2.023-2.237.166-.814 1.403 3.091 4.816-5.572.303.284 2.242 1.37 1.886-.393 2.38L36.4 82l-1.695-1.183-6.32-1.087L26 77.94l4.393-9.577.542-8.215-1.18-2.009.733-7.045 1.857-2.422 1.248-6.027-.95-2.614.638-1.032 2.251.206z"/><path id="Fill-4" d="M37.787 0l-.607 3.881.704 2.363L33 18.054l.428 2.915 2.234 6.852-.248 3.564 3.008 2.997 2.924.056 1.394-2.003-1.283 2.39-2.386.4-1.201 3.343 4.608 1.34 2.193-.815 3.986.373 2.677-2.431-.938-2.915 1.214-1.92 2.138-.718 2.566.87 2.538 4.24 1.904.788 3.422-1.381 1.13-5.498.719-.263-.8 5.664-2.47 1.671-3.505.305-4.18 5.359 2.346 1.99 2.47.372 1.958-1.548 1.2.263-.566 3.937 1.353 8.55-.635.221-1.766-5.76-1.2-1.38-2.883.925-1.918 1.837 3.228 5.028 2.843 2.017-5.091-1.603-1.132 1.935-.082 5.165.579 2.336 1.738 1.712-.055 3.633-2.028-.967-1.655 2.943.373 3.094-3.284 2.058-.676 3.467 1.504 3.744-.055 4.116 1.834-.787 1.573 1.008.304-.925v1.118l6.732 1.313 2.414-3.37.938.372 1.6 3.66 2.538 1.492.511 1.797 2.745-.304.276-1.092 2.76-1.353 2.137.663-2.151-2.805v-.787l2.055-1.215.028-2.376-4.595-4.006.787-3.454 3.049-.745.014-3.261-1.877-1.16-4.262-.76-1.642-2.652.676-4.034-.731-7.03 1.848-5.885-1.683-2.21 2.221-4.007 1.09-.124 1.076 1.243 3.546-2.141-1.2-6.16-2.484-5.485 1.27-2.694-.966-5.041 1.2-10.43-2.194-5.912 1.78-2.154.428-2.902-6.65-.096-3.835 5-3.835-1.533-6.14-5-1.916-3.454L49.83.498l-3.077 2.307-1.918-.388-1.159-1.92z"/><path id="Fill-5" d="M62.587 92.374l-6.715-1.314.123.747-3.357.885-2.34 5.821-2.793 2.489-.055 1.729 2.45 2.35 4.5 1.507v.775l3.619 3 2.629-2.129-.125 2.586-2.986 7.729-7.363 5.282-4.554.65-.565 1.756 1.927 3.235-.702 1.12-2.064.36-.29 1.438.442.954 1.403.221 2.752-1.133 3.537 3.498 1.954.926 2.147-.276-.73 1.95-2.67-.72-3.922-4.106-5.862 4.3-1.28 9.043 3.468-3.637 1.596-.359 2.684.913-4.033.733-2.986 3.249-2.394 4.798.88 2.93-1.32 6.541 5.133-6.816-8.794 15.03-2.34-1.258 3.634-4.909.895-4.12-2.546-2.904-1.335.125-1.115 1.99 3.014 3.804-2.766-1.633-.813-2.613-5.6 1.908-2.973-2.31 3.386 1.854 4.623-1.922 2.01-2.627-.083-1.424-1.527-1.508-.414 3.236-1.664 1.092 1.197-1.617.826-3.789-1.033-3.111-.88-1.037-3.125 1.037-1.031-1.217-6 .968-2.876 8.061-2.642 2.904h-2.574l-2.174 2.406-.385 3.083-.922-1.161-1.308.705-1.349 1.479.138.996-3.344 2.641-1.5-.056-1.225 1.84L0 175.89l2.794 4.244 1.555.401 2.849-2.212-1.514-4.687-1.06-.36-3.11 2.282.674-2.268 3.248-1.521 4.761-.663 2.092-1.508 2.67-3.746.096 1.907-2.698 3.401 1.363 3.513 9.88 4.328 1.309-1.244-3.62-.498.069-1.618 5.463-.553 1.445.608.371 2.406 2.134 3.304 1.968-.317 1.94 1.7-3.785 5.186.524 3.844-1.321-3.858-2.877.166-4.088 6.208 4.364 4.909 2.683-.401 2.064-1.438.303 2.337-4.114.373-.812 1.397.852 1.673 1.541.29-1.898-.249-3.014-5.2-2.23-.386-1.251.65-2.684 4.093 2.394 1.755 4.514-.732 6.427 1.175.495 1.23 1.954.526 3.193-1.77.84-4.37-.868-1.202.895-1.853 1.335 2.959-1.556 2.047.469 2.24 4.706 5.433 2.615-.068 2.202 1.16-5.12-.524-1.61-2.227h-1.638l.18 2.227 3.11 4.038 2.187 1.327 1.556-1.259.15-1.576.262.65-.22 1.784-1.266 1.272-2.793-.636-1.198 2.06-.784-3.18-3.495-3.167-3.73.526-2.215-1.521-4.927.277 2.808 6.484-.592.18-1.211-1.258-1.418-4.895-3.468-1.922-2.064 1.272-.288 2.24 3.082 1.59 4.404 4.466 2.847 1.092-2.214.94L33.028 223l-.495 3.969-3.029-2.102-3.838 4.01 1.636 3.429 2.808-.608 2.078 1.092L49.748 248l1.762-5.545 1.856-2.668 4.446-1.508 3.798-3.83-.674-9.679 5.945-3.706-.592-7.937-3.784-3.443-.4-1.327 4.02-9.32.412-2.627-1.005-.787.18-.817 1.83-1.12h1.898l2.78-3.87 2.931-1.702.11-2.282-2.229-3.027.73-6.265 2.463-.871 2.752-2.916-1.444-12.432-3.042-2.78 2.656-.912 3.165-3.954-.88-2.627-2.038-.968-.757-3.374.813-4.785 5.545-2.267 3.303-4.812-.606-2.06-4.954-7.108-9.481-2.046-.288-3.166.673-.913 4.032 1.065 1.363-1.024 2.298.761 3.165-1.08 2.38 1.453 1.803.055 1.019-1.424.701-4.273L90 112.52l-1.706-2.89-4.019-.815-7.39.207-1.458-.982 1.1-1.203-.412-4.55 3.357-6.11-1.004-1.936-2.133-.664-2.752 1.355-.275 1.092-2.739.305-.51-1.799-2.531-1.492-1.596-3.665-.937-.373z"/><path id="Fill-6" d="M55.158 119.322l-4.984 4.853-2.67.825-2.473-3.287 1.983-.965 1.798.308-1.731-1.035-1.693.783L44 116.762l.9-1.398 2.63-.462.899-4.517 4.31-1.385 4.296 2.867.965 1.804-1.89 2.938-3.001-.91 2.67 1.86z"/><path id="Fill-7" d="M10.618 231.693l-.72.307-.887-2.153-.734-4.292.485-1.748-1.994-1.202-2.023.866-1.15-.587.43-1.02 2.812-.923.886-1.287-3.781.798-.942-6.81 1.51-1.83L7.377 211l5.54 14.947.083 3.131z"/><path id="Fill-8" d="M21.214 231l-2.46-1.648-5.033-.898-.721-2.572 2.205-2.783 1.57-.092 1.725 2.44.961-1.108-2.064-3.509 1.498-5.83 1.202 4.933 1.839 3.06-.184 4.722.989 1.254.368-1.042.891.37-.41 1.938z"/><path id="Fill-9" d="M13.57 224l-3.389-6.373L9 213l4.303.762 4.697 2.48-.69 5.36z"/><path id="Fill-10" d="M39.422 134l-2.02-1.286-3.465.085-2.295-2.657-2.353.593-.289-2.671 1.285-1.315 6.77-.749L40 129.717z"/><path id="Fill-11" d="M27.635 211L24 209.048 28.132 206l7.369 2.23 1.704-.66.795.54-.412 1.756-1.036.448-4.771-.396z"/><path id="Fill-12" d="M27.888 121l-2.352-1.569L25 115.8l3.215-.799 5.24.204L36 117.252z"/><path id="Fill-13" d="M12.606 156.64l-.45-1.854 2.629-.719-.594-.762-1.469.187-.722-3.35.696-.402 2.23 1.164L19 148l-1.482 6.715L15.262 157z"/><path id="Fill-14" d="M1.94 231.841l3.478-2.238-1.97.708L1 229.66l.597-5.33 5.97-.331.433 5.14L4.254 232z"/><path id="Fill-15" d="M24.821 147L24 145.675l1.012-1.3-.367-3.83L26.141 138l2.495 1.339L30 143.143l-.557 1.22z"/><path id="Fill-16" d="M16.41 213l-2.793-1.065.139-.963-.927-.476-1.977 1.468L9 211.777l1.686-2.187 2.586-.72 4.271-3.87.457 7.022z"/><path id="Fill-17" d="M39.611 147l-2.555-2.567-.056-3.907L39 138l2 .81z"/><path id="Fill-18" d="M27.68 127l-1.68-.442.184-1.052L29.866 122l3.977 1.037L35 124.698z"/><path id="Fill-19" d="M38.711 118l-1.636-1.592-.075-2.381L39.838 113 42 117.21z"/><path id="Fill-20" d="M33.433 97L30 95.377l.239-1.783 4.734-.58L36.08 92 38 95.565l-1.794.16-.504-1.42-1.695.217.686 1.536z"/><path id="Fill-21" d="M33.873 136l-2.662-.915-.211-2.547 1.535-.538 1.126 1.428 3.592.026.747.781-.169 1.563z"/><path id="Fill-22" d="M22.586 221L21 217.657l.71-3.657 4.29 4.377z"/><path id="Fill-23" d="M38.221 160L35 156.421l.505-1.346L37.1 155l2.9 1.559z"/><path id="Fill-24" d="M26.057 113l-2.415-.497L23 110.7l4.936-1.7 1.086.314.978 1.738-4.188.955z"/><path id="Fill-25" d="M34.321 146l-1.39-.41-.931-2.482L33.534 141 36 143.122l-.525 2.268z"/><path id="Fill-26" d="M1.696 235L1 234.495l.027-2.333 2.557.633L6.729 230l.896.677.375 1.629-.696.893z"/><path id="Fill-27" d="M31 142l1.738-5 3.708 1.593 1.554-.395-.969 3.408-3.969-1.594z"/><path id="Fill-28" d="M30.156 188L29 186.08l.85-2.953 3.022-.127L34 184l-2.061 3.16z"/><path id="Fill-29" d="M36.67 125l-1.544-2.003L35 121.01l.923-1.009.937.43 1.14 3.105-.14 1.438z"/><path id="Fill-30" d="M27.987 225L24 221.924 26.667 220l.897.367-.281 1.544L29 224.076z"/><path id="Fill-31" d="M20 146.304l.651-3.17L23 142l-.566 4.55-.892.45z"/><path id="Fill-32" d="M35.759 153L35 151.381l.874-1.462L39.456 148l.544 2.454-2.106-.221-1.032 2.402z"/><path id="Fill-33" d="M10.456 207.39l-.146-1.131-2.31-.938L11.363 203 13 205.857l-.877 1.518-2.047.625z"/><path id="Fill-34" d="M32.73 151L31 147.375 32.493 146l1.448.471.059.93-.162 2.44z"/><path id="Fill-35" d="M26.607 122l-1.572-.867L24 118.361l1.765-.361L28 121.35z"/><path id="Fill-36" d="M26.431 137l-2.403-1.562L24 134l2.657.124L28 136.848z"/><path id="Fill-37" d="M32.39 114l-1.39-.702V111l2.826 1.005.174 1.664z"/><path id="Fill-38" d="M49.433 99L47 97.238l.636-1.474L49.322 95l.678.901z"/><path id="Fill-39" d="M33.028 108l-1.469-1.282-.559-2.381L32.057 103 34 105.451l-.996.418z"/><path id="Fill-40" d="M40.084 102L38 98.458 38.562 97l1.98 1.79.458 1.765z"/><path id="Fill-41" d="M25.226 227L24 223l4 2.53z"/><path id="Fill-42" d="M26.692 133.945L25 132.348l.568-2.348L28 131.584 27.389 134z"/><path id="Fill-43" d="M23.907 118l-3.06-.026-.847-.766L21.152 116l1.126.039 1.722.48z"/><path id="Fill-44" d="M24.302 187L24 184.7l3-.7-.224 1.486z"/><path id="Fill-45" d="M12.525 124L11 121.39l1.36-1.39 1.64 1.894v1.232z"/><path id="Fill-46" d="M34.32 109.879l-1.734-1.063L32 107l2.917.807L35 110z"/><path id="Fill-47" d="M26.948 115L26 113.393l1.667-1.179 2.17-.214L31 113.91z"/><path id="Fill-48" d="M31.953 226l-1.91-1.198L29 223.035l1.183-.035L32 224.267z"/><path id="Fill-49" d="M40 155l-3-1.364L38.364 151l1.197.83z"/><path id="Fill-50" d="M39.286 121l-1.27-.784-.016-1.61 2.967-.606.033 2.734z"/><path id="Fill-51" d="M36.368 104l-1.816-.556L34 102.33l1.574-1.33L37 102.886z"/><path id="Fill-52" d="M32.222 122L29 120.925l4.952-.925.048 1.3z"/><path id="Fill-53" d="M14.317 205l-1.072-.976L13 202l2.023.37.977 1.388-.094.799z"/><path id="Fill-54" d="M17.8 117l-.8-1.722.357-2.278L19 114.372l-.314 2.161z"/><path id="Fill-55" d="M35.007 137L33 136.63v-.386l3.986-.244.014.555z"/><path id="Fill-56" d="M35.976 108l-1.679-.418-.297-1.365 2.905-.217.095 1.596z"/><path id="Fill-57" d="M53 90.78l1.616-.78L56 91z"/><path id="Fill-58" d="M49.623 335.685l-1.107-.235-.678-1.726-.884-9.73-1.19-1.767 2.02 14.452-.761 1.435-4.882-4.127-1.659-6.556.981-.608 3.292 6.626.636-.221-3.679-8.282 2.269-1.96-2.85.815-1.66 2.194-1.783-4.596-2.254-.676.014-7.716 1.798.566 2.018 2.319 2.075 5.01-3.43-12.795.789-.538.94 2.057-.401-3.437-.926-.193-2.794 2.787-3.61-1.049-.885-.703-.47-3.52-1.646-1.228-.221-3.327 1.327-1.435 5.339-.331 1.12 1.421 1.964-7.895 2.323-.525 1.978 2.14.595-1.367-2.96-1.642-1.37-2.195 2.352-1.752.622-2.596-3.97 4.28-.967 6.804-2.448 2.223-1.894-.222-1.494-1.752-3.333-8.986 1.48-.51 3.789 2.139 2.558.414-4.508-3.313-3.374-.303L20 276.734l.36-1.698 1.66-1.49 4.66-.414 2.849 3.947 4.73 2.153 1.894.028-6.085-2.65-3.817-6.418.664-1.96 1.355.18 2.835 2.4 4.605 1.906-.193-1.767-8.353-4.541-.47-2.029 3.056-1.532 2.365-.125.193-.938-4.632.718-.443-3.52 1.535-1.56 3.056-1.02 2.752.661 1.315 3.272 2.586 1.877.51 1.794.222-.966-.885-2.526-1.867-.497-.428-3.795-4.66-1.477.828-6.625 2.974 2.54 1.37-.015-1.868-.938-1.107-1.822-.594-4.83 1.687-2.03 2.254.87-.055-.663-1.217-.648-2.96.33.029 3.934-2.13 4.97-1.3 6.418-3.112-3.161-.429-13.9-1.065-4.388 1.41-2.623 1.398.759 1.853-.925 2.904.649 17.646 15.183 1.59.441-.967 1.105-6.459.22-2.31 6.902 1.314 1.945 1.356 5.618-1.618 1.878-.498 2.677 1.66 1.863-1.3 3.617 4.01 3.961 1.08 2.415.953 8.296 1.812 5.314 2.337-.635 2.2-2.54 2.751-1.449 2.49 1.587 2.917-2.126 2.379.345 1.508 1.187-.886 2.43 1.895 3.81-.456 4.844-1.342.732-1.203 2.304.374 1.588 2.488 2.47-1.216 2.306-.705 5.437-1.038.912 2.185 5.755 3.03 1.38 3.457 3.63.967 4.486 37.617.014 10.566 4.693 4.48-.014 7.966 4.362 7.731 1.573-.11 1.574-1.328-1.698-8.533-1.132-4.121-2.636-2.296.028-3.969 1.946-.415 3.672-3.637 4.665-2.67-.897-2.032.455-11.465 6.114-6.195.911-.623 4.735.609 3.726-2.642 6.336-.912 6.542 1.12 7.053-.788 5.273-1.383 2.07L86.935 394l-3.305-1.684-4.84-.828-3.042-2.25-5.146-1.822-3.402-3.533-3.222-5.81.581-2.79 2.738-2.429 3.375.415.345 4.265-2.614 1.574 2.407-.194 1.826-1.284-.042-4.872 2.904-.622 1.59 6.778-1.23 1.725-3.07 1.794-.014.953 4.107-1.739.83-1.657.318-8.116 8.076-3.768 3.941-6.873-.747-2.54-3.608-.635-5.007 2.733-5.795 4.016-2.378 4.086-1.687.276-2.282-2.801-1.618-.567-4.205 1.077-.552.648 3.568-.193 3.443 3.465-2.987 1.449-2.821-1.27-.955.497.499.856 1.742.649-1.937 3.795-1.645-.069-.927-1.228 1.812 3.175 1.106-.608 2.005 3.064-.055 1.422-2.101.317-11.05-8.668-1.494-.413-3.043-3.686 6.984.11 3.734 4.362.858-.11.317-1.712-1.921-1.89.677-1.353 2.005.206-2.282-.924-1.562.91-1.702-1.476 1.162-2.415-1.41-3.01-.166-2.553 4.702-3.616 2.683 1.642 3.18.525 4.938-5.369 3.222-.47 2.213 1.587 2.032.29 2.767-.234 3.457-1.615-1.356-2.402-11.547-1.49-3.554.29-2.144 4.306-2.475-2.098.94-1.38 2.047-.828-.415-.552-2.53 1.048-4.813.18-2.144 2.664 1.757-.538 2.53.965.056.746-2.379 3.078-2.987 1.532-1.079 1.601 1.148 4.183-.65 2.663-4.384 1.353-2.268-.953-2.572-2.443 4.218-3.644-2.406-.344-3.915-2.5.996-.8 2.31.691 3.084-.373-.484-2.236 3.056-6.805.83-.469 3.319.787-2.407-1.16-2.682.263-.401 2.885-1.881 2.926-1.217-.29-.734-2.375-3.816 3.258-1.038 1.863-1.617-.773.207-3.96 2.614-1.837-.94-.303-1.342-3.548.332-1.573 1.148.248.511-1.697-.359-2.995-2.738-4.404-.166-1.904 1.064.11 2.655 4.831 1.536-.649 2.807 1.643 1.605-.621 1.493-2.954 3.513-1.312-.014 3.728 2.365 2.443 1.604-6.446-1.784 4.5-1.313-.953-.014-2.733 1.618-4.099 1.174-.608 2.117 1.56-.084 1.808 3.223 4.928-.816 3.879-6.943 4.168.581.22 6.265-2.705 1.77-1.836.457-3.616-3.568-4.872-.346-2.733.636-.594 2.268.36 1.217-1.201-.981-6.074-4.053-4.554-4.01-1.215-3.928-3.216-2.476.62-.276 1.188 2.033-.386 3.443 1.449 5.297 5.038 3.126 1.422-1.508 2.925-1.839.166-1.867-1.987-9.239-5.094 1.12 3.037 2.643.193 1.866 2.126-1.217 2.042-2.586.911 2.365-.344 1.937-1.436.885 1.311-4.19 2.526z"/><path id="Fill-59" d="M138.644 424.489l-.137 3.394-4.812-2.9 2.755 3.313-1.056.866-5.154.838-11.435-4.384.507-4.247-1.7 1.072-.507 2.748-10.516 1.526-.836-2.102 1.604-3.451-2.426 4.206-5.141-.233-2.633 1.154-1.426-.935.932-1.195 4.867-2.584 1.453-2.57-1.823.11-1.302 1.443.658.907-4.072 1.58-1.892-.082-.439-1.059 2.88-.92-1.92.082-3.25 3.093 1.29-5.32-.85-.192-.865 1.65-2.385 1.346-1.796-.797-.576-.852.727-2.57-1.385-1.87-1.302 1.087-1.605 4.59-3.852-2.858-2.714 1.608-2.536-.028-.974-2.928.52-3.807 2.935 3.148 2.906 1.016 1.824-.948-2.262-2.639-2.537-.357-.397-1.388 1.11-.646 1.138.027 1.906 3.216 1.37.578 1.496-.907-2.03-.894-.206-1.745 3.003 1.182 1.385-.646-.918-.55 1.11-1.073 7.8 3.3.604-4.275 2.44-.811 3.853.88-1.92 3.642-.808 4.673.671-.797 1.481 1.305-1.233-2.735 2.288-4.549 5.91 5.8 2.975-.729-6.087-3.958-1.934-4.44-5.868-1.099-1.398-3.958.74-.234 10.447 6.226 4.004 3.588 1.412-1.883-1.975-.701-.589-1.223 2.797-2.158 1.604 1.607 3.88 8.687.63-2.61-2.782-5.54.493-1.004 11.777 5.279.48 1.333-3.66 4.92.822 2.034 1.878-4.852 1.248-.48.754 1.773.548-.907-.11-3.368 3.113.467.027-1.223-1.837-1.333-18.687-9.745-2.577-8.7.63-3.12 4.442-2.873 2.934-.33 8.076-4.577-.137-5.264-4.1-.673-6.265.893-6.348 3.972-4.47-3.45-.671-2.858.713-8.701 1.754-2.172.303 3.093 2.906-.784 1.754-3.531-.233-.867-2.028-.357-1.481-2.722-2.468-.192.343-.948 4.977-.963 2.687 3.395 1.755.014 4.154-2.928 1.947-3.628-.083-2.996 3.743-2.227 5.182 7.216 3.579-1.21 3.057-2.268 3.784 2.09z"/><path id="Fill-60" d="M18.369 272l-2.05-1.37.537-1.054 2.276-1.602 1.072.753-1.407-1.37-2.772 1.7-.643-8.19.67-4.464 4.367-5.273-5.56 5.45-.441-1.835-.67.877v3.506l.804 1.465-1.005 6.696-2.425-1.52-2.907-6.49.094-3.876-1.46-2.068-1.26.671L5 249.802l1.554-1.014 1.903 4.109 2.223 2.479-2.92-5.629.067-1.424.898-.233 2.036 2.465 1.821-2.835-.442-1.232 3.282 3.917 1.728-7.15-2.719-3.162-1.742-4.382.228-1.301 1.38-1.068L18.771 231l3.818.931.335 1.205 1.526 16.406-1.5 6.956.442 1.342-1.835 4.012 1.26-1.314-.027-1.219 1.192-.26L25 262.47l-1.232 6.299-2.84 2.999z"/><path id="Fill-61" d="M140.088 443.06l-2.164-2.106-1.285.55 2.779 2.945 3.77-.839 4.93 2.299-.112 2.366 2.025.124-.824 1.816 1.23 2.037 1.563.372-.237 2.765L150.03 457l-3.114-3.385-.544-2.972-2.179-1.817-2.22.77-1.34-1.197-3.772-.055-2.388 1.43-1.773-1.72-.572-1.128.656-.977 3.003-.426.279-1.734-2.542.894-.293-.66 1.983-5.216-4.385 2.711-3.295-1.527-.992-2.986-3.533.963 2.625.04.558 2.051-2.108.785-.307 1.417 1.704 2.602.056 2.105 3.127.495-.516 2.409-3.087-.785-2.052.385-1.3-3 1.942-1.774-1.955-.813-1.592 1.376-.767-1.472-1.802-.812.712-2.216 3.198-2.325-6.983 2.794-1.229-1.17 1.523-.537-1.215-1.294-2.542-.467 2.71-3.083 13.936-2.697 7.192-.22 1.857-1.17 4.51-.592 2.11.826 1.563 3.014-.237.894-4.916 2.601-3.63-.357-5-3.744-.796.825 5.628 4.322 7.862.303 3.421 2.848-.111.661z"/><path id="Fill-62" d="M47 392.912l.97-.67.193-3.153-6.443 1.324 1.843-1.488-.18-1.324-1.968-.041-.415-1.734.61-.997 1.773.314 1.483-.887 3.214 3.14 5.903.232-.028-.86-2.355.505-3.963-1.024-2.854-5.12 6.276 1.393-1.358-2.894 1.913-.628 3.228.874.693 8.123 1.33-4.464-1.012-2.458 1.441.519 2.232 4 1.69-1.338 2.91.846.678 2.212-1.537.806.83 2.184 1.386-1.83 2.633 1.215L70 392.106l-2.05 2.348-2.079-.396-1.274 1.079.027 2.348 1.815.873-.083 1.53-2.022.204-2.079 1.776-1.746-1.189L56.588 403l-3.99-1.856 4.918-2.09.97-5.651-1.455-.764-2.424 1.733-1.733-.109-.914-1.898-1.441 6.512-1.788-.805z"/><path id="Fill-63" d="M149.899 429l12.665.377 4.095 1.116 3.341 4.188-.755 4.3-2.796 3.754-1.062.265-3.02-1.018.336-2.485-2.069-1.396-1.691.6-.783 2.764-4.585-.908.559-.39-.629-1.69-4.529 1.76-.796-.88-1.104-7.58-2.21.196-.866-1.954z"/><path id="Fill-64" d="M45.808 373.813l1.534-.178 3.644 2.527L51 377l-7.562-1.25-.302-1.277-7.561-7.335-3.397 1.388-5.027-.44-1.918-3.708-3.178-1.566-.178-3.337L19 357.25l.822-1.25 1.15.59 5.493 6.799 2.165.494 2.356-.906 8.027 4.587 2.178-.343.96 1.36-.302 2.596.931 2.28 1.041-1.182-.588-2.472.52-.371 3.055 3.036z"/><path id="Fill-65" d="M87.148 398.374l.476 2.11 1.61.348 1.778-.782 1.54 1.34.448 5.671L90.354 411l-4.48-2.5-1.904-3.561.056-1.132 1.302-.698-.77-1.257-1.638 1.355-.924 3.352-2.366-.713-.63-1.76 1.106-2.528-.504-3.91.98-1.522 2.842-.126z"/><path id="Fill-66" d="M101.446 406l-3.442-1.51-2.445-2.286-1.18-2.122-.379-5.565 2.22-1.442 3.315.939.084-1.32-1.686-1.306-.084-3.048 1.952-1.347 1.082-2.584 1.237-.409.014 5.334 2.866 9.374-.491.952-2.08-.096-3.835-3.877.112 1.878 2.473 5.074z"/><path id="Fill-67" d="M79.703 397.038l-1.003 1.013 1.3 4.065-1.54 2.135-1.781-.574-2.12-4.53-.538.492.764 3.203 3.463 3.722L76.466 410l-2.218-.246-.1-2.478-5.455-5.707-.693-5.105 1.272-.137 2.601 1.45 1.371-3.34.933-.437 5.809 2.272z"/><path id="Fill-68" d="M12.978 279.8L9.454 284l-1.651-.187-.084-.723 2.068-3.063L5 281.647l1.68-6.328 2.288.496-1.679.843.459 1.002 3.454.642-.292-2.38-4.412-2.622-.346-1.07 1.61-1.23 3.704.896 2.594 3.05-1.401 1.564 4.092-.709.139-1.096 1.11-.027-.194 2.568z"/><path id="Fill-69" d="M18.922 305l-3.32-1.548L14 299.94l.88-2.046 4.638 1.147 1.518-.815.056-3.056-1.432-1.59.553-.58 5.007 3.221.78 6.014-.61 2.032-1.532-2.834-2.525 1.424-.553 1.563z"/><path id="Fill-70" d="M104.374 428l.714.284-3.636 1.66-.145 1.491-3.662-.156-.45.738 4.548 1.107 3.847-.397.41 2.824-1.058.653-1.705-1.604-.7 1.377 1.295.81-.066.836L100.99 439l-.648-.81.278-2.327-1.071-1.363-1.745 1.576L92 433.152l.383-3.278 2.076-.483 5.552 1.206-.568-1.036 1.904-1.178z"/><path id="Fill-71" d="M29.422 297l-1.242-2.01-1.027.801-4.017-2.39-1.156-3.478 2.992-2.812L20 285.657 22.153 284l4.09 2.038L30 294.514z"/><path id="Fill-72" d="M113.889 434l.121-1.398-1.01-1.469.431-2.168 1.523-.644 3.127-.321 9.919 3.147z"/><path id="Fill-73" d="M35.17 357L32 352.884l1.772-2.944 4.913-3.94L40 348.475l-1.135 4.262-1.536 3.281z"/><path id="Fill-74" d="M14.49 316l-.49-1.146 4.249-3.8-2.634 1.494-.463-1.607 3.004-3.41 3.388-.531L23 309.74l-.384 3.06-1.402 1.076-.9-2.516-1.986 3.243z"/><path id="Fill-75" d="M7.955 296l-2.716-.918L4 291.917l1.835-1.712 1.135.37-.537-2.343-1.343-.958L6.149 286 13 287.123l-2.254 2.986-1.656-.479.119 5.096z"/><path id="Fill-76" d="M11 268l-2.086-2.25.343 1.9-.79-.044-2.742-3.93-2.8 2.06L2 260.197l.864-1.125L7.171 259l3.412 6.166z"/><path id="Fill-77" d="M13.833 337L12 332.249l2.105-5.142.488 1.789 2.075-.685-.615-3.858-1.475-2.486 1.318-.867 1.617.922.487 4.206-2.42 8.538z"/><path id="Fill-78" d="M8.859 243l-1.33-3.715-3.654 2.678-2.875-2.1.36-3.365L2.95 236l4.984.835L10 241.587z"/><path id="Fill-79" d="M14.826 249.422l-1.903-2.125L9 245.751 11.391 242l2.949.175L16 243.76l-.658 6.24z"/><path id="Fill-80" d="M8.095 322L8 318.967l1.629-2.302.34-5.278L11.57 310l2.43 2.274-.014 2.317-1.384.043-1.493 5.506z"/><path id="Fill-81" d="M31.041 346l-1.544-2.123-.132-2.542.647-.657 1.768.727-.752-1.746L26 338.025 27.927 336 35 343.737l-.805 1.09z"/><path id="Fill-82" d="M3.678 249L1 247.153l1.034-2.272 1.63-.645L6.927 240 8 243.444z"/><path id="Fill-83" d="M19.295 299l-4.878-1.48-.417-3.178 1.338-1.863 1.424-.479 1.554 1.247L20 296.808z"/><path id="Fill-84" d="M30.596 332l-4.088-2.058L24 324l2.508.899 5.492 4.58z"/><path id="Fill-85" d="M91.042 431l-2.959-1.893-2.757 1.876-1.364-.425-.962-2.35L84.076 426l6.708 2.081 1.522-.914L94 429.864z"/><path id="Fill-86" d="M39.225 340.513l-3.144-4.225L31 333.051 32.118 330l6.139 5.3L40 339.87l-.104 1.13z"/><path id="Fill-87" d="M33.122 327L29 323.63l.122-.958 1.73-.195 1-1.901V318L35 325.548z"/><path id="Fill-88" d="M164.295 459l-.152-1.165-4.06-.57-.083-.827.264-1.579 3.394-2.859 2.342 6.03z"/><path id="Fill-89" d="M16.54 338l-.54-.759L18.887 329l3.113.013-3.412 7.234z"/><path id="Fill-90" d="M66.302 401L68 403.216l-1.851 3.605-3.3.179-.849-1.871 2.868-4.115z"/><path id="Fill-91" d="M36.143 346l-1.562-2.877L31 339.466l.781-1.466 5.688 4.302.531 3.013z"/><path id="Fill-92" d="M44.32 378.14l.68.611-1.403 1.908L45 382.956 43.14 384 37 379.267l3.528 1.475 1.68-.64-.819-.835.278-1.267z"/><path id="Fill-93" d="M10.147 241L8 235l2.618.728 2.132 2.015.25 2.5z"/><path id="Fill-94" d="M25.263 309l-2.46-1.338-.803-2.089L24.033 303 26 306.515z"/><path id="Fill-95" d="M28.189 308.082L27 299l.92.794L30 307.48 28.57 309z"/><path id="Fill-96" d="M106.743 407l-3.786-1.286-.957-1.39.271-1.324 5.428 2 .301 1.026z"/><path id="Fill-97" d="M47.834 403L44 401.202 45.545 400l4.041.77.414 1.681z"/><path id="Fill-98" d="M173.391 440l.609 2.487-1.17.513-3.83-.303.416-2.206z"/><path id="Fill-99" d="M50 335l1.25-3.564L55 330l-2.25 4.739z"/><path id="Fill-100" d="M32.581 314L32 309.21l2.184-.21.816 3.364z"/><path id="Fill-101" d="M11.47 236L9 234.047 12.75 230l.25 2.01z"/><path id="Fill-102" d="M18.6 286l-.6-.35.644-2.78 1.403-.87 2.953.52z"/><path id="Fill-103" d="M25 259l.06-6 2.94 3.921z"/><path id="Fill-104" d="M12 330l.79-5.228 1.698-.772.512.929-.864 3.543z"/><path id="Fill-105" d="M30.531 316l-2.275-1.462L28 311.51l1.564-.509L31 314.133z"/><path id="Fill-106" d="M178.205 439.208L178 441.49l1.095.51 1.37-.578L182 438.63l-2.096-.631z"/><path id="Fill-107" d="M102.804 426.244l1.196 1.71L98.37 429 97 427.622l3.223-1.622z"/><path id="Fill-108" d="M13.123 295.682L12 293.067l.788-1.966 2.128-.101.084 5z"/><path id="Fill-109" d="M63.603 413L62 410.225 64.318 409l2.682.888-.102 1.024z"/><path id="Fill-110" d="M19 335.303L23.038 331l.789.416.173 2.01L19.063 336z"/><path id="Fill-111" d="M104.699 404l-2.48-1.95-.219-1.238 3.493-.812.507 1.637z"/><path id="Fill-112" d="M35.7 385l-.7-1.888.457-3.112L39 382.402z"/><path id="Fill-113" d="M44.308 363.977l-.784.023-.757-.826.692-.488-1.384-.616-4.075.244L41.278 361l2.73.698.992 1z"/><path id="Fill-114" d="M37.455 328l-1.067-.571L35 323l2.48 2.047.52 1.337z"/><path id="Fill-115" d="M154.089 461.113l-.089 1.6 3.987-.595.9 1.882.385-.92 1.477.028L161 461z"/><path id="Fill-116" d="M170.915 432.068l3.06 1.044L175 436l-5-2.996.055-1.004z"/><path id="Fill-117" d="M18.447 343L17 340.626l4-.626-1.348 2.525z"/><path id="Fill-118" d="M37.427 313l-1.56-.473-.867-1.792L36.627 309 38 310.72z"/><path id="Fill-119" d="M13.712 233l-.712-.674.97-2.326 3.03.453z"/><path id="Fill-120" d="M19.275 339L19 337l3-2-1.207 3.392z"/><path id="Fill-121" d="M156 454l.567-4.236 1.101-.764 1.332 3.38z"/><path id="Fill-122" d="M108.768 433l-.768-.515.49-.941L112 430l-.411 1.972z"/><path id="Fill-123" d="M32 373.78L30.34 376l-2.34-.22 2.928-2.78z"/><path id="Fill-124" d="M166.226 464l.774-.158-.774-2.525L163 461z"/><path id="Fill-125" d="M36.102 330L34 329.537l.786-2.537L37 329.097z"/></g></g></g></g></svg>