<?xml version="1.0" encoding="UTF-8"?>
<svg width="277px" height="705px" viewBox="0 0 277 705" version="1.1" xmlns="http://www.w3.org/2000/svg" xmlns:xlink="http://www.w3.org/1999/xlink">
    <!-- Generator: Sketch 53.1 (72631) - https://sketchapp.com -->
    <title>chilie map</title>
    <desc>Created with Sketch.</desc>
    <g id="Desktop" stroke="none" stroke-width="1" fill="none" fill-rule="evenodd">
        <g id="Desktop/tour-page" transform="translate(-582.000000, -2522.000000)" fill="#161616">
            <g id="gallery" transform="translate(170.000000, 2522.000000)">
                <g id="chilie-map" transform="translate(412.000000, 0.000000)">
                    <polygon id="Fill-1" points="32 133.120921 26.9875539 135.043825 25 131.283429 28.0248921 130.043825"></polygon>
                    <polygon id="Fill-2" points="68 89.7766587 67.3925984 91.0438247 66.3023622 88.8841805 61.7341732 86.7649545 61 84.0438247 64.4790551 84.3354914"></polygon>
                    <polygon id="Fill-3" points="54.572962 61.0079054 51.2940946 61.9366223 54.9510377 64.0273463 60.1003851 60.6279758 63.925362 60.332475 66.005884 61.7466575 65.3337494 67.0267908 67.6243135 70.6383442 66.1120106 73.1734303 69.2438485 75.8340487 70 78.1580628 69.2847514 80.5220695 61.0886884 82.5927971 60.394444 86.7953522 62.6020969 88.7594329 59.3652379 90.1114048 57.7047999 88.6116825 58.2719136 87.0064242 56.5064546 88.9071833 56.8635261 92.6242728 66.0899009 100.545028 66.2800442 103.648898 62.8121389 103.903295 61.550781 106.057341 66.3419514 113.449305 57.7047999 113.913664 58.1458883 117.356359 60.2684188 120.250268 59.6592968 123.904036 55.1201769 125.043825 52.4924399 123.227494 42.6978461 121.558914 39 118.813867 45.8086798 104.114367 46.6499536 91.505591 44.8214821 88.4217177 45.9557093 77.6081646 48.8354968 73.8910752 50.7689894 64.640566 49.2975893 60.6279758 50.2858926 59.0438247 53.7748021 59.3604327"></polygon>
                    <polygon id="Fill-4" points="58.2335526 0.0438247012 57.316886 5.92598289 58.3804825 9.50681 51 27.40544 51.6469298 31.8220136 55.0230263 42.2055314 54.6480263 47.6065021 59.1929825 52.1486029 63.6118421 52.2333888 65.7182018 49.1976138 63.7796053 52.8191822 60.1732456 53.4258967 58.3585526 58.4921285 65.3223684 60.5225852 68.6359649 59.2882349 74.6600877 59.853107 78.7050439 56.1687751 77.2872807 51.7511003 79.1217105 48.8419536 82.3530702 47.7529505 86.2302632 49.0720867 90.0657895 55.4981958 92.9429825 56.6918049 98.1129386 54.5985846 99.8223684 46.2664448 100.906798 45.8689421 99.6973684 54.4521362 95.9649123 56.9847015 90.6699561 57.4460689 84.3541667 65.5678957 87.8980263 68.5827495 91.629386 69.1476217 94.5899123 66.802246 96.4035088 67.1997486 95.5482456 73.1666927 97.5921053 86.1246181 96.6326754 86.4593572 93.9638158 77.7308158 92.1502193 75.6375955 87.7938596 77.0393154 84.8958333 79.8240361 89.7741228 87.4437543 94.0690789 90.5004505 86.3760965 88.07139 84.6666667 91.0036602 84.5416667 98.8314892 85.4166667 102.370474 88.0438596 104.965803 87.9605263 110.47138 84.8958333 109.005795 82.3947368 113.465312 82.9583333 118.153861 77.995614 121.273321 76.9747807 126.527844 79.2467105 132.20079 79.1633772 138.439709 81.935307 137.2461 84.3125 138.774448 84.7719298 137.371627 84.7719298 139.066244 94.9440789 141.055959 98.5921053 135.947885 100.009868 136.512758 102.427632 142.060177 106.263158 144.320766 107.035088 147.043825 111.183114 146.582457 111.599781 144.928582 115.769737 142.877204 119 143.882523 115.748904 139.631116 115.748904 138.439709 118.855263 136.597543 118.89693 132.996896 111.953947 126.925346 113.142544 121.691745 117.75 120.562001 117.770833 115.620195 114.935307 113.862815 108.494518 112.711048 106.013158 108.691977 107.035088 102.578585 105.929825 91.9241926 108.723684 83.0062594 106.179825 79.6566666 109.536184 73.5851165 111.183114 73.3968258 112.809211 75.2808342 118.166667 72.0358472 116.354167 62.6994902 112.600877 54.3882716 114.51864 50.306437 113.059211 42.6657976 114.873904 26.8603879 111.558114 17.9006123 114.247807 14.6358053 114.89364 10.2379506 104.846491 10.0926034 99.0504386 17.6704792 93.2554825 15.3471258 83.9780702 7.76924998 81.0811404 2.53564873 76.433114 0.798088714 71.7839912 4.29412994 68.8859649 3.70723546 67.1348684 0.798088714"></polygon>
                    <polygon id="Fill-5" points="95.272059 141.15781 85.0491487 139.166894 85.237564 140.299048 80.1261089 141.639554 76.5649485 150.46308 72.3129318 154.235458 72.2291916 156.855838 75.9589342 160.418761 82.8079976 162.701809 82.8079976 163.876957 88.3172185 168.425416 92.3191166 165.197619 92.1295994 169.116614 87.5833903 180.831708 76.3765331 188.837262 69.4437295 189.822798 68.5842911 192.485069 71.5174003 197.388498 70.4486114 199.086178 67.3061518 199.630758 66.866516 201.811285 67.5375391 203.25762 69.6729131 203.592746 73.8632266 201.874121 79.2468372 207.176615 82.2218165 208.579957 85.4898864 208.162151 84.3792274 211.116555 80.3145242 210.027394 74.3436306 203.8022 65.4208964 210.32063 63.4728359 224.026639 68.7506696 218.514691 71.180236 217.970111 75.2658742 219.354712 69.1275003 220.464819 64.582393 225.389193 60.9374925 232.661657 62.2784368 237.104287 60.2675712 247.018076 68.0807483 236.686481 54.6955452 259.467362 51.1343848 257.56133 56.6645407 250.120201 58.0264201 243.875164 54.1512341 239.473322 52.1194335 239.662933 50.4225934 242.679071 55.0095708 248.444568 50.7994241 245.970806 49.5620531 242.008818 41.0370847 244.901488 36.5118106 241.401401 41.6662377 244.21029 48.7037165 241.296674 51.762436 237.314843 51.6368257 235.156364 49.3119345 232.871111 48.6827815 237.775642 46.1485399 239.431431 47.9709901 236.979717 49.2281943 231.23737 47.6569645 226.521347 46.3160202 224.949339 41.5604607 226.521347 39.9903327 224.677049 30.8571463 226.14433 26.4784175 238.363216 22.4566863 242.763955 18.5396302 242.763955 15.2296903 246.41066 14.6435092 251.083689 13.2397597 249.324275 11.2498291 250.392491 9.19599154 252.634751 9.40644378 254.143923 4.31592366 258.147802 2.03180067 258.062918 0.167480316 260.850861 0 267.746308 4.25311854 274.179853 6.61987984 274.78727 10.9567385 271.433801 8.65168051 264.330002 7.03968248 263.785422 2.30505803 267.243618 3.33087496 263.806367 8.2748498 261.500168 15.5227808 260.494789 18.7071105 258.209535 22.7707119 252.531127 22.9172571 255.422695 18.8106839 260.577468 20.8854565 265.90201 35.9256295 272.46233 37.916662 270.576142 32.4063392 269.821005 32.5110144 267.36929 40.8277343 266.530372 43.0270153 267.453072 43.5922614 271.098674 46.840498 276.107933 49.8353105 275.626188 52.7882529 278.204678 47.0278115 286.063613 47.8244449 291.889742 45.8135792 286.042667 41.4348504 286.294012 35.2127364 295.70401 41.8546531 303.144037 45.9391895 302.53662 49.0816491 300.357196 49.5422199 303.899174 43.2793376 304.4647 42.0430684 306.58239 43.3410409 309.117886 45.6868671 309.55774 42.7967299 309.180722 38.2086507 301.299739 34.8160724 300.713268 32.909882 301.698804 28.8253456 307.903053 32.4691443 310.563119 39.3402447 309.453013 49.1235191 311.234474 49.8771806 313.099717 52.8521599 313.895643 57.7123945 311.213529 58.9894319 304.590372 57.6694226 302.76702 59.031302 299.958131 61.0642045 304.443754 58.6952396 307.545879 59.4092346 310.941238 66.5723236 319.177191 70.5532866 319.073566 73.9050966 320.83298 66.1128546 320.038157 63.6612513 316.66264 61.1677779 316.66264 61.4410353 320.038157 66.1745579 326.157522 69.504331 328.169383 71.873296 326.261146 72.1024796 323.872268 72.5002453 324.857804 72.1652847 327.560864 70.2381592 329.488943 65.9861425 328.525455 64.1636922 331.647422 62.9692931 326.827775 57.6495894 322.02797 51.9717864 322.824998 48.6001432 320.518799 41.0998898 320.93881 45.3739434 330.767715 44.4726349 331.040005 42.6292495 329.132871 40.4718386 321.713789 35.1929032 318.800174 32.0504436 320.729355 31.6119096 324.123613 36.3035621 326.534539 43.0071821 333.303211 47.3418371 334.959 43.9701939 336.38439 50.2760482 339.150285 49.5223867 345.166025 44.9122707 341.981222 39.069191 348.057593 41.5604607 353.25536 45.8345143 352.333762 48.9979089 353.989551 75.7275469 377.043825 78.4094356 368.639207 81.235666 364.594539 88.0020911 362.309286 93.7845694 356.504102 92.7587524 341.833502 101.807097 336.216827 100.90689 324.186449 95.1464488 318.967737 94.5382308 316.955876 100.65567 302.829856 101.283721 298.848025 99.7543611 297.654137 100.027618 296.416153 102.813081 294.718473 105.703218 294.718473 109.9343 288.851556 114.396768 286.273067 114.565351 282.814871 111.171671 278.225623 112.281228 268.730741 116.031905 267.410079 120.220015 262.989497 118.021836 244.147454 113.391887 239.934121 117.434553 238.550622 122.252917 232.55693 120.911973 228.575099 117.811384 227.107818 116.658855 221.993833 117.896226 214.742314 126.337454 211.306166 131.365169 204.011654 130.442925 200.889687 122.901904 190.116034 108.468847 187.015012 108.030313 182.215207 109.055028 180.831708 115.193402 182.445607 117.267073 180.894545 120.765428 182.047644 125.582691 180.411698 129.206656 182.61317 131.95135 182.696952 133.501645 180.538473 134.569332 174.061934 137 171.694001 134.402953 167.314207 128.285514 166.077326 117.036787 166.391507 114.816571 164.903281 116.491374 163.079929 115.864425 156.184482 120.974778 146.921103 119.445418 143.987644 116.199386 142.981162 112.009072 145.034914 111.590371 146.690703 107.422095 147.152604 106.646396 144.426395 102.792146 142.164292 100.362579 136.609351 98.9367927 136.043825"></polygon>
                    <polygon id="Fill-6" points="84.5339989 180.526307 76.7023792 187.805756 72.5051905 189.043825 68.6205235 184.113618 71.736999 182.665894 74.5617146 183.127135 71.8408086 181.575687 69.1810957 182.749756 67 176.687411 68.4129042 174.589756 72.5467143 173.89679 73.9596185 167.121618 80.7323797 165.043825 87.4832861 169.345066 89 172.050721 86.0299508 176.45679 81.3137138 175.092928 85.5098098 177.882445"></polygon>
                    <polygon id="Fill-7" points="15.4267502 352.575395 14.3460334 353.043825 13.0161725 349.763699 11.9157864 343.222497 12.6435492 340.558726 9.65163546 338.727593 6.61819771 340.047712 4.89385882 339.153438 5.53857361 337.597983 9.75544547 336.191575 11.0842136 334.231568 5.41290887 335.446346 4 325.0703 6.26524368 322.279895 10.5651635 321.043825 18.875428 343.819801 19 348.591505"></polygon>
                    <polygon id="Fill-8" points="31.9478061 352.043825 28.3694138 349.468047 21.048205 348.06633 20 344.047641 23.2073558 339.698306 25.4898249 339.554123 27.9994591 343.366838 29.3981475 341.63556 26.3952403 336.15336 28.5749442 327.043825 30.3230343 334.751643 32.9970928 339.533526 32.7299033 346.911784 34.1686161 348.869635 34.7040768 347.242428 36 347.81916 35.4028801 350.848083"></polygon>
                    <polygon id="Fill-9" points="20.6014957 341.043825 15.7061966 331.194726 14 324.043825 20.215812 325.221753 27 329.05396 26.0042735 337.33887"></polygon>
                    <polygon id="Fill-10" points="59.1595803 203.043825 56.2197681 201.114636 51.1816676 201.241762 47.8431806 197.256258 44.420762 198.146139 44 194.139448 45.8696853 192.167884 55.7161789 191.043825 60 196.619515"></polygon>
                    <polygon id="Fill-11" points="41.452494 320.043825 36 316.920872 42.1974927 312.043825 53.2514804 315.611962 55.8068818 314.556176 57 315.42101 56.3827154 318.228671 54.8277407 318.946961 47.6712723 318.313045"></polygon>
                    <polygon id="Fill-12" points="43.2001566 183.043825 39.7789878 180.690666 39 175.242755 43.6762047 174.043825 51.2975301 174.349861 55 177.42169"></polygon>
                    <polygon id="Fill-13" points="18.9525378 237.524961 18.2439946 234.845438 22.3759202 233.80771 21.4436265 232.706626 19.1347346 232.976435 18 228.138439 19.0942464 227.557311 22.5986052 229.23843 29 225.043825 26.670864 234.742758 23.126017 238.043825"></polygon>
                    <polygon id="Fill-14" points="3.34350118 351.805693 8.31153976 348.447926 5.49669171 349.509833 2 348.53452 2.85342604 340.541736 11.3809577 340.043825 12 347.755181 6.64842436 352.043825"></polygon>
                    <polygon id="Fill-15" points="37.2316399 224.043825 36 221.982162 37.5187138 219.961711 36.967717 214.003388 39.2122186 210.043825 42.9534405 212.126093 45 218.044289 44.1642444 219.941106"></polygon>
                    <polygon id="Fill-16" points="24.526218 324.043825 20.1826775 322.446474 20.3975923 321.001251 18.9565323 320.28829 15.8809889 322.489615 13 322.209198 15.6230912 318.92935 19.6453906 317.84969 26.2896502 312.043825 27 322.577032"></polygon>
                    <polygon id="Fill-17" points="60.9167123 224.043825 57.0832877 220.050348 57 213.973369 60.0005479 210.043825 63 211.30306"></polygon>
                    <polygon id="Fill-18" points="42.4253092 193.043825 40 192.425319 40.2657873 190.95258 45.5836768 186.043825 51.3291838 187.495236 53 189.821086"></polygon>
                    <polygon id="Fill-19" points="58.395988 180.043825 56.1050387 177.496692 56 173.687068 59.9726741 172.043825 63 178.780278"></polygon>
                    <polygon id="Fill-20" points="51.1488578 147.043825 46 144.77168 46.358143 142.275415 53.4602063 141.464316 55.1204864 140.043825 58 145.035287 55.3095063 145.258339 54.5534267 143.270079 52.0099484 143.574241 53.0401621 145.724721"></polygon>
                    <polygon id="Fill-21" points="51.1045724 206.043825 47.3016511 204.670817 47 200.851476 49.1930567 200.043825 50.8018628 202.185164 55.9331075 202.225546 57 203.396641 56.7586791 205.740955"></polygon>
                    <polygon id="Fill-22" points="35.2202447 336.043825 33 331.267974 33.9933259 326.043825 40 332.296359"></polygon>
                    <polygon id="Fill-23" points="57.5095757 243.043825 53 237.317697 53.7063936 235.163447 55.9410725 235.043825 60 237.538053"></polygon>
                    <polygon id="Fill-24" points="39.3666016 172.043825 35.916504 171.298208 35 168.593154 42.0517974 166.043825 43.602274 166.515121 45 169.122202 39.0174572 170.553622"></polygon>
                    <polygon id="Fill-25" points="51.4816348 222.043825 49.3967926 221.386367 48 217.417063 50.3010864 214.043825 54 217.439388 53.2126229 221.067126"></polygon>
                    <polygon id="Fill-26" points="3.09413658 357.043825 2 356.33714 2.04203963 353.070049 6.06014281 353.957119 11.0020115 350.043825 12.4114452 350.991377 13 353.271656 11.9069697 354.522679"></polygon>
                    <polygon id="Fill-27" points="47 216.043825 49.483237 209.043825 54.7803468 211.27416 57 210.721223 55.616185 215.492049 49.9456647 213.260552"></polygon>
                    <polygon id="Fill-28" points="45.8493994 285.043825 44 282.355114 45.3595078 278.221513 50.1951362 278.043825 52 279.443123 48.7020217 283.866637"></polygon>
                    <polygon id="Fill-29" points="55.7840657 190.043825 53.21083 186.839527 53 183.65785 54.539059 182.043825 56.1003107 182.732641 58 187.700265 57.7669774 190.000844"></polygon>
                    <polygon id="Fill-30" points="42.379501 342.043825 36 337.121731 40.2670263 334.043825 41.7030344 334.630854 41.2520566 337.101489 44 340.565066"></polygon>
                    <polygon id="Fill-31" points="30 222.929711 30.8682709 217.858139 34 216.043825 33.2448524 223.322928 32.0560655 224.043825"></polygon>
                    <polygon id="Fill-32" points="54.0625565 233.043825 53 230.454071 54.2229424 228.113733 59.238167 225.043825 60 228.970758 57.0518541 228.615862 55.6073259 232.45929"></polygon>
                    <polygon id="Fill-33" points="15.4386343 314.190059 15.2340818 312.606374 12 311.293394 16.707936 308.043825 19 312.044138 17.7716087 314.169236 14.9067979 315.043825"></polygon>
                    <polygon id="Fill-34" points="50.3056995 230.043825 48 224.243172 49.9906736 222.043825 51.9212435 222.798114 52 224.286275 51.7834197 228.189295"></polygon>
                    <polygon id="Fill-35" points="39.9103936 186.043825 37.5519681 184.743787 36 180.585032 38.6479231 180.043825 42 185.069651"></polygon>
                    <polygon id="Fill-36" points="39.6468401 208.043825 36.0423792 205.440188 36 203.043825 39.9858736 203.249885 42 207.790491"></polygon>
                    <polygon id="Fill-37" points="49.3167513 173.043825 47 171.87374 47 168.043825 51.7096447 169.718131 52 172.492558"></polygon>
                    <polygon id="Fill-38" points="76.0547746 151.043825 72 148.401455 73.060349 146.189965 75.8705768 145.043825 77 146.39571"></polygon>
                    <polygon id="Fill-39" points="50.3805366 164.043825 47.931644 161.992543 47 158.183019 48.7610733 156.043825 52 159.965876 50.3400767 160.634008"></polygon>
                    <polygon id="Fill-40" points="60.7782383 155.043825 58 149.376889 58.7492228 147.043825 61.388601 149.908501 62 152.732283"></polygon>
                    <polygon id="Fill-41" points="37.8395085 345.043825 36 339.043825 42 342.838062"></polygon>
                    <polygon id="Fill-42" points="41.2557966 203.961972 39 201.565634 39.7579157 198.043825 43 200.4197 42.1852406 204.043825"></polygon>
                    <polygon id="Fill-43" points="36.8609998 179.043825 32.2708587 179.00489 31 177.8553 32.7275736 176.043825 34.4175231 176.102226 37 176.823538"></polygon>
                    <polygon id="Fill-44" points="36.5041532 284.043825 36 280.977945 41 280.043825 40.627365 282.025142"></polygon>
                    <polygon id="Fill-45" points="19.0337013 188.043825 17 184.129509 18.8128995 182.043825 21 184.884995 21 186.732435"></polygon>
                    <polygon id="Fill-46" points="51.8670912 167.842174 48.9767872 166.070947 48 163.043825 52.8623665 164.389344 53 168.043825"></polygon>
                    <polygon id="Fill-47" points="41.3274891 174.043825 40 171.901057 42.334084 170.32936 45.3730095 170.043825 47 172.591101"></polygon>
                    <polygon id="Fill-48" points="48.9219232 343.043825 45.7382371 341.047902 44 338.101929 45.9724676 338.043825 49 340.155955"></polygon>
                    <polygon id="Fill-49" points="60 235.043825 56 232.998237 57.8182784 229.043825 59.4144527 230.287542"></polygon>
                    <polygon id="Fill-50" points="59.7144509 184.043825 58.0219653 182.998994 58 180.851288 61.9560694 180.043825 62 183.689329"></polygon>
                    <polygon id="Fill-51" points="54.9459895 158.043825 51.9199919 157.301959 51 155.817144 53.623942 154.043825 56 156.559009"></polygon>
                    <polygon id="Fill-52" points="49.511189 185.043825 45 183.431399 51.9333667 182.043825 52 183.994515"></polygon>
                    <polygon id="Fill-53" points="21.1947155 311.043825 19.4082361 309.74297 19 307.043825 22.3718162 307.53618 24 309.388474 23.8428945 310.452998"></polygon>
                    <polygon id="Fill-54" points="27.199549 178.043825 26 175.460219 26.535513 172.043825 29 174.102185 28.5287486 177.343498"></polygon>
                    <polygon id="Fill-55" points="53.0108221 209.043825 50 208.304656 50 207.531004 55.9783558 207.043825 56 208.153462"></polygon>
                    <polygon id="Fill-56" points="55.2936756 164.043825 52.4957211 163.41643 52 161.369141 56.8413692 161.043825 57 163.438444"></polygon>
                    <polygon id="Fill-57" points="80 138.605469 82.6927172 137.043825 85 139.043825"></polygon>
                    <polygon id="Fill-58" points="75.0363771 510.49088 73.3542729 510.13479 72.3235555 507.514274 70.9787569 492.738178 69.1705778 490.054822 72.2406115 512.00013 71.0838193 514.179668 63.6619907 507.91336 61.1393873 497.957162 62.6312733 497.034414 67.6355609 507.095344 68.6032409 506.7602 63.0094979 494.184588 66.4588621 491.207982 62.1269738 492.444927 59.6032645 495.777624 56.8915489 488.798033 53.464303 487.771655 53.4853155 476.054849 56.2191496 476.913655 59.2880774 480.434871 62.442161 488.043959 57.2277485 468.614435 58.4265657 467.796419 59.8565202 470.919652 59.2460524 465.700668 57.8382163 465.407417 53.5903779 469.640813 48.1028032 468.047777 46.7568987 466.979506 46.0424744 461.634844 43.5397776 459.769504 43.203578 454.718092 45.2218818 452.538554 53.3382282 452.035839 55.0413448 454.19443 58.0273286 442.20532 61.558531 441.408251 64.5655272 444.657162 65.4701697 442.582357 60.9701816 440.088622 58.8888403 436.755925 62.4631735 434.094618 63.4098409 430.15337 57.3748359 436.651192 55.9028565 446.984427 52.1814359 450.359017 49.3016204 450.022771 47.0311668 447.361464 41.9638417 433.716479 44.2132829 432.941458 49.9740198 436.190369 53.8635401 436.818764 47.0101544 431.788299 41.8797918 431.327476 30 420.973295 30.5463244 418.394672 33.0700337 416.131348 40.1556627 415.502953 44.4864451 421.496957 51.6771364 424.766815 54.5580578 424.808708 45.3070377 420.784777 39.5042758 411.039146 40.5128748 408.062539 42.5732036 408.334844 46.8829736 411.981738 53.8845526 414.874559 53.5903779 412.191203 40.8910994 405.295398 40.1766751 402.215161 44.8226447 399.887896 48.4179904 399.699377 48.7121651 398.273913 41.669667 399.364233 40.9961618 394.019571 43.3307588 391.651515 47.9767284 390.100372 52.1604234 391.105804 54.1588207 396.073429 58.0903661 398.924357 58.8678278 401.648503 59.2040274 400.181147 57.8581229 396.345734 55.0203324 395.59166 54.3689455 389.828068 47.2833166 387.585691 48.5440653 377.52476 53.0650659 381.38112 55.1464072 381.360173 52.3075108 379.934709 50.6254066 377.16867 49.72187 369.832988 52.2864983 366.751649 55.7137442 368.071278 55.6296942 367.065847 53.7794902 366.081362 49.279502 366.584077 49.3226329 372.557135 46.0844994 380.103384 44.1082205 389.849014 39.377095 385.04896 38.7257082 363.942615 37.1066414 357.278323 39.2510202 353.296285 41.3743864 354.448342 44.1922704 353.043825 48.6071027 354.029412 75.4356142 377.084884 77.8531551 377.755172 76.3822816 379.431994 66.5628186 379.767137 63.0515229 390.246998 65.0488142 393.201555 67.110249 401.732289 64.6495771 404.583217 63.8931279 408.649041 66.4157313 411.47792 64.4394524 416.97031 70.5374948 422.985261 72.1775741 426.653101 73.6274351 439.24966 76.3822816 447.319571 79.9356023 446.35493 83.2787983 442.498571 87.4624933 440.298087 91.2469513 442.708036 95.6827961 439.480071 99.2991543 440.003733 101.591726 441.806234 100.245822 445.495021 103.125637 451.280663 102.432225 458.637291 100.392909 459.748557 98.5637175 463.247724 99.1321604 465.658775 102.915512 469.410402 101.066414 472.910671 99.993672 481.167998 98.4166302 482.551569 101.738814 491.291768 106.343864 493.387519 111.600302 498.899754 113.071175 505.711773 170.260506 505.73272 186.323993 512.858936 193.13646 512.83799 205.246283 519.461491 217 521.850493 216.8319 524.239496 214.813596 521.661975 201.841156 519.94326 195.575013 515.940275 192.08473 515.982168 186.050831 518.937828 185.420457 524.512902 179.890857 531.597226 175.832131 530.234602 172.742191 530.925836 155.311787 540.210644 145.892667 541.594215 144.945999 548.783271 145.871654 554.442131 141.854953 564.063185 140.468129 573.997334 142.171246 584.707605 140.972429 592.714677 138.870075 595.857753 131.763434 599.043825 126.738134 596.48725 119.379342 595.229358 114.754385 591.812876 106.932214 589.045734 101.759826 583.681227 96.8606009 574.857242 97.7442309 570.622744 101.906913 566.933956 107.037276 567.563454 107.562588 574.039227 103.589018 576.429332 107.247401 576.134978 110.02326 574.185852 109.960222 566.787331 114.375055 565.843636 116.792596 576.134978 114.921379 578.755495 110.254397 581.479641 110.233385 582.926051 116.477408 580.285691 117.739263 577.769907 118.22255 565.445653 130.501579 559.723954 136.493453 549.285987 135.357673 545.429627 129.871205 544.464986 122.259158 548.615699 113.4494 554.714435 109.833042 560.919006 107.268413 561.337936 103.799142 557.083593 101.339577 556.223685 94.9473594 557.858614 94.1068603 558.843099 99.5313975 558.549848 104.766822 563.810724 100.224809 566.011208 95.9360518 564.083029 94.4850849 564.838205 95.24264 566.13799 97.8913182 567.122475 94.9473594 572.886067 92.4457685 572.781335 91.0368265 570.915995 93.7905672 575.736995 95.4726714 574.814247 98.5216926 579.467675 98.4376427 581.626266 95.24264 582.108036 78.4426104 568.945922 76.1721568 568.317527 71.5460938 562.720404 82.164031 562.889079 87.840718 569.511477 89.1445976 569.343905 89.6278846 566.745438 86.7060441 563.873564 87.7356556 561.819705 90.7846768 562.133903 87.315406 560.729385 84.93989 562.112956 82.3531433 559.870579 84.1192974 556.202738 81.9749187 551.633096 81.7227689 547.75579 88.8714353 542.264502 92.950068 544.758237 97.7862558 545.555306 105.292134 537.402711 110.19136 536.689428 113.555568 539.099377 116.645508 539.540356 120.851322 539.183163 126.107759 536.731321 124.046324 533.084427 106.490952 530.821104 101.087427 531.26098 97.8282808 537.800695 94.0648353 534.614623 95.4947898 532.518872 98.6057425 531.26098 97.9753681 530.42312 94.1278727 532.015054 86.8111065 532.287358 83.5519605 536.333338 86.2227571 535.516425 90.0702525 536.982679 90.1543024 538.114892 86.5379443 542.788165 81.9959312 545.11543 80.3569578 547.546325 82.1009936 553.897522 81.1134071 557.9424 74.4480277 559.996258 70.9997694 558.549848 67.0892365 554.840114 73.5024661 549.306933 69.844083 548.783271 63.8931279 544.988649 65.4071323 543.773752 68.9184281 544.822179 73.6075285 544.255521 72.8709859 540.859985 77.5180614 530.52675 78.779916 529.81457 83.8251227 531.009622 80.1667396 529.249014 76.0881069 529.646998 75.478745 534.028122 72.6188361 538.470983 70.7686321 538.030004 69.6538648 534.425002 63.851103 539.371682 62.2740612 542.201663 59.8144952 541.027557 60.1296824 535.012607 64.1032527 532.224518 62.6744042 531.763696 60.6350878 526.37714 61.1393873 523.988138 62.8845289 524.365175 63.6619907 521.787654 63.1156662 517.238958 58.9529836 510.552617 58.7008339 507.660899 60.3187947 507.828471 64.3554024 515.164153 66.6899994 514.178565 70.9577444 516.673403 73.3974037 515.729708 75.6678574 511.244954 81.0083447 509.252832 80.9873322 514.912795 84.5826779 518.622529 87.0212313 508.835005 84.3084097 515.666869 82.3122243 514.220458 82.2912118 510.070848 84.7507777 503.846433 86.5368384 502.923685 89.7550653 505.292843 89.6278846 508.037936 94.5271098 515.520243 93.2862677 521.410617 82.7313679 527.739764 83.6149979 528.074908 93.1391803 523.967191 95.8309894 521.179103 96.5244012 515.687815 91.099864 508.289294 90.574552 504.139684 91.541126 503.237882 94.9893844 503.783593 96.8395884 501.960146 95.3477024 492.737076 89.1866225 485.821426 83.089686 483.977033 77.1177184 479.093193 73.3542729 480.035785 72.9340233 481.838286 76.0250695 481.251784 81.2593885 483.452268 89.3126974 491.103249 94.0648353 493.26184 91.7722633 497.704701 88.9764977 497.956059 86.1387072 494.938662 72.0924182 487.203895 73.7955349 491.81543 77.8122361 492.108681 80.6500266 495.336645 78.7998226 498.437828 74.8682772 499.821399 78.4636229 499.297737 81.4075818 497.1182 82.7534863 499.109219 76.3822816 502.944631"></polygon>
                    <polygon id="Fill-59" points="211.454841 645.642825 211.245165 650.816994 203.881111 646.396634 208.097813 651.44627 206.482201 652.766538 198.593956 654.043825 181.095911 647.360936 181.871714 640.886336 179.270623 642.52069 178.493717 646.710721 162.401608 649.036066 161.122583 645.831277 163.5769 640.571147 159.863421 646.982929 151.996143 646.626964 147.967046 648.386953 145.785308 646.96199 147.212211 645.139184 154.660136 641.200423 156.883809 637.282601 154.09401 637.450114 152.100981 639.649825 153.107428 641.03291 146.876729 643.442012 143.980988 643.316377 143.310024 641.702962 147.715435 640.298938 144.778862 640.425675 139.806221 645.139184 141.778283 637.031332 140.477186 636.737082 139.155121 639.251982 135.504545 641.305119 132.756681 640.089547 131.874937 638.791321 132.987325 634.873499 130.868491 632.023573 128.875462 633.678867 126.420041 640.676945 120.524825 636.319401 116.371026 638.770382 112.489806 638.728503 111 634.265162 111.79677 628.461717 116.287155 633.260084 120.734501 634.80958 123.525404 633.363678 120.063537 629.34116 116.182317 628.796743 115.574255 626.680789 117.272634 625.695547 119.014051 625.737426 121.93076 630.640489 124.028627 631.521034 126.316306 630.137949 123.210889 628.775804 122.895271 626.115432 127.490494 627.917299 129.609329 626.932058 128.204497 626.094493 129.903979 624.459037 141.841186 629.487734 142.764865 622.972358 146.499312 621.735848 152.394528 623.077054 149.456852 628.62923 148.219761 635.752943 149.247176 634.537371 151.513887 636.527691 149.625697 632.358599 153.128395 625.423339 162.170964 634.265162 166.724252 633.154286 157.409104 627.12051 154.45046 620.352763 145.470794 618.67653 143.330991 612.642754 144.463244 612.286789 160.450515 621.777726 166.577479 627.246145 168.738249 624.376382 165.716702 623.307384 164.815094 621.4427 169.094699 618.153052 171.549016 620.604032 177.487271 633.84638 178.451782 629.865741 174.193145 621.421761 174.94798 619.892102 192.970215 627.938239 193.705186 629.970436 188.103516 637.471054 189.361574 640.571147 192.236348 633.175225 194.145506 632.442356 195.29983 635.145708 196.138535 633.762623 195.970794 628.62923 200.733758 629.34116 200.775693 627.476476 197.963823 625.444278 169.367278 610.589617 165.423155 597.326331 166.38877 592.570944 173.185595 588.19136 177.67598 587.68882 190.033642 580.711682 189.823966 572.687586 183.550228 571.660467 173.962501 573.022612 164.248967 579.077327 157.409104 573.818299 156.380586 569.460756 157.472007 556.197469 160.156968 552.886883 160.619359 557.601493 165.066705 556.406861 167.751666 551.0233 167.395216 549.703033 164.290903 549.157513 162.024191 545.009361 158.247809 544.716213 158.773104 543.270311 166.38877 541.80347 170.500634 546.978741 173.186698 546.999681 179.543203 542.53634 182.522814 537.005103 182.397008 532.438168 188.124484 529.043825 196.054664 540.043481 201.530528 538.199735 206.209622 534.742575 212 537.927527"></polygon>
                    <polygon id="Fill-60" points="27.7220011 414.043825 24.5450062 411.939803 25.3761141 410.319452 28.9047736 407.857935 30.5658975 409.014538 28.3860137 406.910517 24.0884974 409.520345 23.0913863 396.936061 24.1299982 390.077239 30.8989959 381.975484 22.2821208 390.350618 21.5973578 387.530499 20.5587458 388.877471 20.5587458 394.264253 21.8048617 396.515478 20.2474899 406.805371 16.4894839 404.470029 11.9833715 394.495574 12.1286243 388.541005 9.86573895 385.36339 7.91410956 386.394925 7 379.93455 9.40923023 378.377287 12.3579708 384.690458 15.8036287 388.498947 11.277858 379.850434 11.38161 377.662296 12.7729787 377.3048 15.9292232 381.09226 18.7523692 376.735907 18.0676061 374.842177 23.1536375 380.86094 25.8326229 369.875978 21.6181082 365.016032 18.9183724 358.282278 19.2711291 356.283402 21.4106042 354.642022 28.3445129 351.043825 34.2627444 352.474913 34.7815043 354.326585 37.1481416 379.534997 34.8230051 390.224443 35.5077682 392.286407 32.6638718 398.451267 34.6155011 396.431362 34.5740004 394.558661 36.4218778 394.159107 38 399.398685 36.0898714 409.077626 31.687511 413.685222"></polygon>
                    <polygon id="Fill-61" points="212.987244 672.874982 209.713915 669.677507 207.771243 670.513973 211.973145 674.985381 217.675648 673.711448 225.129777 677.2013 224.960945 680.794475 228.023236 680.983531 226.776993 683.74134 228.63525 686.834393 231 687.398266 230.641233 691.59818 228.023236 694.043825 223.313728 688.903024 222.490675 684.389848 219.196241 681.63094 215.838496 682.800453 213.811408 680.983531 208.108906 680.899995 204.497913 683.071947 201.816604 680.460328 200.951343 678.746728 201.943227 677.262854 206.483903 676.615445 206.905982 673.982942 203.061735 675.340412 202.618553 674.337972 205.617532 666.41738 198.986456 670.534857 194.003708 668.215616 192.504219 663.680456 187.161594 665.143447 191.131353 665.205 191.97551 668.318938 188.786596 669.510434 188.32231 671.662602 190.89921 675.613005 190.983626 678.809381 195.713126 679.562309 194.932281 683.219236 190.264981 682.027739 187.161594 682.612496 185.196707 678.057551 188.132374 675.362395 185.175603 674.129131 182.768645 676.218646 181.607929 673.982942 178.883301 672.749677 179.960712 669.385129 184.795733 665.853508 174.237106 670.09629 172.378849 668.318938 174.681399 667.504456 172.844247 665.540246 169 664.830184 173.097494 660.148835 194.17254 656.053342 205.047726 655.719195 207.855658 653.941844 214.676669 653.043825 217.865583 654.297973 220.230334 658.874902 219.871567 660.232372 212.438542 664.182775 206.94819 663.639787 199.387431 657.954899 198.184507 659.207949 206.693832 665.769971 218.583117 666.230522 223.756911 670.555741 223.588079 671.55928"></polygon>
                    <polygon id="Fill-62" points="71.1027619 596.490806 72.574552 595.45903 72.8686889 590.597951 63.0925084 592.639361 65.8890201 590.345542 65.615893 588.303025 62.6302933 588.239923 62 585.567492 62.9244301 584.030899 65.615893 584.514682 67.8650449 583.146362 72.7426302 587.987514 81.6983237 588.345093 81.6563042 587.018841 78.0824307 587.798208 72.0703174 586.219547 67.7389862 578.327351 77.2619437 580.473931 75.2018798 576.011391 78.1034405 575.043825 83.0020356 576.391111 84.0525244 588.91412 86.0705687 582.031557 84.5357493 578.243214 86.7218718 579.042508 90.1077631 585.209913 92.6720615 583.146362 97.0874318 584.45158 98.1169109 587.86131 95.7837199 589.103426 97.0443065 592.471088 99.1463899 589.650311 103.141565 591.523449 106 595.24869 102.889447 598.86876 99.7357694 598.258773 97.8017642 599.92157 97.8437838 603.541641 100.59717 604.88782 100.471112 607.245847 97.4025785 607.561358 94.2489005 610.297999 91.5994572 608.465822 85.6503732 612.043825 79.5962404 609.182087 87.059134 605.961663 88.5309241 597.248032 86.322686 596.070125 82.6448694 598.742556 80.0164359 598.574284 78.6286849 595.648337 76.4425624 605.688221 73.7300897 604.446105"></polygon>
                    <polygon id="Fill-63" points="227.848397 652.043825 246.845484 652.609904 252.988519 654.283913 258 660.56475 256.867343 667.01519 252.674198 672.646248 251.080538 673.043825 246.551015 671.516292 247.055031 667.789419 243.95153 665.695807 241.413806 666.595587 240.240343 670.742063 233.362791 669.379728 234.200978 668.793825 233.258017 666.259684 226.464284 668.89845 225.269866 667.579067 223.613342 656.210124 220.300294 656.503076 219 653.572459"></polygon>
                    <polygon id="Fill-64" points="70.0495812 568.188068 72.3985184 567.916163 77.9790372 571.766863 78 573.043825 66.4208097 571.13939 65.9585247 569.193125 54.3804377 558.016407 49.1783527 560.1311 41.4805908 559.460695 38.5435918 553.810139 33.678015 551.423542 33.4054985 546.338812 29 542.948259 30.2588715 541.043825 32.0208502 541.943202 40.4313474 552.303104 43.7456768 553.056071 47.3534855 551.675632 59.6454112 558.665896 62.9807034 558.143003 64.4492029 560.213662 63.986918 564.170042 65.4134918 567.644258 67.0077682 565.844403 66.1063676 562.077366 66.9029542 561.511539 71.5809691 566.137223"></polygon>
                    <polygon id="Fill-65" points="132.222018 605.684356 132.935567 608.918255 135.351252 609.453296 138.017673 608.253678 140.32732 610.309362 141 619.004058 137.031296 625.043825 130.311119 621.209553 127.454713 615.749883 127.53866 614.015224 129.491532 612.944016 128.337261 611.016742 125.879602 613.093827 124.494477 618.233599 120.945508 617.140989 120 614.44213 121.659057 610.566181 120.90243 604.570344 122.372607 602.236439 126.63623 602.043825"></polygon>
                    <polygon id="Fill-66" points="154.830042 617.043825 149.823458 614.710209 146.267903 611.177713 144.551391 607.89738 144 599.297289 147.227731 597.068742 152.050517 598.519786 152.173049 596.480361 149.721349 594.46195 149.598818 589.751586 152.438533 587.670134 154.012092 583.675339 155.811366 583.043825 155.831788 591.286685 160 605.773901 159.285234 607.245959 156.260648 607.097757 150.682252 601.105564 150.844552 604.007653 154.442026 611.850148"></polygon>
                    <polygon id="Fill-67" points="120.555046 602.790945 119.049563 604.373693 121 610.724935 118.689362 614.061418 116.018524 613.16374 112.838052 606.084681 112.031782 606.85412 113.177065 611.858844 118.371538 617.675754 115.699585 623.043825 112.37191 622.659105 112.222477 618.78829 104.039341 609.870004 103 601.893267 104.90806 601.679534 108.810049 603.946228 110.866427 598.72777 112.264853 598.043825 120.978812 601.594041"></polygon>
                    <polygon id="Fill-68" points="19.2734928 425.582436 13.8519142 432.043825 11.3123386 431.75593 11.1832267 430.644398 14.3638711 425.932022 7 428.422417 9.5833614 418.689206 13.1041877 419.451152 10.521949 420.747759 11.2270125 422.29005 16.5408106 423.278199 16.0928483 419.615663 9.30492871 415.582977 8.77164028 413.936784 11.248344 412.043825 16.9472325 413.421605 20.9384754 418.113417 18.7828674 420.520474 25.079039 419.430588 25.2923543 417.743267 27 417.70214 26.7013585 421.65257"></polygon>
                    <polygon id="Fill-69" points="29.382865 464.043825 24.4038796 461.721561 22 456.454199 23.3194479 453.384753 30.2770455 455.105999 32.5533449 453.882147 32.6383984 449.298703 30.4896792 446.914265 31.3189505 446.043825 38.8293957 450.875966 40 459.896691 39.0845561 462.944322 36.7869933 458.693564 32.9998757 460.829305 32.1706043 463.173385"></polygon>
                    <polygon id="Fill-70" points="159.445189 651.043825 160.566334 651.456476 154.853524 653.87157 154.625143 656.04016 148.870809 655.813202 148.163811 656.886094 155.310287 658.496519 161.35638 657.918808 162 662.026857 160.337953 662.97704 157.658571 660.644476 156.557095 662.64692 158.592857 663.824061 158.489048 665.041381 154.126856 667.043825 153.108429 665.866683 153.545522 662.480773 151.862713 660.498962 149.119952 662.790262 140 658.537784 140.602096 653.769493 143.863905 653.066901 152.589381 654.821753 151.696617 653.314491 154.687429 651.600904"></polygon>
                    <polygon id="Fill-71" points="45.1334752 452.043825 43.2693068 448.951596 41.7300851 450.183871 35.7043174 446.505735 33.9701277 441.15562 38.4578139 436.830018 31 434.593017 34.2300851 432.043825 40.3641684 435.178924 46 448.219487"></polygon>
                    <polygon id="Fill-72" points="173.363108 659.043825 173.548986 656.946105 172 654.743555 172.660901 651.491593 174.995794 650.526046 179.790586 650.043825 195 654.764521"></polygon>
                    <polygon id="Fill-73" points="53.7545728 542.043825 49 536.057552 51.6579307 531.774599 59.027846 526.043825 61 529.644329 59.2975703 535.843517 56.993448 540.616174"></polygon>
                    <polygon id="Fill-74" points="21.7623762 481.043825 21 479.261237 27.6090656 473.348627 23.5123762 475.674338 22.7922339 473.174828 27.4650371 467.870515 32.7356126 467.043825 35 471.305341 34.4033106 476.065386 32.2212252 477.739349 30.8210087 473.826575 27.7325186 478.870189"></polygon>
                    <polygon id="Fill-75" points="11.7130147 449.043825 7.78942777 447.666825 6 442.919743 8.65125611 440.35165 10.2898639 440.906125 9.51421842 437.39229 7.57397069 435.954763 9.10371598 434.043825 19 435.727785 15.7443301 440.207897 13.3516225 439.489134 13.5239881 447.132887"></polygon>
                    <polygon id="Fill-76" points="16 407.043825 12.9863276 403.793547 13.4821911 406.537634 12.3410259 406.47436 8.38091091 400.797475 4.33475573 403.772456 3 395.77442 4.24871549 394.149281 10.4685187 394.043825 15.3977184 402.949896"></polygon>
                    <polygon id="Fill-77" points="21.7499372 512.043825 19 504.917033 22.1577956 497.203692 22.8887773 499.887265 26.0025107 498.859701 25.0794627 493.073593 22.8673111 489.343714 24.8433342 488.043825 27.2701481 489.426405 28 495.736217 24.3699473 508.543273"></polygon>
                    <polygon id="Fill-78" points="13.3514016 370.043825 11.4316954 364.205569 6.15222898 368.414854 2 365.114632 2.52136103 359.826042 4.81644715 359.043825 12.0156197 360.35568 15 367.822906"></polygon>
                    <polygon id="Fill-79" points="22.323115 378.177058 19.6039583 374.990072 14 372.670913 17.4161557 367.043825 21.6282672 367.30587 24 369.685501 23.0599118 379.043825"></polygon>
                    <polygon id="Fill-80" points="12.1424491 489.043825 12 484.495019 14.4430561 481.041944 14.952874 473.124697 17.3552303 471.043825 21 474.455147 20.9796501 477.930791 18.9028918 477.995113 16.6633345 486.254282"></polygon>
                    <polygon id="Fill-81" points="46.8422027 525.043825 44.4397655 521.859135 44.2346136 518.046322 45.2409378 517.061162 47.9910535 518.15101 46.8216875 515.532732 39 513.080851 41.9973778 510.043825 53 521.649761 51.7474934 523.28398"></polygon>
                    <polygon id="Fill-82" points="6.20800956 378.043825 2 375.375445 3.62512453 372.09454 6.18718868 371.162389 11.3124128 365.043825 13 370.018638"></polygon>
                    <polygon id="Fill-83" points="29.9419778 454.043825 22.6255045 451.719275 22 446.724833 24.0070636 443.796784 26.1435419 443.043825 28.4741423 445.002651 31 450.59946"></polygon>
                    <polygon id="Fill-84" points="45.8946237 504.043825 39.7623656 500.95664 36 492.043825 39.7623656 493.391895 48 500.261452"></polygon>
                    <polygon id="Fill-85" points="138.697294 654.043825 134.39349 651.393418 130.383052 654.020596 128.398709 653.424777 127 650.135578 128.565719 647.043825 138.321522 649.957878 140.535503 648.677971 143 652.453813"></polygon>
                    <polygon id="Fill-86" points="58.8803449 517.335928 54.3394583 511.190595 47 506.481877 48.6143865 502.043825 57.4821911 509.752886 60 516.399006 59.8494296 518.043825"></polygon>
                    <polygon id="Fill-87" points="50.1823028 497.043825 44 492.176505 44.1833689 490.791856 46.7771855 490.51083 48.2771855 487.764287 48.2771855 484.043825 53 494.945803"></polygon>
                    <polygon id="Fill-88" points="249.443095 698.043825 249.214624 696.213878 243.125714 695.318691 243 694.017087 243.395725 691.536873 248.486578 687.043825 252 696.518691"></polygon>
                    <polygon id="Fill-89" points="24.8110433 513.043825 24 511.863244 28.3300511 499.043825 33 499.064161 27.8824629 510.317678"></polygon>
                    <polygon id="Fill-90" points="101.452892 609.043825 104 612.367386 101.223334 617.775638 96.274103 618.043825 95 615.237093 99.3022944 609.064454"></polygon>
                    <polygon id="Fill-91" points="55.3469162 525.043825 53.1157125 520.728234 48 515.242149 49.1161555 513.043825 57.2415015 519.496135 58 524.015994"></polygon>
                    <polygon id="Fill-92" points="67.9798192 575.252514 69 576.170747 66.8960825 579.031987 69 582.477557 66.209022 584.043825 57 576.943996 62.2926673 579.1572 64.8129851 578.19723 63.5835084 576.943996 64.0010045 575.043825"></polygon>
                    <polygon id="Fill-93" points="15.0061881 366.043825 12 357.043825 15.664604 358.135998 18.6502166 361.157788 19 364.907694"></polygon>
                    <polygon id="Fill-94" points="37.8937692 469.043825 34.2042901 467.036605 33 463.903951 36.0490296 460.043825 39 465.315966"></polygon>
                    <polygon id="Fill-95" points="42.5847184 468.666825 41 455.043825 42.2264947 456.234919 45 467.763237 43.0937733 470.043825"></polygon>
                    <polygon id="Fill-96" points="162.114339 619.043825 156.435942 617.115546 155 615.030505 155.406888 613.043825 163.549155 616.043825 164 617.582759"></polygon>
                    <polygon id="Fill-97" points="72.7515115 612.043825 67 609.047509 69.3169287 607.043825 75.3796856 608.328106 76 611.128966"></polygon>
                    <polygon id="Fill-98" points="264.147867 669.043825 265 673.188319 263.361828 674.043825 258 673.538299 258.583038 669.861467"></polygon>
                    <polygon id="Fill-99" points="77 509.043825 78.7502877 503.341311 84 501.043825 80.8504028 508.6263"></polygon>
                    <polygon id="Fill-100" points="48.9682501 476.043825 48 469.339039 51.6403296 469.043825 53 473.752875"></polygon>
                    <polygon id="Fill-101" points="17.706053 358.043825 14 355.113669 19.6252176 349.043825 20 352.058237"></polygon>
                    <polygon id="Fill-102" points="28.8397416 435.043825 28 434.51812 28.9011074 430.348351 30.8658874 429.043825 35 429.822646"></polygon>
                    <polygon id="Fill-103" points="38 394.043825 38.0791667 385.043825 42 390.926042"></polygon>
                    <polygon id="Fill-104" points="18 502.043825 19.0531178 494.20137 21.3174237 493.043825 22 494.436937 20.8483449 499.751276"></polygon>
                    <polygon id="Fill-105" points="46.3747195 480.043825 43.3410621 477.704907 43 472.858985 45.0852655 472.043825 47 477.056733"></polygon>
                    <polygon id="Fill-106" points="271.306972 666.855365 271 670.27834 272.642947 671.043825 274.697712 670.176699 277 665.990357 273.855702 665.043825"></polygon>
                    <polygon id="Fill-107" points="156.291507 648.369207 158 650.648106 149.958356 652.043825 148 650.206516 152.603836 648.043825"></polygon>
                    <polygon id="Fill-108" points="19.4975022 448.599009 18 444.937257 19.0508375 442.185357 21.8883338 442.043825 22 449.043825"></polygon>
                    <polygon id="Fill-109" points="97.2445944 627.043825 95 622.881232 98.2450544 621.043825 102 622.37645 101.85723 623.91205"></polygon>
                    <polygon id="Fill-110" points="29 509.928201 34.6536674 503.043825 35.7572187 503.709363 36 506.925381 29.0882841 511.043825"></polygon>
                    <polygon id="Fill-111" points="160.047919 613.043825 156.328589 610.119077 156 608.261346 161.240137 607.043825 162 609.499085"></polygon>
                    <polygon id="Fill-112" points="55.05 585.043825 54 582.400888 54.6852 578.043825 60 581.40645"></polygon>
                    <polygon id="Fill-113" points="67.9119812 553.005089 66.6804043 553.043825 65.4909234 551.667678 66.5778628 550.854222 64.4029045 549.826699 58 550.234447 63.1508194 548.043825 67.4402905 549.206924 69 550.87359"></polygon>
                    <polygon id="Fill-114" points="57.0913043 498.043825 55.3141304 497.129539 53 490.043825 57.1326087 493.318843 58 495.458037"></polygon>
                    <polygon id="Fill-115" points="235.126512 700.194656 235 702.327129 240.696371 701.534274 241.982577 704.043825 242.531905 702.81733 244.641549 702.855038 245 700.043825"></polygon>
                    <polygon id="Fill-116" points="259.464578 656.146517 264.360684 657.712571 266 662.043825 258 657.549976 258.087369 656.043825"></polygon>
                    <polygon id="Fill-117" points="28.1701175 522.043825 26 518.086676 32 517.043825 29.9787353 521.252801"></polygon>
                    <polygon id="Fill-118" points="57.0448913 476.043825 54.444938 475.334549 53 472.645635 55.7110124 470.043825 58 472.624141"></polygon>
                    <polygon id="Fill-119" points="21.0674157 354.043825 20 353.145698 21.4555669 350.043825 26 350.648392"></polygon>
                    <polygon id="Fill-120" points="28.4579753 515.043825 28 512.044358 33 509.043825 30.9888912 514.132149"></polygon>
                    <polygon id="Fill-121" points="238 689.043825 238.75577 683.113472 240.224369 682.043825 242 686.775046"></polygon>
                    <polygon id="Fill-122" points="165.15256 657.043825 164 656.357452 164.735632 655.101941 170 653.043825 169.38349 655.673083"></polygon>
                    <polygon id="Fill-123" points="49 567.344569 46.5097261 571.043825 43 570.678703 47.3922191 566.043825"></polygon>
                    <polygon id="Fill-124" points="252.839367 704.043825 254 703.833357 252.839367 700.466987 248 700.043825"></polygon>
                    <polygon id="Fill-125" points="54.8028129 502.043825 52 501.271962 53.0486639 497.043825 56 500.539655"></polygon>
                </g>
            </g>
        </g>
    </g>
</svg>