<?xml version="1.0" encoding="UTF-8"?>
<svg width="96px" height="27px" viewBox="0 0 96 27" version="1.1" xmlns="http://www.w3.org/2000/svg" xmlns:xlink="http://www.w3.org/1999/xlink">
    <!-- Generator: sketchtool 53.1 (72631) - https://sketchapp.com -->
    <title>DB3E1CBE-C930-4379-99AF-CF7AEC6127A8</title>
    <desc>Created with sketchtool.</desc>
    <g id="Desktop" stroke="none" stroke-width="1" fill="none" fill-rule="evenodd">
        <g id="Desktop/tour-page" transform="translate(-447.000000, -3297.000000)">
            <g id="share" transform="translate(447.000000, 3251.000000)">
                <g id="Group" transform="translate(0.000000, 46.000000)">
                    <g id="facebook">
                        <rect id="Rectangle-6" fill="#2F5BEA" x="0" y="0" width="96" height="27" rx="13.5"></rect>
                        <text id="Нравится" font-family="ProximaNova-Regular, Proxima Nova" font-size="11" font-weight="normal" fill="#FFFFFF">
                            <tspan x="34" y="17">Нравится</tspan>
                        </text>
                        <path d="M25.5476697,8 L14.6745983,8 C14.3019229,8 14,8.29643229 14,8.6622854 L14,19.3377146 C14,19.7034778 14.3019229,20 14.6745983,20 L20.5282758,20 L20.5282758,15.3529866 L18.9354985,15.3529866 L18.9354985,13.5419305 L20.5282758,13.5419305 L20.5282758,12.2063441 C20.5282758,10.6563804 21.4924325,9.81240492 22.9007497,9.81240492 C23.5753021,9.81240492 24.1550601,9.86172788 24.3240874,9.8837591 L24.3240874,11.5035482 L23.3472915,11.5039978 C22.5814248,11.5039978 22.4331424,11.8613082 22.4331424,12.3856512 L22.4331424,13.5419305 L24.2597004,13.5419305 L24.021844,15.3529866 L22.4331424,15.3529866 L22.4331424,20 L25.5476697,20 C25.9202077,20 26.2222222,19.7034778 26.2222222,19.3377146 L26.2222222,8.6622854 C26.2222222,8.29643229 25.9202077,8 25.5476697,8" id="Fill-16" fill="#FFFFFF"></path>
                    </g>
                </g>
            </g>
        </g>
    </g>
</svg>