
<svg width="345px" height="661px" viewBox="0 0 345 661" version="1.1" xmlns="http://www.w3.org/2000/svg" xmlns:xlink="http://www.w3.org/1999/xlink">
    <defs>
        <polygon id="path-1" points="147.488922 0 146.666618 5.32195264 147.620727 8.5617486 141 24.7557471 141.580334 28.7516947 144.608891 38.146306 144.272494 43.0328986 148.349587 47.1424184 152.313564 47.2191294 154.203093 44.4724759 152.464058 47.749133 149.228941 48.2980652 147.601055 52.8817986 153.848007 54.7188785 156.820498 53.6020854 162.22449 54.1131602 165.853054 50.779717 164.581237 46.7827732 166.226829 44.150688 169.125548 43.1653995 172.603618 44.3589037 176.044311 50.1730024 178.625322 51.2529344 183.263077 49.3590685 184.796536 41.8204658 185.769334 41.4608205 184.684404 49.2265676 181.336171 51.5179362 176.586284 51.9353638 170.92065 59.2836833 174.0997 62.0114082 177.446949 62.522483 180.102715 60.4004764 181.729618 60.7601216 180.962397 66.1587853 182.795859 77.8826226 181.935194 78.1854818 179.54107 70.2882301 177.914167 68.3943641 174.006256 69.6625868 171.406556 72.182096 175.782669 79.0761268 179.635497 81.8417091 172.734439 79.6439877 171.20098 82.296994 171.088848 89.3793155 171.873775 92.5812541 174.230521 94.9294088 174.155766 99.9106449 171.406556 98.5846398 169.162926 102.619441 169.668505 106.861462 165.216654 109.68383 164.300906 114.437922 166.338961 119.570587 166.264206 125.215324 168.75079 124.135392 170.883272 125.518183 171.295408 124.248964 171.295408 125.782189 180.420424 127.582408 183.692918 122.960817 184.964735 123.471892 187.133611 128.490985 190.574303 130.536281 191.26677 133 194.987793 132.582572 195.361568 131.086209 199.102264 129.230201 202 130.139774 199.083575 126.293264 199.083575 125.215324 201.870163 123.548603 201.90754 120.290874 195.679276 114.797567 196.745517 110.062404 200.878676 109.040254 200.897365 104.569097 198.353731 102.979086 192.575964 101.937012 190.350039 98.3007094 191.26677 92.7695448 190.275284 83.1298567 192.78154 75.0612505 190.499549 72.0306664 193.510401 66.5373593 194.987793 66.367001 196.446498 68.07158 201.252451 65.1356394 199.626532 56.6884593 196.25961 49.1687853 197.979957 45.4756968 196.670762 38.5627374 198.298649 24.2626048 195.324191 16.1561412 197.737003 13.2022681 198.316354 9.22325675 189.30347 9.09175212 184.10407 15.9479255 178.905653 13.8458439 170.583269 6.98967049 167.984552 2.25450746 163.814999 0.682429345 159.644463 3.84551427 157.044763 3.3145145 155.473926 0.682429345"></polygon>
        <filter x="-70.5%" y="-30.8%" width="241.0%" height="164.7%" filterUnits="objectBoundingBox" id="filter-2">
            <feOffset dx="0" dy="2" in="SourceAlpha" result="shadowOffsetOuter1"></feOffset>
            <feGaussianBlur stdDeviation="14" in="shadowOffsetOuter1" result="shadowBlurOuter1"></feGaussianBlur>
            <feColorMatrix values="0 0 0 0 0.192156863   0 0 0 0 0.71372549   0 0 0 0 0.294117647  0 0 0 0.338996941 0" type="matrix" in="shadowBlurOuter1"></feColorMatrix>
        </filter>
    </defs>
    <g id="Desktop" stroke="none" stroke-width="1" fill="none" fill-rule="evenodd">
        <g id="Desktop/landing-page" transform="translate(-34.000000, -1010.000000)">
            <g id="description" transform="translate(34.000000, 1035.000000)">
                <g id="chilie-map">
                    <polygon id="Fill-1" fill="#161616" points="124 120.077096 119.703618 122 118 118.239604 120.592765 117"></polygon>
                    <polygon id="Fill-2" fill="#161616" points="156 80.9138577 155.47937 82 154.544882 80.1488764 150.629291 78.332397 150 76 152.982047 76.25"></polygon>
                    <polygon id="Fill-3" fill="#161616" points="144.065901 54.7855279 141.104343 55.629816 144.407389 57.5304742 149.058412 54.4401373 152.51323 54.1715002 154.392411 55.4571207 153.785322 60.2572419 155.854219 63.5404723 154.488268 65.845096 157.317024 68.26384 158 70.3765801 157.353969 72.5256771 149.951073 74.4081567 149.324014 78.2286614 151.318023 80.0141893 148.394408 81.2432546 146.894658 79.8798707 147.40689 78.420545 145.812282 80.1485079 146.134798 83.5276801 154.468298 90.7283668 154.64004 93.5500665 151.507738 93.7813368 150.368447 95.73956 154.695956 102.459528 146.894658 102.881672 147.29306 106.011395 149.210185 108.642221 148.66001 111.963828 144.56016 113 142.18672 111.348791 133.33999 109.8319 130 107.336402 136.149775 93.9732204 136.909636 82.5106967 135.258113 79.7071754 136.282576 69.8766727 138.883674 66.4975005 140.630055 58.0879467 139.301048 54.4401373 140.193709 53 143.344983 53.2878255"></polygon>
                    <g id="Fill-4">
                        <use fill="black" fill-opacity="1" filter="url(#filter-2)" xlink:href="#path-1"></use>
                        <use fill="#31B64B" fill-rule="evenodd" xlink:href="#path-1"></use>
                    </g>
                    <polygon id="Fill-5" fill="#161616" points="181.231645 127.625929 171.978792 125.825017 172.149328 126.849124 167.522901 128.061697 164.299661 136.043144 160.451121 139.455502 160.375327 141.825804 163.751152 145.048697 169.950304 147.113862 169.950304 148.176858 174.936753 152.291232 178.558908 149.371482 178.387375 152.916465 174.272558 163.513521 164.129125 170.755059 157.854179 171.64654 157.076293 174.054735 159.731078 178.490202 158.763707 180.025863 155.919437 180.518471 155.521518 182.490897 156.128868 183.7992 158.061615 184.102344 161.854307 182.547737 166.727064 187.344183 169.419746 188.613596 172.377707 188.235664 171.372439 190.908113 167.693438 189.922897 162.289126 184.291808 154.213074 190.188147 152.449866 202.586114 157.226883 197.600203 159.425907 197.107595 163.123857 198.360056 157.567956 199.364219 153.454137 203.818632 150.155103 210.397043 151.368804 214.415688 149.548751 223.383348 156.620531 214.037756 144.505457 234.644527 141.282217 232.920399 146.287614 226.189419 147.520263 220.540381 144.012796 216.558632 142.173794 216.730148 140.637968 219.458439 144.789684 224.673702 140.979041 222.436025 139.859085 218.852152 132.143055 221.468758 128.047186 218.302704 132.712507 220.843525 139.082196 218.207972 141.850672 214.60615 141.736981 212.653667 139.6327 210.586508 139.063247 215.022972 136.769481 216.52074 138.418998 214.303006 139.556906 209.108684 138.134771 204.842738 136.921069 203.420756 132.616767 204.842738 131.19563 203.174452 122.929096 204.501702 118.965867 215.55447 115.32576 219.535222 111.780395 219.535222 108.784537 222.833901 108.253979 227.060956 106.983432 225.469453 105.182327 226.435723 103.323379 228.463992 103.513862 229.829134 98.9063835 233.4509 96.8390021 233.374117 95.151588 235.895991 95 242.133366 98.8495379 247.952922 100.991716 248.502369 104.917048 245.468941 102.830718 239.043098 101.371683 238.55049 97.0863299 241.678651 98.0148065 238.569437 102.489645 236.483332 109.049816 235.573901 111.931983 233.506742 115.609987 228.370257 115.742627 230.985866 112.025728 235.64869 113.903625 240.46508 127.516628 246.399312 129.318731 244.693133 124.331285 244.010063 124.426028 241.79233 131.95357 241.033474 133.94416 241.868116 134.455769 245.165798 137.395779 249.696994 140.106412 249.261225 142.779149 251.593635 137.565318 258.702547 138.286359 263.972655 136.466305 258.6836 132.503076 258.910958 126.871382 267.422906 132.883044 274.152889 136.579996 273.603442 139.424266 271.632012 139.841133 274.835959 134.172539 275.347513 133.05358 277.263101 134.228387 279.55662 136.351617 279.954496 133.735726 279.613459 129.583012 272.484603 126.512358 271.954102 124.787046 272.845583 121.090094 278.457725 124.388131 280.863926 130.607229 279.859763 139.462163 281.47121 140.144309 283.158442 142.836991 283.878408 147.236036 281.452263 148.391895 275.461192 147.197142 273.811853 148.429792 271.271032 150.269791 275.328567 148.125618 278.134638 148.771862 281.205959 155.255242 288.655908 158.858449 288.562173 161.892204 290.153676 154.839372 289.434707 152.620403 286.381335 150.363536 286.381335 150.610864 289.434707 154.89522 294.970066 157.909029 296.789924 160.053202 295.063801 160.260638 292.902907 160.62066 293.794388 160.317484 296.239479 158.573224 297.983551 154.724684 297.112014 153.075167 299.936034 151.994105 295.576353 147.17919 291.234621 142.040157 291.955584 138.988451 289.869479 132.1999 290.249405 136.068387 299.140283 135.252604 299.386587 133.584138 297.661461 131.631445 290.950424 126.853431 288.314872 124.009161 290.059941 123.612239 293.130265 127.858699 295.311103 133.926209 301.433802 137.849546 302.93157 134.79784 304.220926 140.505328 306.722857 139.823182 312.16448 135.650522 309.283621 130.361895 314.780089 132.616767 319.481804 136.485254 318.648159 139.348472 320.145927 163.541721 341 165.969124 333.397482 168.527172 329.738821 174.651528 327.671662 179.885304 322.4205 178.956827 309.149998 187.146569 304.069354 186.331784 293.187104 181.117954 288.466443 180.56745 286.646586 186.104402 273.868692 186.672857 270.26687 185.288619 269.186921 185.535947 268.067086 188.057095 266.531425 190.672986 266.531425 194.502578 261.224421 198.541601 258.892012 198.694186 255.763851 195.622534 251.612581 196.626805 243.02385 200.021578 241.829226 203.812276 237.830525 201.822684 220.786685 197.632073 216.975455 201.291128 215.723991 205.652276 210.302311 204.438574 206.700489 201.632201 205.373239 200.589036 200.74731 201.708992 194.187845 209.349228 191.079628 213.899861 184.481273 213.065129 181.657253 206.239679 171.911791 193.176182 169.106717 192.779261 164.764985 193.706741 163.513521 199.262641 164.973396 201.13954 163.570361 204.305935 164.613413 208.666085 163.133595 211.94617 165.124968 214.430419 165.200754 215.833605 163.248271 216.799979 157.389825 219 155.247878 216.649388 151.286072 211.112436 150.167234 200.931107 150.451431 198.921568 149.105235 200.437448 147.455895 199.86999 141.21852 204.49542 132.839197 203.111182 130.185695 200.173166 129.275268 196.380474 131.133019 196.001504 132.630786 192.228757 133.048606 191.526665 130.582574 188.038146 128.536356 185.839123 123.511555 184.54863 123"></polygon>
                    <polygon id="Fill-6" fill="#161616" points="170.939999 163.192276 163.820345 169.865103 160.004719 171 156.473203 166.480644 159.306363 165.153563 161.874286 165.576368 159.400735 164.154207 156.982814 165.230437 155 159.673287 156.284458 157.750437 160.042468 157.115218 161.326926 150.904644 167.483982 149 173.621169 152.942805 175 155.422989 172.299955 159.461885 168.012467 158.211678 171.8271 160.768736"></polygon>
                    <polygon id="Fill-7" fill="#161616" points="108.664967 318.575486 107.656298 319 106.415094 316.027386 105.388067 310.099422 106.067313 307.685379 103.27486 306.025915 100.443651 307.222273 98.8342682 306.411837 99.436002 305.002206 103.371749 303.727648 104.611933 301.951392 99.3187149 303.052285 98 293.648993 100.114227 291.120189 104.127486 290 111.883733 310.640728 112 314.965085"></polygon>
                    <polygon id="Fill-8" fill="#161616" points="123.45433 318 120.323237 315.630285 113.917179 314.340705 113 310.643511 115.806436 306.642123 117.803597 306.509475 119.999527 310.017172 121.223379 308.424396 118.595835 303.380773 120.503076 295 122.032655 302.091193 124.372456 306.490525 124.138665 313.278522 125.397539 315.079745 125.866067 313.582715 127 314.113308 126.47752 316.899918"></polygon>
                    <polygon id="Fill-9" fill="#161616" points="114.093688 308 109.574951 299.309618 108 293 113.737673 294.039348 120 297.420707 119.080868 304.730922"></polygon>
                    <polygon id="Fill-10" fill="#161616" points="148.264633 184 145.692297 182.231577 141.283959 182.348109 138.362783 178.694731 135.368167 179.510454 135 175.837654 136.635975 174.030388 145.251657 173 149 178.111049"></polygon>
                    <polygon id="Fill-11" fill="#161616" points="131.933209 289 127 286.267416 132.607255 282 142.608482 285.12212 144.920512 284.198307 146 284.955037 145.441504 287.41174 144.034623 288.040244 137.559723 287.485568"></polygon>
                    <polygon id="Fill-12" fill="#161616" points="133.675137 165 130.681614 162.908304 130 158.065716 134.091679 157 140.760339 157.272033 144 160.002547"></polygon>
                    <polygon id="Fill-13" fill="#161616" points="111.865943 214.521049 111.221813 212.047643 114.978109 211.08974 114.13057 210.073355 112.031577 210.32241 111 205.856567 111.994769 205.320141 115.18055 206.871944 121 203 118.882604 211.952861 115.660015 215"></polygon>
                    <polygon id="Fill-14" fill="#161616" points="98.2091511 317.781713 102.680386 314.70376 100.147023 315.677174 97 314.783137 97.7680834 307.456419 105.442862 307 106 314.068743 101.183582 318"></polygon>
                    <polygon id="Fill-15" fill="#161616" points="129.094791 203 128 201.085599 129.349968 199.209466 128.860193 193.676737 130.855305 190 134.180836 191.933535 136 197.429003 135.257106 199.190332"></polygon>
                    <polygon id="Fill-16" fill="#161616" points="117.702917 293 113.669629 291.535762 113.869193 290.210974 112.531066 289.557427 109.675204 291.575307 107 291.318259 109.435728 288.311731 113.17072 287.322044 119.340389 282 120 291.65544"></polygon>
                    <polygon id="Fill-17" fill="#161616" points="150.263927 203 147.069406 199.291772 147 193.648862 149.500457 190 152 191.16929"></polygon>
                    <polygon id="Fill-18" fill="#161616" points="133.238747 174 131 173.469852 131.245342 172.207505 136.154163 168 141.457708 169.244067 143 171.237652"></polygon>
                    <polygon id="Fill-19" fill="#161616" points="148.053704 163 146.090033 160.771259 146 157.437838 149.405149 156 152 161.894397"></polygon>
                    <polygon id="Fill-20" fill="#161616" points="140.719786 133 136 131.052447 136.328298 128.912792 142.838522 128.217564 144.360446 127 147 131.278396 144.533714 131.469584 143.840641 129.765361 141.509119 130.026071 142.453482 131.86934"></polygon>
                    <polygon id="Fill-21" fill="#161616" points="140.694115 186 137.271486 184.855827 137 181.673043 138.973751 181 140.421677 182.784449 145.039797 182.818101 146 183.794013 145.782811 185.747609"></polygon>
                    <polygon id="Fill-22" fill="#161616" points="126.903067 304 125 299.701735 125.851422 295 131 300.627281"></polygon>
                    <polygon id="Fill-23" fill="#161616" points="146.865351 219 143 213.989638 143.60548 212.104669 145.520919 212 149 214.18245"></polygon>
                    <polygon id="Fill-24" fill="#161616" points="130.929941 155 127.824854 154.378652 127 152.124441 133.346618 150 134.742047 150.392747 136 152.565315 130.615711 153.758164"></polygon>
                    <polygon id="Fill-25" fill="#161616" points="141.901362 201 140.163994 200.424724 139 196.951584 140.917572 194 144 196.971118 143.343852 200.145389"></polygon>
                    <polygon id="Fill-26" fill="#161616" points="97.9946696 322 97 321.39427 97.0382178 318.593906 100.691039 319.354252 105.183647 316 106.46495 316.812187 107 318.766712 106.006336 319.839018"></polygon>
                    <polygon id="Fill-27" fill="#161616" points="137 195 139.234913 189 144.002312 190.911716 146 190.43777 144.754566 194.527049 139.651098 192.614338"></polygon>
                    <polygon id="Fill-28" fill="#161616" points="136.618224 257 135 254.695391 136.189569 251.152305 140.420744 251 142 252.199399 139.114269 255.990982"></polygon>
                    <polygon id="Fill-29" fill="#161616" points="145.784066 172 143.21083 169.196239 143 166.412272 144.539059 165 146.100311 165.602715 148 169.949385 147.766977 171.962392"></polygon>
                    <polygon id="Fill-30" fill="#161616" points="133.582063 309 128 304.693168 131.733648 302 132.990155 302.51365 132.59555 304.675456 135 307.706086"></polygon>
                    <polygon id="Fill-31" fill="#161616" points="122 201.025151 122.868271 196.587525 126 195 125.244852 201.369215 124.056065 202"></polygon>
                    <polygon id="Fill-32" fill="#161616" points="143.910763 210 143 207.733965 144.048236 205.686169 148.347 203 149 206.436066 146.473018 206.125532 145.234851 209.488532"></polygon>
                    <polygon id="Fill-33" fill="#161616" points="108.947401 283.268201 108.77207 281.910756 106 280.785345 110.035374 278 112 281.42884 110.947093 283.250352 108.491541 284"></polygon>
                    <polygon id="Fill-34" fill="#161616" points="140.305699 208 138 202.924429 139.990674 201 141.921244 201.660003 142 202.962144 141.78342 206.377286"></polygon>
                    <polygon id="Fill-35" fill="#161616" points="131.258661 168 129.293307 166.916635 128 163.451006 130.206603 163 133 167.188188"></polygon>
                    <polygon id="Fill-36" fill="#161616" points="131.039033 188 128.035316 185.396364 128 183 131.321561 183.206061 133 187.746667"></polygon>
                    <polygon id="Fill-37" fill="#161616" points="139.316751 157 137 155.829916 137 152 141.709645 153.674306 142 156.448733"></polygon>
                    <polygon id="Fill-38" fill="#161616" points="164.054775 136 160 133.798025 161.060349 131.955117 163.870577 131 165 132.126571"></polygon>
                    <polygon id="Fill-39" fill="#161616" points="140.380537 148 137.931644 146.205128 137 142.871795 138.761073 141 142 144.431795 140.340077 145.01641"></polygon>
                    <polygon id="Fill-40" fill="#161616" points="149.778238 140 147 135.041431 147.749223 133 150.388601 135.506591 151 137.977401"></polygon>
                    <polygon id="Fill-41" fill="#161616" points="129.532924 312 128 307 133 310.161864"></polygon>
                    <polygon id="Fill-42" fill="#161616" points="132.255797 183.93179 130 181.934841 130.757916 179 134 180.979896 133.185241 184"></polygon>
                    <polygon id="Fill-43" fill="#161616" points="127.884167 162 124.059049 161.961066 123 160.811475 124.439645 159 125.847936 159.058402 128 159.779713"></polygon>
                    <polygon id="Fill-44" fill="#161616" points="127.504153 257 127 253.93412 132 253 131.627365 254.981318"></polygon>
                    <polygon id="Fill-45" fill="#161616" points="112.033701 170 110 166.73807 111.812899 165 114 167.367642 114 168.907175"></polygon>
                    <polygon id="Fill-46" fill="#161616" points="141.867091 151.798349 138.976787 150.027123 138 147 142.862366 148.345519 143 152"></polygon>
                    <polygon id="Fill-47" fill="#161616" points="132.137848 157 131 154.857232 133.000643 153.285535 135.605437 153 137 155.547276"></polygon>
                    <polygon id="Fill-48" fill="#161616" points="138.921923 310 135.738237 308.004077 134 305.058104 135.972468 305 139 307.11213"></polygon>
                    <polygon id="Fill-49" fill="#161616" points="149 212 145 210.295344 146.818278 207 148.414453 208.036431"></polygon>
                    <polygon id="Fill-50" fill="#161616" points="148.714451 166 147.021965 164.95517 147 162.807463 150.956069 162 151 165.645504"></polygon>
                    <polygon id="Fill-51" fill="#161616" points="144.94599 143 141.919992 142.258134 141 140.773319 143.623942 139 146 141.515184"></polygon>
                    <polygon id="Fill-52" fill="#161616" points="139.866733 167 136 165.387574 141.942886 164 142 165.95069"></polygon>
                    <polygon id="Fill-53" fill="#161616" points="114.194716 281 112.408236 279.699145 112 277 115.371816 277.492356 117 279.344649 116.842895 280.409173"></polygon>
                    <polygon id="Fill-54" fill="#161616" points="119.199549 161 118 158.846996 118.535513 156 121 157.7153 120.528749 160.416395"></polygon>
                    <polygon id="Fill-55" fill="#161616" points="142.509018 189 140 188.260831 140 187.487179 144.981963 187 145 188.109637"></polygon>
                    <polygon id="Fill-56" fill="#161616" points="145.293676 148 142.495721 147.372605 142 145.325316 146.841369 145 147 147.394619"></polygon>
                    <polygon id="Fill-57" fill="#161616" points="167 125.561644 169.692717 124 172 126"></polygon>
                    <polygon id="Fill-58" fill="#161616" points="162.701325 461.086367 161.181134 460.765017 160.24963 458.400161 159.034278 445.065636 157.400148 442.644071 160.17467 462.448373 159.129227 464.415273 152.421799 458.760312 150.142013 449.77545 151.490295 448.942727 156.012887 458.022103 156.887421 457.719656 151.832113 446.370933 154.949453 443.684727 151.034538 444.800995 148.753752 447.808551 146.303058 441.509895 143.205707 440.583652 143.224697 430.009949 145.695381 430.784969 148.468904 433.962651 151.319386 440.82939 146.606896 423.295429 147.690319 422.55722 148.982631 425.375746 148.430924 420.665932 147.158602 420.401291 143.319646 424.221672 138.360287 422.784055 137.143935 421.820005 136.498279 416.996773 134.236484 415.313418 133.932645 410.754827 135.756674 408.787927 143.091768 408.334257 144.630948 410.282253 147.329511 399.462813 150.520811 398.743506 153.238364 401.67545 154.055929 399.803065 149.989095 397.552622 148.108096 394.545066 151.338376 392.143399 152.19392 388.586663 146.739825 394.450551 145.409533 403.775666 142.046324 406.821027 139.44371 406.517585 137.391803 404.115918 132.812242 391.802151 134.845159 391.102743 140.051387 394.034687 143.566515 394.601775 137.372813 390.062087 132.736282 389.646222 122 380.302205 122.493737 377.975155 124.774522 375.932643 131.178112 375.365555 135.092028 380.774778 141.590567 383.725625 144.194181 383.763431 135.833633 380.132079 130.589426 371.337241 131.50094 368.651035 133.362949 368.896773 137.257875 372.187873 143.585505 374.798467 143.319646 372.376902 131.842758 366.153859 131.197102 363.374133 135.395866 361.273918 138.645136 361.103791 138.910994 359.817397 132.546384 360.801344 131.937708 355.978112 134.047584 353.841086 138.246348 352.441275 142.027335 353.348615 143.833373 357.831595 147.386481 360.404383 148.089106 362.862759 148.392945 361.538559 147.176592 358.077333 144.611958 357.396827 144.023272 352.195536 137.619682 350.171928 138.759075 341.092552 142.844899 344.572681 144.725897 344.553778 142.160264 343.267384 140.640073 340.771202 139.823508 334.151197 142.141274 331.370476 145.238624 332.561361 145.162665 331.65402 143.490555 330.765582 139.423721 331.219252 139.4627 336.609572 136.536259 343.419602 134.75021 352.214439 130.474487 347.882684 129.8858 328.835493 128.42258 322.821377 130.360548 319.22783 132.279526 320.267491 134.826169 319 138.816045 319.889433 163.062133 340.69559 165.246969 341.300484 163.917677 342.813713 155.043403 343.11616 151.870093 352.573595 153.675132 355.239903 155.538139 362.938371 153.314324 365.511159 152.630688 369.180317 154.910474 371.733208 153.124425 376.689755 158.63549 382.117881 160.117701 385.427884 161.428003 396.79551 163.917677 404.078112 167.128967 403.207583 170.150358 399.727454 173.931344 397.741651 177.351523 399.916483 181.360388 397.003442 184.628647 397.476015 186.700544 399.102662 185.484192 402.431568 188.086806 407.652756 187.46014 414.291664 185.617121 415.294515 183.964001 418.452299 184.477728 420.628126 187.896907 424.01374 186.225797 427.172519 185.256313 434.624254 183.831072 435.872842 186.833473 443.760339 190.995257 445.651627 195.745727 450.626082 197.075019 456.773514 248.759495 456.792417 263.276764 463.223393 269.433485 463.20449 280.377657 469.181796 291 471.337725 290.848081 473.493654 289.024052 471.167599 277.300296 469.616564 271.637311 466.004114 268.482991 466.04192 263.029895 468.709223 262.460199 473.740387 257.46286 480.133557 253.794813 478.903872 251.002301 479.527669 235.24969 487.906642 226.737223 489.15523 225.881678 495.642915 226.718233 500.749691 223.088166 509.432105 221.834834 518.397069 223.374014 528.062436 222.290591 535.28833 220.390603 538.124765 213.968023 541 209.426442 538.692848 202.775983 537.557677 198.596209 534.474509 191.526974 531.977333 186.852463 527.136193 182.424821 519.173084 183.223396 515.351707 186.985392 512.022802 191.621923 512.590885 192.09667 518.434875 188.505583 520.591799 191.811822 520.326163 194.320486 518.567195 194.263516 511.890481 198.253392 511.038855 200.438228 520.326163 198.747129 522.691019 194.529375 525.149395 194.510385 526.454692 200.15338 524.071928 201.293773 521.801586 201.73054 510.679699 212.82763 505.516214 218.242746 496.096585 217.216293 492.616456 212.257934 491.745926 205.378597 495.491691 197.416837 500.995429 194.148578 506.594676 191.830812 506.972735 188.695482 503.13345 186.472665 502.357435 180.695742 503.832858 179.936146 504.721296 184.838536 504.456655 189.570016 509.204275 185.465202 511.190078 181.589266 509.450013 180.277964 510.131514 180.9626 511.30449 183.356325 512.192928 180.695742 517.394219 178.434946 517.299704 177.161624 515.616348 179.650299 519.967007 181.170489 519.134283 183.926022 523.333719 183.850062 525.281716 180.9626 525.716483 165.779685 513.838478 163.727778 513.27139 159.547005 508.220328 169.142894 508.372546 174.273162 514.348857 175.451535 514.197634 175.888302 511.852675 173.247708 509.260984 174.178213 507.407502 176.933745 507.691046 173.798415 506.423555 171.651558 507.672143 169.313803 505.648535 170.909953 502.338532 168.971985 498.214708 168.744107 494.715676 175.204666 489.760124 178.890703 492.010567 183.261376 492.729874 190.044763 485.372654 194.472405 484.728959 197.512786 486.903791 200.305299 487.301748 204.106275 486.979403 208.856745 484.766765 206.993737 481.475666 191.128186 479.433154 186.244787 479.830116 183.299355 485.73181 179.898167 482.856574 181.190478 480.965286 184.001981 479.830116 183.432285 479.073998 179.955136 480.510621 173.342658 480.756359 170.397226 484.40761 172.810941 483.670395 176.288089 484.9936 176.364049 486.015354 173.095789 490.232697 168.990975 492.332912 167.509764 494.526647 169.085925 500.258215 168.1934 503.90847 162.169608 505.761952 159.053267 504.456655 155.51915 501.108846 161.315063 496.115488 158.008824 495.642915 152.630688 492.2185 153.998959 491.12213 157.172269 492.068271 161.410012 491.556897 160.744367 488.492632 164.94413 479.167518 166.084523 478.524818 170.644095 479.60328 167.337856 478.014439 163.651819 478.373595 163.101112 482.327292 160.516488 486.336703 158.844379 485.938747 157.836915 482.685453 152.592708 487.149529 151.167467 489.703415 148.944651 488.643856 149.229499 483.21573 152.820587 480.69965 151.529274 480.283786 149.686256 475.422748 150.142013 473.266819 151.719173 473.607072 152.421799 471.281016 151.928062 467.176096 148.166065 461.142081 147.938187 458.532482 149.400408 458.683705 153.048465 465.303711 155.158342 464.414278 159.015288 466.665717 161.220114 465.81409 163.272021 461.766873 168.098451 459.969105 168.079461 465.076876 171.32873 468.424684 173.532557 459.592041 171.080862 465.757381 169.276823 464.452084 169.257833 460.707314 171.480649 455.090159 173.09479 454.257435 176.003241 456.395456 175.888302 458.872735 180.315944 465.625061 179.194541 470.940764 169.655621 476.652433 170.454196 476.95488 179.061612 473.247916 181.494317 470.731837 182.120983 465.776284 177.218594 459.09957 176.743846 455.3548 177.617381 454.540979 180.733722 455.03345 182.405831 453.3879 181.057549 445.064641 175.489514 438.823689 169.979449 437.159236 164.582323 432.751869 161.181134 433.602501 160.801337 435.229148 163.594849 434.699866 168.32533 436.685668 175.603454 443.590212 179.898167 445.538209 177.82627 449.54762 175.299616 449.774455 172.734981 447.051439 160.040742 440.071283 161.579922 444.232912 165.209989 444.497553 167.774623 447.410594 166.102513 450.209223 162.549406 451.457811 165.798675 450.985238 168.459258 449.018338 169.675611 450.815112 163.917677 454.276338"></polygon>
                    <polygon id="Fill-59" fill="#161616" points="285.508818 583.405496 285.319901 588.082945 278.684961 584.086939 282.484168 588.651811 281.028518 589.845333 273.921287 591 258.155722 584.958668 258.854713 579.10563 256.511156 580.583086 255.811171 584.370874 241.31234 586.472986 240.159951 583.575857 242.371266 578.820699 239.025458 584.616951 231.937119 584.295158 228.306943 585.886188 226.341219 584.598022 227.626844 582.950205 234.337351 579.389565 236.340858 575.847854 233.827277 575.999286 232.031577 577.987824 232.938375 579.238133 227.324578 581.415961 224.715544 581.302388 224.111012 579.84386 228.080243 578.574623 225.43442 578.689193 220.95412 582.950205 222.730928 575.620706 221.558653 575.354704 220.367485 577.628174 217.078353 579.48421 214.602555 578.385333 213.808112 577.211736 214.810363 573.670026 212.901313 571.093693 211.105614 572.590078 208.893304 578.91634 203.581773 574.977121 199.839241 577.192808 196.3423 577.15495 195 573.120089 195.717882 567.873775 199.763674 572.211498 203.770689 573.612243 206.285265 572.305147 203.166157 568.668791 199.669216 568.176638 199.121359 566.263815 200.651581 565.373157 202.220581 565.411015 204.848506 569.843384 206.738664 570.639397 208.79984 569.389089 206.00189 568.157709 205.717521 565.752733 209.857772 567.381621 211.766821 566.490963 210.501082 565.733804 212.032298 564.255352 222.787603 568.801294 223.619829 562.911394 226.984528 561.793589 232.29606 563.006039 229.649243 568.025206 228.534636 574.465043 229.460326 573.366166 231.502611 575.165415 229.80137 571.396556 232.957267 565.127081 241.104532 573.120089 245.206999 572.115857 236.814143 566.661324 234.148434 560.54328 226.057844 559.027966 224.129903 553.573432 225.150051 553.25164 239.554424 561.831447 245.074758 566.774898 247.02159 564.180632 244.299207 563.214258 243.486867 561.528583 247.342748 558.554742 249.554064 560.770428 254.904373 572.74151 255.773388 569.143012 251.936398 561.509654 252.616497 560.126843 268.854352 567.40055 269.516553 569.237657 264.469505 576.018215 265.603003 578.820699 268.193145 572.134786 269.913278 571.472272 270.953312 573.916102 271.708977 572.665794 271.557844 568.025206 275.849228 568.668791 275.887011 566.983116 273.353543 565.14601 247.588339 551.717397 244.034724 539.727386 244.904733 535.428516 251.028605 531.469372 255.074397 531.015076 266.208529 524.707743 266.019613 517.45396 260.367037 516.525444 251.72859 517.756824 242.976792 523.230286 236.814143 518.476125 235.887459 514.536906 236.870818 502.546895 239.289941 499.554124 239.706551 503.816132 243.713566 502.736185 246.132689 497.869446 245.811532 496.675924 243.014576 496.182774 240.972291 492.432845 237.569808 492.167839 238.043093 490.860744 244.904733 489.534719 248.609482 494.213165 251.029599 494.232094 256.756747 490.197233 259.441347 485.196995 259.327998 481.068486 264.488396 478 271.633411 487.943689 276.56711 486.276943 280.782927 483.15167 286 486.030866"></polygon>
                    <polygon id="Fill-60" fill="#161616" points="119.716646 374 116.847102 372.096362 117.597781 370.63033 120.784957 368.403243 122.285327 369.449693 120.3164 367.546055 116.434772 369.907328 115.534155 358.521547 116.472256 352.315947 122.58619 344.985787 114.803206 352.563289 114.18471 350.011753 113.246609 351.230442 113.246609 356.104197 114.372133 358.14102 112.965475 367.450923 109.571147 365.337995 105.50111 356.313487 105.632306 350.92602 103.588409 348.051036 101.825647 348.984329 101 343.139228 103.176079 341.730275 105.839457 347.442192 108.951665 350.887968 104.863872 343.063123 104.957583 341.083379 106.214303 340.75993 109.065105 344.18668 111.615043 340.245217 110.996547 338.531842 115.590382 343.97739 118.010111 334.038615 114.203453 329.641521 111.764982 323.549077 112.0836 321.74057 114.01603 320.255512 120.278915 317 125.624414 318.294795 126.092972 319.970116 128.23058 342.777727 126.130456 352.449131 126.748952 354.314717 124.180271 359.892447 125.943033 358.064915 125.905549 356.370566 127.574599 356.009065 129 360.749635 127.274723 369.506773 123.298397 373.67555"></polygon>
                    <polygon id="Fill-61" fill="#161616" points="287.730414 607.89641 284.773858 605.010884 283.019187 605.765744 286.814454 609.800917 291.965101 608.651269 298.697863 611.800649 298.54537 615.04327 301.31131 615.213882 300.185672 617.702635 301.864096 620.493928 304 621.002788 303.675953 624.792955 301.31131 627 297.057561 622.360741 296.314158 618.287874 293.338541 615.798129 290.305738 616.853543 288.47482 615.213882 283.324173 615.138495 280.062631 617.09855 277.640803 614.741723 276.859277 613.195303 277.755173 611.856197 281.856429 611.27195 282.237661 608.896276 278.765438 610.12131 278.365144 609.21667 281.0739 602.068819 275.084541 605.78459 270.583995 603.691617 269.229617 599.598912 264.40402 600.919171 267.989609 600.974719 268.752074 603.784858 265.871764 604.860111 265.452409 606.802311 267.779932 610.367309 267.856178 613.251843 272.127985 613.931316 271.422706 617.231468 267.20708 616.156216 264.40402 616.683923 262.629284 612.573363 265.280854 610.141149 262.610222 609.028203 260.436196 610.913863 259.387807 608.896276 256.926853 607.78333 257.899998 604.747031 262.267113 601.559958 252.730289 605.38881 251.051864 603.784858 253.131586 603.049838 251.472223 601.277258 248 600.636471 251.700962 596.411839 270.736488 592.715906 280.559236 592.414359 283.095433 590.810407 289.256346 590 292.136656 591.131793 294.27256 595.262191 293.948512 596.487226 287.234813 600.052224 282.275784 599.56221 275.446712 594.431946 274.3602 595.562746 282.046042 601.484571 292.784751 601.90019 297.457855 605.803437 297.305362 606.709069"></polygon>
                    <polygon id="Fill-62" fill="#161616" points="159.275238 539.128388 160.613229 538.208156 160.880626 533.872599 151.993189 535.693316 154.535473 533.647478 154.287175 531.825773 151.572994 531.769493 151 529.385973 151.840391 528.015499 154.287175 528.446981 156.331859 527.226587 160.766027 531.544372 168.907567 531.863294 168.869367 530.68042 165.620392 531.375531 160.154834 529.967536 156.21726 522.92855 164.874494 524.843067 163.001709 520.862965 165.639491 520 170.09276 521.201634 171.047749 532.370804 172.882335 526.232302 171.487045 522.85351 173.474429 523.566393 176.552512 529.067052 178.883692 527.226587 182.897665 528.390701 183.833555 531.431811 181.712473 532.539645 182.85846 535.543235 184.769445 533.027407 188.401422 534.698043 191 538.020555 188.172225 541.249267 185.305245 540.705224 183.547058 542.188259 183.585258 545.416971 186.088337 546.617617 185.973738 548.720723 183.184162 549.002124 180.317182 551.442912 177.908597 549.808809 172.500339 553 166.996582 550.447639 173.781031 547.57537 175.119022 539.803752 173.111533 538.753187 169.768063 541.136706 167.378578 540.986626 166.116986 538.376997 164.129602 547.331488 161.663718 546.223655"></polygon>
                    <polygon id="Fill-63" fill="#161616" points="300.940869 589 317.989537 589.512167 323.502517 591.026746 328 596.709408 326.983513 602.545521 323.220434 607.640287 321.790227 608 317.72527 606.617946 318.177592 603.246014 315.392399 601.351794 313.114954 602.16588 312.061846 605.917453 305.889684 604.684865 306.641904 604.154762 305.795656 601.861968 299.698716 604.249423 298.626803 603.055695 297.140179 592.769509 294.166931 593.034561 293 590.38305"></polygon>
                    <polygon id="Fill-64" fill="#161616" points="157.860848 513.59947 159.970098 513.353057 164.981176 516.842753 165 518 154.60236 516.274106 154.187247 514.510303 143.790597 504.381403 139.119337 506.297843 132.207061 505.690289 129.569756 500.569473 125.200666 498.406619 124.955958 493.798583 121 490.725894 122.130415 489 123.7126 489.815061 131.264883 499.203722 134.241016 499.886099 137.480681 498.635075 148.518328 504.970002 151.513285 504.49613 152.831937 506.372665 152.416824 509.958134 153.697829 513.106643 155.129424 511.475524 154.320004 508.061646 155.035306 507.548866 159.235972 511.740892"></polygon>
                    <polygon id="Fill-65" fill="#161616" points="214.058016 547.323963 214.703608 550.276654 216.889228 550.76517 219.301704 549.669866 221.391384 551.546795 222 559.48543 218.409268 565 212.329108 561.499143 209.74474 556.514227 209.820692 554.930408 211.587576 553.952348 210.543236 552.192664 208.31964 554.089133 207.066432 558.781968 203.85546 557.784368 203 555.320192 204.501052 551.781282 203.816484 546.306822 205.146644 544.175866 209.004208 544"></polygon>
                    <polygon id="Fill-66" fill="#161616" points="234.476286 558 230.095526 555.872292 226.984415 552.651487 225.482467 549.660595 225 541.819335 227.824264 539.787424 232.044203 541.110435 232.151417 539.25096 230.00618 537.410643 229.898965 533.1159 232.383716 531.218106 233.76058 527.575792 235.334946 527 235.352815 534.515549 239 547.724481 238.37458 549.066651 235.728067 548.931527 230.84697 543.468057 230.988983 546.114078 234.136773 553.264589"></polygon>
                    <polygon id="Fill-67" fill="#161616" points="203.604485 544.367351 202.266278 545.823479 204 551.666622 201.9461 554.736186 199.572022 553.910322 196.744935 547.397588 196.028251 548.105472 197.04628 552.709818 201.66359 558.061375 199.28852 563 196.330587 562.646058 196.197757 559.084908 188.923858 550.880085 188 543.541487 189.696054 543.344852 193.164488 545.430211 194.99238 540.62923 196.235425 540 203.981166 543.266199"></polygon>
                    <polygon id="Fill-68" fill="#161616" points="112.046143 384.18475 107.166723 390 104.881105 389.740895 104.764904 388.740516 107.627484 384.499378 101 386.740733 103.325025 377.980843 106.493769 378.666595 104.169754 379.833541 104.804311 381.221603 109.58673 382.110937 109.183563 378.814654 103.074436 375.185237 102.594476 373.703664 104.82351 372 109.952509 373.240002 113.544628 377.462633 111.604581 379.628984 117.271135 378.648087 117.463119 377.129498 119 377.092483 118.731223 380.647871"></polygon>
                    <polygon id="Fill-69" fill="#161616" points="121.562547 419 117.136782 416.935765 115 412.253666 116.172843 409.52527 122.357374 411.055266 124.380751 409.967398 124.456354 405.893225 122.546381 403.773724 123.283512 403 129.959463 407.295237 131 415.313659 130.186272 418.022664 128.143994 414.244213 124.777667 416.142649 124.040537 418.226276"></polygon>
                    <polygon id="Fill-70" fill="#161616" points="238.677445 588 239.696667 588.36107 234.503204 590.474277 234.295584 592.371793 229.064372 592.173205 228.421646 593.111986 234.918442 594.521108 240.414891 594.01561 241 597.610153 239.489048 598.441564 237.053246 596.40057 236.051905 598.152708 237.902598 599.182707 237.808225 600.247862 233.842597 602 232.916754 600.970001 233.314111 598.00733 231.784285 596.273246 229.290866 598.278132 221 594.557215 221.54736 590.38496 224.512641 589.770191 232.444891 591.305688 231.633289 589.986833 234.352208 588.487444"></polygon>
                    <polygon id="Fill-71" fill="#161616" points="136.191244 408 134.451353 405.216995 133.014746 406.326042 127.390696 403.015719 125.772119 398.200616 129.960626 394.307574 123 392.294273 126.014746 390 131.739891 392.82159 137 404.558096"></polygon>
                    <polygon id="Fill-72" fill="#161616" points="251.244577 595 251.414292 593.13536 250 591.177538 250.603431 588.286905 252.73529 587.428641 257.113143 587 271 591.196175"></polygon>
                    <polygon id="Fill-73" fill="#161616" points="143.358358 490 139 484.762011 141.436436 481.014428 148.192192 476 150 479.150441 148.439439 484.57473 146.327327 488.750805"></polygon>
                    <polygon id="Fill-74" fill="#161616" points="114.707921 435 114 433.34474 120.136989 427.854459 116.332921 430.014048 115.664217 427.693074 120.003249 422.767641 124.897355 422 127 425.957122 126.445931 430.377164 124.419709 431.931558 123.119508 428.298269 120.251624 432.981624"></polygon>
                    <polygon id="Fill-75" fill="#161616" points="105.273552 406 101.651779 404.7148 100 400.284191 102.447313 397.887304 103.959874 398.404813 103.243894 395.125234 101.452896 393.783542 102.864969 392 112 393.571696 108.994766 397.753134 106.786113 397.082289 106.94522 404.216458"></polygon>
                    <polygon id="Fill-76" fill="#161616" points="110 368 107.218149 364.999744 107.675869 367.532747 106.622485 367.47434 102.966995 362.234139 99.2320822 364.980275 98 357.597472 99.1526605 356.097344 104.894017 356 109.444048 364.220989"></polygon>
                    <polygon id="Fill-77" fill="#161616" points="114.444389 463 112 456.467108 114.806929 449.396545 115.456691 451.856487 118.224454 450.914553 117.403967 445.610621 115.43761 442.191566 117.194075 441 119.351243 442.267365 120 448.05136 116.773286 459.791161"></polygon>
                    <polygon id="Fill-78" fill="#161616" points="107.478217 334 105.70618 328.692494 100.832827 332.519118 97 329.518916 97.4812563 324.711107 99.5997974 324 106.245187 325.192596 109 331.980983"></polygon>
                    <polygon id="Fill-79" fill="#161616" points="115.490803 342.205464 113.043562 339.28406 108 337.158165 111.07454 332 114.86544 332.240209 117 334.421537 116.153921 343"></polygon>
                    <polygon id="Fill-80" fill="#161616" points="106.126621 442 106 437.956617 108.171605 434.887217 108.624777 427.849665 110.760205 426 114 429.032286 113.981911 432.121748 112.135904 432.178923 110.145186 439.520406"></polygon>
                    <path d="M1.12662144,442 L1,437.956617 L0,432 L1.12662144,427 L6,425 L18,425 L15,430 C13.7007545,431.218616 12.3674212,432.218616 11,433 C9.63257879,433.781384 8.96591213,434.44805 9,435 L6,439 L1.12662144,442 Z" id="Fill-80" fill="#161616"></path>
                    <polygon id="Fill-81" fill="#161616" points="137.282045 475 135.051211 472.027623 134.860713 468.468998 135.795157 467.549515 138.348835 468.566706 137.262996 466.12298 130 463.834558 132.783279 461 143 471.832207 141.836958 473.357479"></polygon>
                    <polygon id="Fill-82" fill="#161616" points="100.825463 342 97 339.53688 98.4773859 336.508353 100.806535 335.647905 105.46583 330 107 334.592136"></polygon>
                    <polygon id="Fill-83" fill="#161616" points="122.059536 410 115.556004 407.886773 115 403.346372 116.784057 400.684508 118.683148 400 120.754793 401.780751 123 406.86876"></polygon>
                    <polygon id="Fill-84" fill="#161616" points="136.070072 456 130.448835 453.170081 127 445 130.448835 446.235731 138 452.532825"></polygon>
                    <polygon id="Fill-85" fill="#161616" points="220.235133 591 216.469304 588.728223 212.96017 590.98009 211.22387 590.469388 210 587.650075 211.370004 585 219.906332 587.49776 221.843565 586.400697 224 589.637133"></polygon>
                    <polygon id="Fill-86" fill="#161616" points="147.966472 467.38059 143.774885 462.003424 137 457.883296 138.490203 454 146.675869 460.745428 149 466.560784 148.861012 468"></polygon>
                    <polygon id="Fill-87" fill="#161616" points="140.49538 449 135 444.507089 135.162995 443.228952 137.468609 442.969543 138.801943 440.434273 138.801943 437 143 447.063364"></polygon>
                    <polygon id="Fill-88" fill="#161616" points="319.727195 631 319.52411 629.336412 314.111745 628.522606 314 627.339329 314.351755 625.084589 318.876959 621 322 629.613515"></polygon>
                    <polygon id="Fill-89" fill="#161616" points="117.720927 464 117 462.903746 120.848934 451 125 451.018884 120.451078 461.468578"></polygon>
                    <polygon id="Fill-90" fill="#161616" points="186.735904 550 189 552.954277 186.531853 557.761612 182.132536 558 181 555.505127 184.824262 550.018338"></polygon>
                    <polygon id="Fill-91" fill="#161616" points="144.612225 474 142.604141 470.044042 138 465.015131 139.00454 463 146.317351 468.914618 147 473.057822"></polygon>
                    <polygon id="Fill-92" fill="#161616" points="156.064834 520.185502 157 521.001709 155.071409 523.545033 157 526.607762 154.441604 528 146 521.689041 150.851612 523.656334 153.161903 522.803027 152.034883 521.689041 152.417587 520"></polygon>
                    <polygon id="Fill-93" fill="#161616" points="108.576733 331 106 323 109.141089 323.97082 111.700186 326.656857 112 329.990106"></polygon>
                    <polygon id="Fill-94" fill="#161616" points="129.078141 424 126.003575 422.215805 125 419.431223 127.540858 416 130 420.686348"></polygon>
                    <polygon id="Fill-95" fill="#161616" points="133.584718 423.7148 132 411 133.226495 412.111688 136 422.871451 134.093773 425"></polygon>
                    <polygon id="Fill-96" fill="#161616" points="241.323857 559 236.276393 557.393101 235 555.655567 235.361678 554 242.599249 556.5 243 557.782445"></polygon>
                    <polygon id="Fill-97" fill="#161616" points="161.112455 553 156 550.003684 158.059492 548 163.448609 549.284282 164 552.085141"></polygon>
                    <polygon id="Fill-98" fill="#161616" points="333.2696 604 334 608.144494 332.595852 609 328 608.494474 328.499747 604.817642"></polygon>
                    <polygon id="Fill-99" fill="#161616" points="165 460 166.500247 455.010301 171 453 168.300345 459.634666"></polygon>
                    <polygon id="Fill-100" fill="#161616" points="138.96825 430 138 424.253041 141.64033 424 143 428.036329"></polygon>
                    <polygon id="Fill-101" fill="#161616" points="111.088377 323 108 320.395418 112.687681 315 113 317.679478"></polygon>
                    <polygon id="Fill-102" fill="#161616" points="120.719779 393 120 392.561913 120.772378 389.087105 122.456475 388 126 388.649018"></polygon>
                    <polygon id="Fill-103" fill="#161616" points="129 356 129.079167 348 133 353.228637"></polygon>
                    <polygon id="Fill-104" fill="#161616" points="111 454 112.053118 447.028929 114.317424 446 115 447.238322 113.848345 451.962179"></polygon>
                    <polygon id="Fill-105" fill="#161616" points="137.37472 434 134.341062 431.953447 134 427.713266 136.085266 427 138 431.386295"></polygon>
                    <polygon id="Fill-106" fill="#161616" points="340.25581 602.509617 340 605.362096 341.369123 606 343.081427 605.277395 345 601.788777 342.379751 601"></polygon>
                    <polygon id="Fill-107" fill="#161616" points="236.462356 585.325382 238 587.604281 230.762521 589 229 587.162691 233.143452 585"></polygon>
                    <polygon id="Fill-108" fill="#161616" points="112.497502 405.618729 111 402.480085 112.050837 400.121313 114.888334 400 115 406"></polygon>
                    <polygon id="Fill-109" fill="#161616" points="182.923938 566 181 562.531173 183.781475 561 187 562.110521 186.877626 563.390188"></polygon>
                    <polygon id="Fill-110" fill="#161616" points="121 461.02383 125.846001 455 126.791902 455.582346 127 458.396362 121.075672 462"></polygon>
                    <polygon id="Fill-111" fill="#161616" points="239.373266 554 236.273825 551.562711 236 550.014601 240.366781 549 241 551.04605"></polygon>
                    <polygon id="Fill-112" fill="#161616" points="144.875 528 144 525.734626 144.571 522 149 524.88225"></polygon>
                    <polygon id="Fill-113" fill="#161616" points="156.010892 499.961264 154.891277 500 153.80993 498.623853 154.798057 497.810398 152.820822 496.782875 147 497.190622 151.682563 495 155.582082 496.163099 157 497.829766"></polygon>
                    <polygon id="Fill-114" fill="#161616" points="147.091304 450 145.31413 449.2 143 443 147.132609 445.865641 148 447.737436"></polygon>
                    <polygon id="Fill-115" fill="#161616" points="307.113861 632.150831 307 634.283304 312.126734 633.490449 313.284319 636 313.778715 634.773505 315.677394 634.811213 316 632"></polygon>
                    <polygon id="Fill-116" fill="#161616" points="329.281506 593.085577 333.565599 594.390622 335 598 328 594.255126 328.076448 593"></polygon>
                    <polygon id="Fill-117" fill="#161616" points="120.808431 472 119 468.042851 124 467 122.315613 471.208976"></polygon>
                    <polygon id="Fill-118" fill="#161616" points="147.044891 430 144.444938 429.408937 143 427.168175 145.711012 425 148 427.150264"></polygon>
                    <polygon id="Fill-119" fill="#161616" points="113.889513 320 113 319.101873 114.212972 316 118 316.604568"></polygon>
                    <polygon id="Fill-120" fill="#161616" points="120.457975 465 120 462.500444 125 460 122.988891 464.24027"></polygon>
                    <polygon id="Fill-121" fill="#161616" points="310 622 310.75577 616.916841 312.224369 616 314 620.055332"></polygon>
                    <polygon id="Fill-122" fill="#161616" points="243.960467 594 243 593.313627 243.613027 592.058116 248 590 247.486242 592.629259"></polygon>
                    <polygon id="Fill-123" fill="#161616" points="139 512.300745 136.924772 516 134 515.634879 137.660183 511"></polygon>
                    <polygon id="Fill-124" fill="#161616" points="323.032805 636 324 635.789532 323.032805 632.423163 319 632"></polygon>
                    <polygon id="Fill-125" fill="#161616" points="144.802813 454 142 453.228138 143.048664 449 146 452.495831"></polygon>
                </g>
            </g>
        </g>
    </g>
</svg>
