<?xml version="1.0" encoding="UTF-8"?>
<svg width="147px" height="27px" viewBox="0 0 147 27" version="1.1" xmlns="http://www.w3.org/2000/svg" xmlns:xlink="http://www.w3.org/1999/xlink">
    <!-- Generator: sketchtool 53.1 (72631) - https://sketchapp.com -->
    <title>BC40AF77-5AB0-4C3E-9B12-1869B2CCD0CA</title>
    <desc>Created with sketchtool.</desc>
    <g id="Desktop" stroke="none" stroke-width="1" fill="none" fill-rule="evenodd">
        <g id="Desktop/tour-page" transform="translate(-847.000000, -3297.000000)">
            <g id="share" transform="translate(447.000000, 3251.000000)">
                <g id="Group" transform="translate(0.000000, 46.000000)">
                    <g id="subscribe" transform="translate(400.000000, 0.000000)">
                        <rect id="Rectangle-9" fill="#2B3740" x="0" y="0" width="147" height="27" rx="13.5"></rect>
                        <text id="отправить-по-почте" font-family="ProximaNova-Regular, Proxima Nova" font-size="11" font-weight="normal" fill="#FFFFFF">
                            <tspan x="34" y="17">отправить по почте</tspan>
                        </text>
                        <path d="M21.588,16.31 L21.588,15.806 C21.121331,16.2446689 20.5426701,16.464 19.852,16.464 C18.9093286,16.464 18.1580028,16.1606697 17.598,15.554 C17.0379972,14.9473303 16.758,14.1493383 16.758,13.16 C16.758,12.226662 17.0986633,11.4426698 17.78,10.808 C18.4613367,10.1733302 19.3246614,9.856 20.37,9.856 C21.4526721,9.856 22.3953293,10.1079975 23.198,10.612 L23.198,14.812 L23.478,14.812 C23.870002,14.812 24.1943321,14.5996688 24.451,14.175 C24.707668,13.7503312 24.836,13.1880035 24.836,12.488 C24.836,11.3679944 24.4230041,10.4230039 23.597,9.653 C22.7709959,8.88299615 21.6766735,8.498 20.314,8.498 C18.9513265,8.498 17.8103379,8.92266242 16.891,9.772 C15.9716621,10.6213376 15.512,11.7506596 15.512,13.16 C15.512,14.5040067 15.9763287,15.6169956 16.905,16.499 C17.8336713,17.3810044 18.9699933,17.822 20.314,17.822 C20.8460027,17.822 21.3499976,17.7660006 21.826,17.654 L21.896,19.152 C21.3453306,19.2733339 20.8180025,19.334 20.314,19.334 C18.4939909,19.334 16.9866726,18.7530058 15.792,17.591 C14.5973274,16.4289942 14,14.952009 14,13.16 C14,11.4239913 14.601994,9.96333926 15.806,8.778 C17.010006,7.59266074 18.5126577,7 20.314,7 C22.0500087,7 23.4873276,7.50632827 24.626,8.519 C25.7646724,9.53167173 26.334,10.8546585 26.334,12.488 C26.334,13.5053384 26.0563361,14.3873296 25.501,15.134 C24.9456639,15.8806704 24.1780049,16.2726665 23.198,16.31 L21.588,16.31 Z M20.146,14.966 C20.7060028,14.966 21.1866647,14.7466689 21.588,14.308 L21.588,11.676 C21.1586645,11.4706656 20.748002,11.368 20.356,11.368 C19.7679971,11.368 19.308335,11.5476649 18.977,11.907 C18.645665,12.2663351 18.48,12.7073307 18.48,13.23 C18.48,13.771336 18.6316651,14.1959985 18.935,14.504 C19.2383349,14.8120015 19.6419975,14.966 20.146,14.966 Z" id="@" fill="#CE212B"></path>
                    </g>
                </g>
            </g>
        </g>
    </g>
</svg>