<?xml version="1.0" encoding="UTF-8"?>
<svg width="94px" height="27px" viewBox="0 0 94 27" version="1.1" xmlns="http://www.w3.org/2000/svg" xmlns:xlink="http://www.w3.org/1999/xlink">
    <!-- Generator: sketchtool 53.1 (72631) - https://sketchapp.com -->
    <title>B4A04549-395B-45B7-97CB-B0A60DD346B7</title>
    <desc>Created with sketchtool.</desc>
    <defs>
        <linearGradient x1="60.9391873%" y1="47.3753677%" x2="80.0892402%" y2="73.4847461%" id="linearGradient-1">
            <stop stop-color="#EFF6FB" offset="0%"></stop>
            <stop stop-color="#FFFFFF" offset="100%"></stop>
        </linearGradient>
    </defs>
    <g id="Desktop" stroke="none" stroke-width="1" fill="none" fill-rule="evenodd">
        <g id="Desktop/tour-page" transform="translate(-647.000000, -3297.000000)">
            <g id="share" transform="translate(447.000000, 3251.000000)">
                <g id="Group" transform="translate(0.000000, 46.000000)">
                    <g id="telega" transform="translate(200.000000, 0.000000)">
                        <rect id="Rectangle-9" fill="#37AEE2" x="0" y="0" width="94" height="27" rx="13.5"></rect>
                        <text id="Telegram" font-family="ProximaNova-Regular, Proxima Nova" font-size="11" font-weight="normal" fill="#FFFFFF">
                            <tspan x="34" y="17">Telegram</tspan>
                        </text>
                        <g id="Group-9" transform="translate(14.000000, 8.000000)">
                            <path d="M5.44550112,10.9343854 C5.09601798,10.9343854 5.15543371,10.7814688 5.03489438,10.3958438 L3.2824707,6.45996094 L11.9174112,1.03855208" id="Fill-1" fill="#C8DAEA"></path>
                            <path d="M5.44550112,10.9343854 C5.71516404,10.9343854 5.83435506,10.7914687 5.98482697,10.6218854 L7.42302921,9.00126042 L5.44550112,7.26342773" id="Fill-3" fill="#A9C9DD"></path>
                            <path d="M12.0754122,0.1275 L0.604648855,4.5845 C-0.178328244,4.9011 -0.173763359,5.3413 0.461946565,5.5373 L0.461946565,5.5373 L3.40560305,6.4632 L10.2204809,2.1307 C10.5421069,1.9341 10.8374351,2.0398 10.5950992,2.2565 L10.5950992,2.2565 L5.07307634,7.2781 L9.87225954,10.8509 C10.4198473,11.1553 10.8151069,10.9977 10.9515573,10.3386 L10.9515573,10.3386 L12.9049313,1.0623 C13.0643053,0.4186 12.7757252,0.0551 12.386916,0.0551 L12.386916,0.0551 C12.2876794,0.055 12.1818931,0.0787 12.0754122,0.1275" id="Fill-6" fill="url(#linearGradient-1)"></path>
                        </g>
                    </g>
                </g>
            </g>
        </g>
    </g>
</svg>