<?xml version="1.0" encoding="UTF-8"?>
<svg width="98px" height="27px" viewBox="0 0 98 27" version="1.1" xmlns="http://www.w3.org/2000/svg" xmlns:xlink="http://www.w3.org/1999/xlink">
    <!-- Generator: sketchtool 53.1 (72631) - https://sketchapp.com -->
    <title>3107D754-3D8D-4A3E-8E04-8755D41314F2</title>
    <desc>Created with sketchtool.</desc>
    <g id="Desktop" stroke="none" stroke-width="1" fill="none" fill-rule="evenodd">
        <g id="Desktop/tour-page" transform="translate(-745.000000, -3297.000000)">
            <g id="share" transform="translate(447.000000, 3251.000000)">
                <g id="Group" transform="translate(0.000000, 46.000000)">
                    <g id="twitter" transform="translate(298.000000, 0.000000)">
                        <rect id="Rectangle-9" fill="#1DADEB" x="0" y="0" width="98" height="27" rx="13.5"></rect>
                        <text id="Твитнуть" font-family="ProximaNova-Regular, Proxima Nova" font-size="12" font-weight="normal" fill="#FFFFFF">
                            <tspan x="35" y="17">Твитнуть</tspan>
                        </text>
                        <path d="M27.4444444,9.29135028 C26.9498233,9.51042343 26.4181628,9.65848573 25.8602856,9.72499966 C26.4296578,9.38417447 26.8670728,8.84447865 27.0730417,8.20135399 C26.5400367,8.51700994 25.9497583,8.74615078 25.3214322,8.8696479 C24.8183411,8.33438187 24.1014833,8 23.3081267,8 C21.7848711,8 20.5497972,9.23302474 20.5497972,10.7539186 C20.5497972,10.9697701 20.5741989,11.1799836 20.6212544,11.381539 C18.3288422,11.2667001 16.2963783,10.1702605 14.9360022,8.50405616 C14.6985733,8.91079123 14.5625156,9.383906 14.5625156,9.88863334 C14.5625156,10.8441252 15.0494733,11.6870601 15.78959,12.1809143 C15.3374533,12.1666182 14.9121383,12.0427184 14.540265,11.8364648 C14.5399961,11.8479419 14.5399961,11.8594191 14.5399961,11.8710976 C14.5399961,13.2054034 15.4907872,14.3184883 16.7526156,14.5715232 C16.5211694,14.6344799 16.2774889,14.6681731 16.0259433,14.6681731 C15.8482078,14.6681731 15.6753794,14.6508566 15.5069878,14.6187071 C15.857955,15.7127976 16.8765733,16.5090855 18.0836156,16.5312345 C17.1396139,17.2699352 15.9503183,17.7102292 14.6579711,17.7102292 C14.4353311,17.7102292 14.2157833,17.6971412 14,17.6717035 C15.2206883,18.4530912 16.6705372,18.9090909 18.2282106,18.9090909 C23.3016733,18.9090909 26.0761361,14.7126052 26.0761361,11.073266 C26.0761361,10.9538631 26.07338,10.8351313 26.0680694,10.7170037 C26.6070572,10.3286589 27.074655,9.84366428 27.4444444,9.29135028" id="Fill-2" fill="#FFFFFF"></path>
                    </g>
                </g>
            </g>
        </g>
    </g>
</svg>