<?xml version="1.0" encoding="UTF-8"?>
<svg width="96px" height="27px" viewBox="0 0 96 27" version="1.1" xmlns="http://www.w3.org/2000/svg" xmlns:xlink="http://www.w3.org/1999/xlink">
    <!-- Generator: sketchtool 53.1 (72631) - https://sketchapp.com -->
    <title>18F5B9A5-44D3-4E19-B538-3861ECE35F19</title>
    <desc>Created with sketchtool.</desc>
    <g id="Desktop" stroke="none" stroke-width="1" fill="none" fill-rule="evenodd">
        <g id="Desktop/tour-page" transform="translate(-547.000000, -3297.000000)">
            <g id="share" transform="translate(447.000000, 3251.000000)">
                <g id="Group" transform="translate(0.000000, 46.000000)">
                    <g id="vk" transform="translate(100.000000, 0.000000)">
                        <rect id="Rectangle-6" fill="#5181B8" x="0" y="0" width="96" height="27" rx="13.5"></rect>
                        <text id="Нравится" font-family="ProximaNova-Regular, Proxima Nova" font-size="11" font-weight="normal" fill="#FFFFFF">
                            <tspan x="34" y="17">Нравится</tspan>
                        </text>
                        <path d="M25.7246746,10.4875158 C25.8081315,10.2065263 25.7246746,10 25.3276444,10 L24.0148379,10 C23.68101,10 23.5271303,10.1783895 23.4436733,10.3750632 C23.4436733,10.3750632 22.7761112,12.0191263 21.8303279,13.087 C21.5243503,13.3961263 21.3852866,13.4945579 21.2182788,13.4945579 C21.1349156,13.4945579 21.0141374,13.3961263 21.0141374,13.1151368 L21.0141374,10.4875158 C21.0141374,10.1502526 20.9171773,10 20.6390498,10 L18.5760683,10 C18.3675196,10 18.2420528,10.1565053 18.2420528,10.3048632 C18.2420528,10.6246 18.7148507,10.6983053 18.763612,11.5975474 L18.763612,13.5506421 C18.763612,13.9789474 18.6870942,14.0565368 18.5201802,14.0565368 C18.0751388,14.0565368 16.9925423,12.4052737 16.3504862,10.5156526 C16.2246443,10.1483579 16.0984274,10 15.7629115,10 L14.4501051,10 C14.0750175,10 14,10.1783895 14,10.3750632 C14,10.7263474 14.4450414,12.4687474 16.072265,14.7732211 C17.157112,16.3468947 18.6855938,17.2 20.0764185,17.2 C20.9108946,17.2 21.0141374,17.0105263 21.0141374,16.6841579 L21.0141374,15.4947368 C21.0141374,15.1157895 21.0931871,15.0401895 21.3574363,15.0401895 C21.5521067,15.0401895 21.8859347,15.1385263 22.664804,15.8972737 C23.5548868,16.7965158 23.7017336,17.2 24.2023817,17.2 L25.5151882,17.2 C25.8902757,17.2 26.0778195,17.0105263 25.9696067,16.6366 C25.8512666,16.2639053 25.4261986,15.7232421 24.8623482,15.0822526 C24.5563706,14.7169474 24.0973572,14.3236 23.9582935,14.1268316 C23.7635292,13.8739789 23.8192297,13.7614316 23.9582935,13.5366211 C23.9582935,13.5366211 25.5577606,11.2603789 25.7246746,10.4875158" id="Fill-1" fill="#FFFFFF"></path>
                    </g>
                </g>
            </g>
        </g>
    </g>
</svg>