<?xml version="1.0" encoding="UTF-8"?>
<svg width="182px" height="464px" viewBox="0 0 182 464" version="1.1" xmlns="http://www.w3.org/2000/svg" xmlns:xlink="http://www.w3.org/1999/xlink">
    <!-- Generator: Sketch 53.1 (72631) - https://sketchapp.com -->
    <title>chilie map</title>
    <desc>Created with Sketch.</desc>
    <g id="Desktop" stroke="none" stroke-width="1" fill="none" fill-rule="evenodd">
        <g id="Desktop/landing-page" transform="translate(-630.000000, -6206.000000)" fill="#161616">
            <g id="contact-us" transform="translate(513.000000, 6206.000000)">
                <g id="chilie-map" transform="translate(117.000000, 0.000000)">
                    <polygon id="Fill-1" points="21 87.8462576 17.4196814 89 16 86.7437626 18.1606372 86"></polygon>
                    <polygon id="Fill-2" points="45 59.0948814 44.5661417 60 43.7874016 58.457397 40.5244094 56.9436642 40 55 42.4850394 55.2083333"></polygon>
                    <polygon id="Fill-3" points="36.0470722 40.2796284 33.9316739 40.8847015 36.2909921 42.2468398 39.6131517 40.0320984 42.0808787 39.8395752 43.423151 40.7609365 42.9895157 44.2010234 44.4672991 46.5540052 43.4916197 48.2056522 45.5121603 49.9390854 46 51.4532157 45.5385493 52.9934019 40.2507667 54.3425123 39.8028671 57.0805406 41.2271593 58.360169 39.1388631 59.2409991 38.0676129 58.2639074 38.4334926 57.2180573 37.2944868 58.4564306 37.5248556 60.8781707 43.4773554 66.0386629 43.6000285 68.060881 41.3626703 68.2266247 40.5488909 69.630018 43.6399686 74.4459948 38.0676129 74.7485314 38.352186 76.9914999 39.7215605 78.8769251 39.3285786 81.2574102 36.4001141 82 34.7047999 80.8166333 28.3857072 79.7295282 26 77.9410884 30.3926967 68.3641413 30.935454 60.1493326 29.7557949 58.1401424 30.4875544 51.0949487 32.3454818 48.6732087 33.5928964 42.6463618 32.643606 40.0320984 33.281221 39 35.5321304 39.2062749"></polygon>
                    <polygon id="Fill-4" points="37.7869098 0 37.1802922 3.88142411 37.8841428 6.24428281 33 18.0549434 33.4281153 20.9692811 35.6622968 27.8209901 35.4141351 31.384896 38.4218266 34.3820646 41.346072 34.4380117 42.7399865 32.4348132 41.4570917 34.8245556 39.0705302 35.2249047 37.8696304 38.5679283 42.4780379 39.9077535 44.6708591 39.0932502 48.657411 39.465989 51.3342202 37.0348312 50.3959946 34.1197669 51.6099555 32.2001258 53.7483553 31.481532 56.3141447 32.3519824 58.8523607 36.5923401 60.7563854 37.3799597 64.17768 35.9987191 65.3089203 30.5006404 66.0265577 30.2383428 65.2261997 35.9020831 62.756192 37.5732317 59.2521769 37.8776713 55.0726103 43.236972 57.4178115 45.2263653 59.8870937 45.5991041 61.8462655 44.0514753 63.0464396 44.3137729 62.4804567 48.2511442 63.8330108 56.801612 63.198094 57.0224942 61.4319369 51.2628445 60.2317628 49.8816039 57.3488777 50.8065483 55.4310662 52.6440851 58.659346 57.6720624 61.5015964 59.689066 56.4106521 58.0862166 55.2794118 60.0211159 55.1966912 65.1864181 55.7757353 67.5216665 57.5143189 69.2342305 57.4591718 72.867162 55.4310662 71.9000757 53.7759288 74.8427502 54.1488971 77.9365548 50.8647446 79.9949738 50.1891931 83.4622437 51.6926761 87.2056164 51.637529 91.3224545 53.4718943 90.5348349 55.0450368 91.5433368 55.3490712 90.6176658 55.3490712 91.7358821 62.0806405 93.0488236 64.4947755 89.6781897 65.4330012 90.0509285 67.0329915 93.7114703 69.5712074 95.203152 70.0820433 97 72.8270608 96.6955603 73.1027961 95.6042277 75.8623259 94.2505974 78 94.9139707 75.8485391 92.1086209 75.8485391 91.3224545 77.9042183 90.1068756 77.9317918 87.7309383 73.3371711 83.7245414 74.1237423 80.2710766 77.1727941 79.5255991 77.1865809 76.2646797 75.3101296 75.1050479 71.0478425 74.3450386 69.4057663 71.6929986 70.0820433 67.6589913 69.3506192 60.6285421 71.1994969 54.7439195 69.5160604 52.5336439 71.7371807 48.527247 72.8270608 48.4030007 73.903154 49.6461899 77.4485294 47.50494 76.2490809 41.3442147 73.7652864 35.8599411 75.0343943 33.1664856 74.0685952 28.1247032 75.269495 17.6952832 73.0752225 11.7830503 74.8551664 9.62872188 75.2825561 6.72673613 68.6337074 6.63082674 64.7980844 11.6311938 60.9631869 10.0980966 54.8237229 5.09772961 52.906637 1.64426484 49.8307372 0.497711628 46.7541118 2.80462319 44.8363003 2.41735268 43.6774865 0.497711628"></polygon>
                    <polygon id="Fill-5" points="62.587484 92.3739571 55.8717035 91.0604485 55.99548 91.8073883 52.6375898 92.6917883 50.2981413 98.5131189 47.5048457 101.001949 47.4498339 102.730747 49.9000298 105.081389 54.3994145 106.587633 54.3994145 107.362938 58.0186107 110.363789 60.6475948 108.234246 60.5230945 110.819807 57.5365338 118.548853 50.1743648 123.830525 45.6199683 124.480733 45.0553737 126.237169 46.9822338 129.472212 46.2801097 130.592258 44.2157202 130.951545 43.9269083 132.39015 44.3677264 133.344371 45.7705269 133.565471 48.5232875 132.431606 52.0599661 135.929932 54.014332 136.855788 56.1612392 136.580141 55.4316093 138.529312 52.7613663 137.810737 48.8388814 133.703658 42.9772312 138.004199 41.6974835 147.046753 45.1646734 143.41024 46.760739 143.050952 49.4447349 143.964445 45.4122264 144.696838 42.4263896 147.945699 40.0319294 152.743715 40.9128417 155.674745 39.5918351 162.215378 44.7245792 155.399097 35.93138 170.428807 33.5919316 169.1713 37.2248808 164.262007 38.1195461 160.141838 35.5738035 157.237718 34.2390439 157.362814 33.1243315 159.352714 36.1376742 163.156507 33.3718845 161.52444 32.559013 158.910514 26.9586688 160.818957 23.985861 158.509771 27.371981 160.362938 31.9951422 158.440677 34.00452 155.81366 33.9220023 154.389601 32.3947015 152.881903 31.9813893 156.117672 30.316559 157.210081 31.5137891 155.59256 32.3396897 151.80404 31.307495 148.692639 30.4265826 147.655506 27.3024924 148.692639 26.2710215 147.475862 20.271118 148.443902 17.3945809 156.505324 14.7525676 159.408717 12.1793191 159.408717 10.004906 161.814634 9.61982354 164.89767 8.69765235 163.736895 7.39039867 164.441651 6.04116232 165.920985 6.17941562 166.916662 2.83527832 169.558225 1.33475956 169.502223 0.110023565 171.341572 0 175.89085 2.79401948 180.135388 4.34882617 180.536132 7.19785744 178.323677 5.68358574 173.636939 4.62460893 173.277651 1.5142717 175.5592 2.18816603 173.29147 5.43603272 171.769953 10.1974473 171.106653 12.2893427 169.598954 14.9588618 165.852618 15.0551324 167.760333 12.3573836 171.1612 13.7203729 174.674072 23.6007785 179.002251 24.908756 177.757836 21.288836 177.259633 21.3576007 175.642112 26.8211393 175.088635 28.2659225 175.697387 28.637252 178.102577 30.7711301 181.40744 32.7385251 181.089609 34.6784143 182.79077 30.8941827 187.975711 31.4175185 191.819505 30.0965119 187.961892 27.2199747 188.127717 23.1324545 194.335973 27.4957575 199.244538 30.1790296 198.843795 32.2434191 197.405917 32.5459839 199.742741 28.4316816 200.115847 27.619534 201.512995 28.4722166 203.185792 30.0132704 203.475985 28.1146401 203.227248 25.1005734 198.027761 22.8718724 197.640836 21.6196305 198.291045 18.9363584 202.384304 21.3300948 204.139285 25.8439563 203.406892 32.270925 204.582213 32.766031 205.812809 34.720397 206.337921 37.9132519 204.568394 38.7521816 200.198759 37.8850222 198.995801 38.7796875 197.142634 40.1151709 200.102028 38.5589165 202.148658 39.0279643 204.38875 43.7336432 209.822428 46.3488744 209.754062 48.5507934 210.914837 43.4318023 210.390452 41.82126 208.163451 40.1832118 208.163451 40.3627239 210.390452 43.4723373 214.427709 45.6597795 215.755036 47.2160338 214.496075 47.3665924 212.92001 47.6278984 213.570219 47.4078512 215.353565 46.1418564 216.625618 43.3485608 215.989955 42.1513307 218.049676 41.3666889 214.869909 37.8719931 211.703233 34.1420494 212.229073 31.9271013 210.707556 26.9999276 210.984658 29.8077 217.469289 29.2155995 217.648932 28.0046165 216.390699 26.5873392 211.495952 23.1194254 209.573691 21.0550359 210.846471 20.7669479 213.085835 23.8490554 214.676446 28.2528933 219.142085 31.1004769 220.234493 28.8855288 221.174896 33.0280608 222.999698 32.5329548 226.968589 29.5044114 224.867411 25.6658919 228.876304 27.3024924 232.305536 30.1102648 231.697511 32.1884073 232.789919 49.7480235 248 51.5098482 242.455044 53.3664959 239.786571 57.8115927 238.278873 61.610301 234.448897 60.9364067 224.769953 66.8805746 221.064346 66.2891979 213.127292 62.5049663 209.684241 62.1054071 208.356913 66.1241626 199.037257 66.5367509 196.41024 65.5320621 195.622571 65.7115742 194.80581 67.5414398 193.685764 69.4400701 193.685764 72.2196128 189.815059 75.1511618 188.113898 75.2619092 185.83235 73.0324843 182.804589 73.7613904 176.540331 76.2253392 175.669022 78.9766522 172.752539 77.5325929 160.321482 74.4910204 157.541731 77.1467866 156.628966 80.3121356 152.674621 79.4312232 150.047604 77.3943396 149.079564 76.6372037 145.705607 77.4500752 140.92141 82.9954076 138.654408 86.2982861 133.841846 85.6924327 131.782125 80.7384769 124.674196 71.2569066 122.628293 70.9688186 119.461618 71.6419891 118.548853 75.6744975 119.613624 77.036763 118.590309 79.3349526 119.351068 82.4995778 118.27175 84.880285 119.724174 86.6833686 119.779449 87.7018104 118.35539 88.4032106 114.082487 90 112.520241 88.2939109 109.630667 84.2751554 108.814634 76.8854806 109.021915 75.4269445 108.040057 76.5271802 106.837098 76.1153156 102.28782 79.472482 96.1762954 78.4677932 94.240943 76.3353628 93.5769157 73.5826021 94.9318806 73.3075432 96.0242892 70.5692594 96.329029 70.0596765 94.5304095 67.5276869 93.0379844 65.9316213 89.3731063 64.9949733 89"></polygon>
                    <polygon id="Fill-6" points="55.1579993 119.321655 50.1742413 124.174621 47.503303 125 45.0312422 121.713195 47.0144539 120.748046 48.8120002 121.05554 47.0805146 120.021241 45.38797 120.803954 44 116.762391 44.8991208 115.363954 47.5297273 114.901977 48.4288482 110.385195 52.7387871 109 57.0348185 111.867494 58 113.671264 56.1099687 116.608644 53.108727 115.699402 55.7789699 117.55908"></polygon>
                    <polygon id="Fill-7" points="10.6178335 231.692593 9.89735558 232 9.01078167 229.847417 8.27719094 225.554754 8.76236614 223.806654 6.76775698 222.604973 4.74546514 223.471301 3.59590588 222.884434 4.02571574 221.863667 6.83696365 220.940711 7.72280906 219.654456 3.94193924 220.451655 3 213.642374 4.51016245 211.811171 7.3767757 211 12.916952 225.946734 13 229.078165"></polygon>
                    <polygon id="Fill-8" points="21.2141167 231 18.753972 229.351503 13.7206409 228.454404 13 225.882442 15.2050571 223.098868 16.7742546 223.006591 18.4996282 225.446728 19.4612264 224.33871 17.3967277 220.830103 18.8952742 215 20.0970861 219.933004 21.9355013 222.993409 21.7518085 227.715494 22.7409235 228.968518 23.1090528 227.927106 24 228.296214 23.5894801 230.234725"></polygon>
                    <polygon id="Fill-9" points="13.5702663 224 10.181213 217.627054 9 213 13.3032544 213.762189 18 216.241852 17.3106509 221.602676"></polygon>
                    <polygon id="Fill-10" points="39.4222115 134 37.4010906 132.713874 33.9373965 132.798625 31.6421866 130.141623 29.2892739 130.734876 29 128.063749 30.2854086 126.749373 37.054873 126 40 129.717127"></polygon>
                    <polygon id="Fill-11" points="27.634996 211 24 209.048154 28.1316618 206 35.5009869 208.230086 37.2045879 207.570219 38 208.110741 37.5884769 209.865529 36.5518272 210.31446 31.7808482 209.918263"></polygon>
                    <polygon id="Fill-12" points="27.8876077 121 25.5355541 119.431228 25 115.799287 28.2148907 115 33.4545519 115.204024 36 117.25191"></polygon>
                    <polygon id="Fill-13" points="12.6061604 156.640786 12.1552693 154.785732 14.7846765 154.067305 14.1913987 153.305016 12.7221038 153.491807 12 150.142425 12.6963386 149.740106 14.9263851 150.903958 19 148 17.5178225 154.714646 15.2620108 157"></polygon>
                    <polygon id="Fill-14" points="1.94045082 231.841246 5.41807783 229.602735 3.4476842 230.310672 1 229.660463 1.59739823 224.331941 7.5666704 224 8 229.140904 4.25389705 232"></polygon>
                    <polygon id="Fill-15" points="24.8210932 147 24 145.674646 25.0124759 144.375784 24.6451447 140.545433 26.1414791 138 28.635627 139.338601 30 143.143156 29.4428296 144.362538"></polygon>
                    <polygon id="Fill-16" points="16.4097116 213 13.6174356 211.935099 13.7555951 210.971618 12.8291993 210.49631 10.8520643 211.96386 9 211.776916 10.6862729 209.59035 13.2720368 208.870577 17.5433465 205 18 212.022138"></polygon>
                    <polygon id="Fill-17" points="39.6111416 147 37.0555251 144.432765 37 140.526136 39.0003653 138 41 138.809508"></polygon>
                    <polygon id="Fill-18" points="27.6790602 127 26 126.55821 26.1840066 125.506254 29.8656224 122 33.8432811 123.036722 35 124.698044"></polygon>
                    <polygon id="Fill-19" points="38.71142 118 37.0750276 116.408042 37 114.027027 39.8376244 113 42 117.210283"></polygon>
                    <polygon id="Fill-20" points="33.4325718 97 30 95.3770392 30.238762 93.593993 34.9734709 93.0146364 36.0803242 92 38 95.5653301 36.2063375 95.7246531 35.7022845 94.3044671 34.0066323 94.5217259 34.6934414 96.0577832"></polygon>
                    <polygon id="Fill-21" points="33.8732007 136 31.2111558 135.084662 31 132.538434 32.5351397 132 33.661304 133.427559 37.2531753 133.454481 38 134.235211 37.8310754 135.798087"></polygon>
                    <polygon id="Fill-22" points="22.5858891 221 21 217.656905 21.7095185 214 26 218.376774"></polygon>
                    <polygon id="Fill-23" points="38.2211255 160 35 156.42117 35.5045669 155.074764 37.1007661 155 40 156.558893"></polygon>
                    <polygon id="Fill-24" points="26.0566211 113 23.6415528 112.502922 23 110.699553 27.9362582 109 29.0215918 109.314197 30 111.052252 25.8122201 112.006531"></polygon>
                    <polygon id="Fill-25" points="34.3210898 146 32.931195 145.589089 32 143.108274 33.5340576 141 36 143.122227 35.4750819 145.389563"></polygon>
                    <polygon id="Fill-26" points="1.69626873 235 1 234.495225 1.02675249 232.161589 3.58372725 232.79521 6.72855275 230 7.62546515 230.676823 8 232.305593 7.30443528 233.199181"></polygon>
                    <polygon id="Fill-27" points="31 142 32.7382659 137 36.4462428 138.593097 38 138.198141 37.0313295 141.605875 33.0619653 140.011948"></polygon>
                    <polygon id="Fill-28" points="30.1558746 188 29 186.079492 29.8496924 183.126921 32.8719602 183 34 183.999499 31.9387636 187.159152"></polygon>
                    <polygon id="Fill-29" points="36.6704394 125 35.126498 122.997314 35 121.008766 35.9234354 120 36.8601864 120.43051 38 123.535275 37.8601864 124.973137"></polygon>
                    <polygon id="Fill-30" points="27.9871881 225 24 221.923692 26.6668914 220 27.5643965 220.366893 27.2825354 221.91104 29 224.075776"></polygon>
                    <polygon id="Fill-31" points="20 146.303679 20.6512032 143.133947 23 142 22.4336393 146.549439 21.5420491 147"></polygon>
                    <polygon id="Fill-32" points="35.7589689 153 35 151.381404 35.8735303 149.918692 39.4558336 148 40 150.454333 37.8941815 150.232523 36.8623756 152.634666"></polygon>
                    <polygon id="Fill-33" points="10.4561673 207.390168 10.3100584 206.258964 8 205.321121 11.3628114 203 13 205.857367 12.1225777 207.375294 10.0762842 208"></polygon>
                    <polygon id="Fill-34" points="32.7292746 151 31 147.374592 32.4930052 146 33.9409326 146.471431 34 147.401531 33.8375648 149.840919"></polygon>
                    <polygon id="Fill-35" points="26.6069291 122 25.0346454 121.133308 24 118.360805 25.7652821 118 28 121.350551"></polygon>
                    <polygon id="Fill-36" points="26.4312268 137 24.0282528 135.437818 24 134 26.6572491 134.123636 28 136.848"></polygon>
                    <polygon id="Fill-37" points="32.3900508 114 31 113.297949 31 111 33.8257868 112.004584 34 113.66924"></polygon>
                    <polygon id="Fill-38" points="49.4328648 99 47 97.2384201 47.6362094 95.7640934 49.3223461 95 50 95.9012567"></polygon>
                    <polygon id="Fill-39" points="33.028322 108 31.5589864 106.717949 31 104.336996 32.056644 103 34 105.451282 33.004046 105.868864"></polygon>
                    <polygon id="Fill-40" points="40.0836788 102 38 98.4581652 38.5619171 97 40.5414508 98.7904224 41 100.555287"></polygon>
                    <polygon id="Fill-41" points="25.226339 227 24 223 28 225.529491"></polygon>
                    <polygon id="Fill-42" points="26.6918474 133.945432 25 132.347873 25.5684368 130 28 131.583917 27.3889304 134"></polygon>
                    <polygon id="Fill-43" points="23.9073332 118 20.8472392 117.974044 20 117.20765 21.1517157 116 22.2783487 116.038934 24 116.519809"></polygon>
                    <polygon id="Fill-44" points="24.3024919 187 24 184.70059 27 184 26.776419 185.485988"></polygon>
                    <polygon id="Fill-45" points="12.525276 124 11 121.390456 12.3596746 120 14 121.894114 14 123.12574"></polygon>
                    <polygon id="Fill-46" points="34.3202547 109.879009 32.5860723 108.816274 32 107 34.9174199 107.807311 35 110"></polygon>
                    <polygon id="Fill-47" points="26.9482065 115 26 113.392924 27.6672028 112.214152 29.8378639 112 31 113.910457"></polygon>
                    <polygon id="Fill-48" points="31.9531539 226 30.0429423 224.802446 29 223.034862 30.1834806 223 32 224.267278"></polygon>
                    <polygon id="Fill-49" points="40 155 37 153.636275 38.3637088 151 39.5608395 151.829145"></polygon>
                    <polygon id="Fill-50" points="39.2858382 121 38.016474 120.216377 38 118.605597 40.967052 118 41 120.734128"></polygon>
                    <polygon id="Fill-51" points="36.3675937 104 34.5519952 103.443601 34 102.329989 35.5743652 101 37 102.886388"></polygon>
                    <polygon id="Fill-52" points="32.2222779 122 29 120.925049 33.9524048 120 34 121.30046"></polygon>
                    <polygon id="Fill-53" points="14.3168293 205 13.2449417 204.024359 13 202 15.0230897 202.369267 16 203.758487 15.9057367 204.55688"></polygon>
                    <polygon id="Fill-54" points="17.7996994 117 17 115.277596 17.3570086 113 19 114.37224 18.6858324 116.533116"></polygon>
                    <polygon id="Fill-55" points="35.0072147 137 33 136.630416 33 136.24359 36.9855705 136 37 136.554819"></polygon>
                    <polygon id="Fill-56" points="35.9762054 108 34.2974327 107.581737 34 106.216877 36.9048215 106 37 107.596413"></polygon>
                    <polygon id="Fill-57" points="53 90.7808219 54.6156303 90 56 91"></polygon>
                    <polygon id="Fill-58" points="49.6228576 335.684646 48.5164469 335.450148 47.8384884 333.724442 46.9539417 323.993842 45.7646046 322.226755 47.7839316 336.678543 47.0230469 338.113848 42.1413094 333.987255 40.4820569 327.430734 41.4633509 326.823071 44.7549412 333.448561 45.3914365 333.227857 41.7121296 324.946357 43.9809628 322.986152 41.1316459 323.800726 39.471666 325.995429 37.6880241 321.399113 35.4337394 320.723205 35.4475605 313.00726 37.2457508 313.572815 39.2643503 315.891664 41.3389615 320.902528 37.9091608 308.107475 38.6976876 307.568782 39.6382459 309.625545 39.2367083 306.188653 38.3106984 305.995536 35.5166657 308.783383 31.9071914 307.73431 31.0219173 307.030815 30.5520019 303.511159 28.905843 302.282764 28.6847064 298.956225 30.0122538 297.52092 35.3508132 297.189863 36.471045 298.611374 38.4350878 290.716106 40.7577503 290.191207 42.7356142 292.330734 43.3306464 290.964399 40.3707611 289.322183 39.0017505 287.127481 41.3527825 285.374913 41.9754569 282.779457 38.0059081 287.05851 37.0377077 293.863323 34.5899284 296.085614 32.6957183 295.864184 31.2023183 294.111616 27.8692649 285.125894 29.3488438 284.615515 33.1379916 286.755042 35.6963392 287.168863 31.1884972 283.856117 27.8139807 283.552649 20 276.734041 20.3593471 275.035924 22.019327 273.545442 26.6799278 273.131621 29.5285174 277.078892 34.2582234 279.232213 36.153161 279.259801 30.0682654 276.609895 26.2514755 270.192041 26.9148856 268.231837 28.2700751 268.411159 31.1048436 270.812772 35.7101603 272.7178 35.5166657 270.950713 27.1636643 266.409572 26.6937489 264.381124 29.749654 262.848535 32.1145071 262.724388 32.3080017 261.785668 27.6757703 262.503684 27.2327695 258.984028 28.76836 257.424576 31.8242652 256.403092 34.5761074 257.065206 35.8905612 260.336569 38.4765509 262.214009 38.9879295 264.007959 39.2090662 263.041651 38.3237921 260.515891 36.457224 260.019306 36.0287717 256.22377 31.3681708 254.747083 32.1974333 248.121592 35.1711396 250.661145 36.5401502 250.647351 34.6728547 249.708631 33.5664439 247.887093 32.9721391 243.056279 34.6590337 241.027104 36.9133184 241.896128 36.8580342 241.234015 35.6410551 240.585695 32.6811698 240.916752 32.7095393 244.850229 30.579644 249.81971 29.2797386 256.237564 26.1678219 253.076553 25.7393696 239.177252 24.6744219 234.788572 26.0848956 232.166254 27.4815483 232.924926 29.3350228 232 32.2388964 232.649045 49.8854574 247.831917 51.4756047 248.273326 50.5081318 249.377575 44.0493406 249.598279 41.7397717 256.49965 43.0534981 258.445335 44.4094151 264.063135 42.7908983 265.940575 42.2933408 268.618069 43.9525933 270.48099 42.6526879 274.09793 46.6636998 278.058994 47.7424685 280.474402 48.6961204 288.769696 50.5081318 294.084028 52.8453427 293.448777 55.0443432 290.909223 57.7961855 289.460124 60.2854279 291.047163 63.2031226 288.92143 65.5817967 289.266281 67.0897451 290.453294 66.204471 292.882495 68.0986812 296.692552 67.6425868 301.537161 66.3012183 302.26897 65.0980602 304.573299 65.4719558 306.161065 67.9604708 308.631648 66.7442191 310.936703 66.0386185 316.374455 65.0013129 317.285588 67.1864924 323.041328 70.2154829 324.421457 73.6729257 328.051465 74.6403986 332.537429 112.256911 332.551223 122.822733 337.244098 127.303661 337.230304 135.268946 341.592122 143 343.165367 142.889432 344.738613 141.561884 343.041221 133.029209 341.909384 128.907629 339.273272 126.611881 339.30086 122.64306 341.247271 122.228429 344.918661 118.591312 349.583947 115.921669 348.686609 113.889248 349.141812 102.42433 355.256198 96.2288663 356.16733 95.606192 360.901586 96.2150452 364.628153 93.5730439 370.963969 92.6608552 377.505969 93.781087 384.559075 92.9925602 389.832025 91.6097285 391.901855 86.9353066 394 83.6298953 392.316402 78.7896209 391.488034 75.7475368 389.238155 70.6024721 387.415891 67.2003134 383.883168 63.9778284 378.072251 64.5590396 375.283678 67.2970607 372.854477 70.6715773 373.269024 71.0171033 377.533557 68.4034715 379.107529 70.8097877 378.913686 72.6356201 377.630116 72.594157 372.757919 75.4980306 372.136461 77.0881779 378.913686 75.8573777 380.639392 72.7876515 382.433342 72.7738305 383.385856 76.8808623 381.647083 77.7108522 379.990347 78.0287362 371.874375 86.1053167 368.106426 90.0464959 361.232643 89.2994323 358.69309 85.6906854 358.057838 80.6838311 360.791234 74.8891774 364.807475 72.5105033 368.893412 70.8236087 369.169293 68.5416819 366.367653 66.9238926 365.801371 62.7193861 366.878032 62.1665444 367.526351 65.7345556 367.333235 69.1781773 370.797714 66.1906499 372.246814 63.3697025 370.977037 62.4153232 371.474348 62.9136081 372.330304 64.6557869 372.978623 62.7193861 376.77416 61.0739547 376.70519 60.1472175 375.476795 61.9585014 378.6516 63.0649122 378.043937 65.0704181 381.108389 65.015134 382.529901 62.9136081 382.847163 51.8633213 374.17943 50.3699213 373.765609 47.3271098 370.079699 54.3111006 370.190777 58.0449642 374.551869 58.9025963 374.441517 59.2204802 372.730331 57.2986279 370.839097 57.975859 369.486556 59.981365 369.693466 57.6994382 368.76854 56.136933 369.679672 54.43549 368.202985 55.5971849 365.787577 54.1867112 362.778301 54.0208587 360.224953 58.7229227 356.608739 61.4056597 358.250955 64.5866816 358.775854 69.5237034 353.407072 72.7461884 352.937349 74.95901 354.524388 76.9914306 354.814789 79.7578213 354.579564 83.2152641 352.964937 81.8593471 350.563323 70.3122302 349.072842 66.7580401 349.362517 64.6143237 353.669158 62.1389024 351.571014 63.0794606 350.190885 65.1257023 349.362517 64.711071 348.810756 62.1803655 349.859102 57.3677332 350.038424 55.2240168 352.70285 56.980744 352.164883 59.5114495 353.130465 59.5667337 353.876069 57.1880596 356.95359 54.2005323 358.486179 53.122491 360.087013 54.2696375 364.269508 53.6200485 366.933208 49.2358685 368.285749 46.9677627 367.333235 44.3955941 364.890239 48.6139216 361.246437 46.2076054 360.901586 42.2933408 358.402689 43.2891833 357.602635 45.5987521 358.293063 48.6830268 357.919898 48.1985629 355.683813 51.2551955 348.879 52.0851854 348.410003 55.4036903 349.196988 52.9973742 348.037564 50.3146372 348.29965 49.913827 351.184781 48.0327104 354.110567 46.8157313 353.820167 46.0824886 351.446141 42.2656987 354.703711 41.2283932 356.567357 39.6106038 355.794165 39.8179195 351.8331 42.4315512 349.997042 41.4917204 349.693574 40.1503519 346.14633 40.4820569 344.573084 41.6299308 344.821377 42.1413094 343.123985 41.7819623 340.128502 39.0439411 335.725303 38.8780886 333.821 39.9423088 333.931353 42.5974037 338.762167 44.1329943 338.113122 46.9401206 339.756063 48.5448164 339.134606 50.0382163 336.181232 53.5509433 334.869347 53.5371222 338.596639 55.9019753 341.039634 57.5059436 334.594192 55.7215743 339.093224 54.4085753 338.14071 54.3947543 335.40804 56.0125436 331.309035 57.1873322 330.701371 59.3041339 332.261549 59.2204802 334.069293 62.4429653 338.996666 61.6267964 342.875692 54.6842687 347.043668 55.2654799 347.264372 61.5300491 344.55929 63.3005973 342.723232 63.7566917 339.107018 60.1886806 334.234821 59.8431545 331.502151 60.4789225 330.908282 62.7470282 331.267653 63.9640073 330.066846 62.9827133 323.993116 58.9302383 319.438908 54.9199539 318.224308 50.9918682 315.00812 48.5164469 315.628852 48.240026 316.815864 50.273174 316.429632 53.7160684 317.878731 59.0131646 322.917182 62.1389024 324.338693 60.6309539 327.26448 58.7920279 327.430008 56.9254598 325.442942 47.6864569 320.349314 48.8066887 323.386179 51.44869 323.579296 53.3152581 325.705028 52.098279 327.747271 49.5122893 328.658403 51.8771424 328.313552 53.8135431 326.878247 54.6988172 328.189406 50.5081318 330.715165"></polygon>
                    <polygon id="Fill-59" points="138.643758 424.488944 138.506742 427.883199 133.694587 424.983443 136.450056 428.296004 135.39431 429.1621 130.239615 430 118.805249 425.616025 119.312209 421.368687 117.612487 422.440824 117.104805 425.189484 106.58917 426.71491 105.753371 424.612569 107.357182 421.161923 104.930552 425.368053 99.7895588 425.134539 97.1566836 426.289092 95.7309936 425.354317 96.6634252 424.158556 101.530386 421.574728 102.983479 419.004637 101.160442 419.114526 99.8580669 420.557536 100.515745 421.46484 96.4441992 423.045211 94.5519329 422.962794 94.1134809 421.904394 96.9922642 420.983354 95.0733157 421.066494 91.8238675 424.158556 93.1125412 418.839805 92.2623194 418.646777 91.398396 420.296551 89.0128712 421.643409 87.2172374 420.845994 86.6410481 419.994357 87.3679552 417.424266 85.9833701 415.554715 84.6809947 416.640588 83.0764625 421.231327 79.2241428 418.372778 76.5097791 419.980621 73.9735364 419.953149 73 417.025197 73.5206617 413.218137 76.4549726 416.365866 79.3611591 417.382335 81.1849173 416.433824 78.9227071 413.795052 76.3864645 413.437914 75.9891174 412.049848 77.0989489 411.40353 78.2369048 411.431002 80.1428728 414.647411 81.5137563 415.225049 83.0086755 414.317746 80.9793929 413.424178 80.7731474 411.678974 83.7759664 412.860999 85.1605516 412.214681 84.2425428 411.665238 85.3530954 410.592379 93.1536461 413.891205 93.7572387 409.617118 96.19757 408.805967 100.04989 409.685798 98.1302201 413.328026 97.3218243 418.001181 97.9932038 417.203766 99.4744215 418.509416 98.2405542 415.774492 100.529446 411.224961 106.438452 417.025197 109.413868 416.296463 103.326741 412.338306 101.39337 407.898663 95.5254693 406.799055 94.1271825 402.840898 94.8670702 402.607385 105.314198 408.833439 109.317956 412.420722 110.729945 410.538158 108.755469 409.836895 108.166299 408.613662 110.962872 406.455653 112.566683 408.063496 116.447127 416.750476 117.077402 414.139177 114.29453 408.599926 114.787789 407.59647 126.564695 412.874736 127.044973 414.207857 123.384476 419.128262 124.206573 421.161923 126.085138 416.310199 127.332707 415.829436 128.087017 417.602835 128.635082 416.695532 128.525469 413.328026 131.637901 413.795052 131.665305 412.571819 129.827845 411.238697 111.140993 401.49404 108.563646 392.793324 109.194642 389.67379 113.636131 386.800783 116.570442 386.471117 124.645746 381.894114 124.50873 376.630308 120.40906 375.956517 114.143812 376.850085 107.796355 380.821978 103.326741 377.372055 102.65464 374.513507 103.367846 365.812791 105.122375 363.641046 105.424532 366.733831 108.330718 365.950152 110.085247 362.418536 109.85232 361.55244 107.823758 361.19458 106.342541 358.473392 103.874806 358.281087 104.218068 357.332575 109.194642 356.370327 111.881602 359.765305 113.636852 359.779041 117.790608 356.85109 119.737681 353.222598 119.655471 350.226689 123.398177 348 128.580276 355.215774 132.158563 354.006277 135.216188 351.73838 139 353.827708"></polygon>
                    <polygon id="Fill-60" points="18.3690329 272 16.3193588 270.630716 16.8555575 269.576202 19.132112 267.974263 20.2038048 268.726972 18.7974282 267.357689 16.0248371 269.056148 15.3815395 260.866376 16.0516118 256.402698 20.4187071 251.130128 14.8594328 256.580612 14.4176502 254.745296 13.7475779 255.621897 13.7475779 259.12758 14.5515237 260.592664 13.5467677 267.289261 11.1222477 265.769435 8.21507839 259.278122 8.30878985 255.402927 6.84886384 253.334955 5.58974811 254.006272 5 249.801901 6.55434208 248.788444 8.45675533 252.897015 10.6797604 255.375556 7.7599084 249.747158 7.82684516 248.323132 8.72450238 248.090476 10.7607891 250.555331 12.5821737 247.720244 12.1403911 246.487816 15.4217016 250.404789 17.1500793 243.255846 14.4310375 240.093024 12.6892725 235.710739 12.9168575 234.409884 14.297164 233.341684 18.7706535 231 22.5888674 231.931343 22.9235512 233.1364 24.450414 249.541874 22.9503259 256.498498 23.3921085 257.84041 21.5573366 261.852462 22.8164524 260.537921 22.7896776 259.319179 23.9818566 259.059152 25 262.469036 23.767659 268.768029 20.9274265 271.766624"></polygon>
                    <polygon id="Fill-61" points="140.088339 443.059543 137.923718 440.953889 136.639048 441.504732 139.417725 444.449318 143.188735 443.610386 148.118078 445.908582 148.006432 448.274818 150.031495 448.399319 149.207367 450.215437 150.436213 452.252326 152 452.623656 151.762751 455.389453 150.031495 457 146.917143 453.614595 146.372866 450.642503 144.194289 448.825662 141.973844 449.595829 140.633351 448.399319 136.862341 448.344307 134.474426 449.774617 132.701302 448.054771 132.129114 446.926302 132.785037 445.949117 135.787743 445.522774 136.066859 443.789175 133.524696 444.683118 133.231624 444.022975 135.214819 438.806976 130.829753 441.518485 127.53471 439.99118 126.543113 437.004611 123.010086 437.968044 125.63525 438.008579 126.193483 440.059221 124.084684 440.843865 123.777656 442.261146 125.481736 444.862631 125.537559 446.967561 128.665132 447.463392 128.148767 449.871612 125.062326 449.086968 123.010086 449.472052 121.710726 446.472454 123.652054 444.697595 121.69677 443.885445 120.105072 445.261468 119.337502 443.789175 117.535732 442.977025 118.248213 440.761347 121.445565 438.435645 114.463247 441.229672 113.2344 440.059221 114.757054 439.522855 113.542163 438.22935 111 437.761749 113.709633 434.678909 127.646357 431.981877 134.838012 431.761829 136.694871 430.591378 141.205539 430 143.314337 430.825903 144.878124 433.839977 144.640875 434.733921 139.725488 437.335407 136.094771 436.977829 131.094914 433.234122 130.299432 434.059301 135.926566 438.380633 143.788835 438.683923 147.210215 441.532238 147.098569 442.193105"></polygon>
                    <polygon id="Fill-62" points="46.9995476 392.911555 47.9695911 392.242295 48.163454 389.089163 41.7200623 390.413321 43.5632178 388.925438 43.3832022 387.600563 41.4154206 387.559631 41 385.826162 41.6092835 384.829454 43.3832022 385.143259 44.8655977 384.2557 48.0803699 387.395907 53.9829861 387.62785 53.9552914 386.767578 51.5997839 387.273114 47.6372547 386.249117 44.7825136 381.129855 51.0590083 382.522231 49.701239 379.627611 51.6136312 379 54.8422508 379.873915 55.5346184 387.996948 56.864693 383.532583 55.8531075 381.07528 57.2939609 381.593741 59.5255711 385.594219 61.2156769 384.2557 64.1258073 385.102328 64.8043276 387.314045 63.2665427 388.119741 64.0973838 390.304171 65.4828479 388.474478 68.1160313 389.689486 70 392.105858 67.949863 394.454012 65.8713026 394.058345 64.5966173 395.136916 64.624312 397.48507 66.439044 398.358267 66.3559599 399.887798 64.3335176 400.092454 62.2549572 401.867572 60.5087331 400.679134 56.587746 403 52.5975221 401.143738 57.5162474 399.054814 58.4862909 393.402729 57.0308613 392.638681 54.6068458 394.37215 52.8744691 394.263 51.959815 392.365089 50.5189616 398.877446 48.7311955 398.071749"></polygon>
                    <polygon id="Fill-63" points="149.898931 429 162.563656 429.377386 166.659012 430.493392 170 434.680617 169.244896 438.98091 166.449466 442.734949 165.387026 443 162.367343 441.981645 162.703354 439.497063 160.634353 438.101322 158.942537 438.701175 158.160228 441.465492 153.575194 440.557269 154.133986 440.166667 153.505345 438.477239 148.976189 440.236417 148.179911 439.356828 147.075561 431.777533 144.866863 431.972834 144 430.01909"></polygon>
                    <polygon id="Fill-64" points="45.8078898 373.813409 47.3418896 373.634972 50.98631 376.161994 51 377 43.4380798 375.750215 43.1361794 374.472978 35.5749797 367.138257 32.1776997 368.526024 27.1505899 368.086071 25.2325498 364.377894 22.0550302 362.811689 21.8770603 359.474836 19 357.249785 19.8221201 356 20.9728001 356.590216 26.4653697 363.388902 28.6298298 363.883037 30.9859497 362.977123 39.0133297 367.564485 41.1914798 367.221335 42.1504999 368.580206 41.8485995 371.17658 42.7802396 373.456534 43.8213996 372.275379 43.2327299 369.803261 43.7529497 369.431938 46.8079798 372.467543"></polygon>
                    <polygon id="Fill-65" points="87.1480118 398.374259 87.6237113 400.483324 89.2341679 400.832264 91.011782 400.049905 92.5515464 401.390568 93 407.061022 90.3541973 411 85.8740795 408.499388 83.9698085 404.938734 84.0257732 403.807434 85.3276878 403.10882 84.5581738 401.851903 82.9197349 403.206523 81.9963181 406.558548 79.6303387 405.845977 79 404.085851 80.1060383 401.558059 79.60162 397.64773 80.5817378 396.125618 83.4241532 396"></polygon>
                    <polygon id="Fill-66" points="101.445654 406 98.0036276 404.490014 95.5591831 402.204281 94.379081 400.081712 94 394.516947 96.2190649 393.074946 99.5347306 394.013857 99.6189708 392.694229 97.9334274 391.388199 97.8491872 388.340316 99.8014913 386.993494 100.883313 384.408627 102.120314 384 102.134354 389.333615 105 398.707696 104.508599 399.660204 102.429195 399.564309 98.5940481 395.687008 98.7056295 397.56483 101.178893 402.639386"></polygon>
                    <polygon id="Fill-67" points="79.7033641 397.038157 78.6997088 398.051116 80 402.115911 78.459575 404.25126 76.6790162 403.676746 74.5587014 399.146148 74.0211883 399.638589 74.7847097 402.841613 78.2476922 406.564435 76.4663899 410 74.24794 409.75378 74.1483179 407.276458 68.6928939 401.568754 68 396.463643 69.2720401 396.326854 71.873366 397.777538 73.2442847 394.437725 74.176569 394 79.9858745 396.272138"></polygon>
                    <polygon id="Fill-68" points="12.9777703 279.800097 9.45374425 284 7.8030201 283.812869 7.71909734 283.090373 9.78651622 280.027328 5 281.646085 6.67918491 275.319498 8.96772202 275.814763 7.28926687 276.657557 7.7475581 277.660047 11.2015269 278.302343 10.9103514 275.921695 6.49820366 273.300449 6.15156618 272.230424 7.7614236 271 11.4657011 271.895557 14.060009 274.945235 12.6588638 276.509822 16.7513753 275.801396 16.8900303 274.704638 18 274.677905 17.805883 277.245684"></polygon>
                    <polygon id="Fill-69" points="18.92191 305 15.6025864 303.451824 14 299.94025 14.8796319 297.893952 19.5180303 299.04145 21.0355633 298.225548 21.0922656 295.169919 19.6597861 293.580293 20.2126337 293 25.2195971 296.221428 26 302.235244 25.3897041 304.266998 23.8579955 301.43316 21.3332504 302.856987 20.7804029 304.419707"></polygon>
                    <polygon id="Fill-70" points="104.374211 428 105.087667 428.283698 101.452243 429.944075 101.306909 431.43498 97.6450603 431.278947 97.1951522 432.01656 101.74291 433.123727 105.590424 432.726551 106 435.550835 104.942333 436.204086 103.237272 434.600448 102.536333 435.977128 103.831818 436.786412 103.765758 437.62332 100.989818 439 100.341728 438.190715 100.619878 435.862902 99.5489992 434.500407 97.803606 436.075675 92 433.152097 92.383152 429.873897 94.4588487 429.390865 100.011424 430.597326 99.443302 429.561083 101.346545 428.382992"></polygon>
                    <polygon id="Fill-71" points="29.4223168 297 28.1795379 294.990052 27.1533901 295.79103 23.1362116 293.400242 21.9800851 289.922667 24.971876 287.111026 20 285.656975 22.1533901 284 26.242779 286.037815 30 294.51418"></polygon>
                    <polygon id="Fill-72" points="113.888983 434 114.010208 432.60152 113 431.133154 113.431022 428.965179 114.953779 428.321481 118.080817 428 128 431.147131"></polygon>
                    <polygon id="Fill-73" points="35.1697152 357 32 352.884438 33.7719538 349.939908 38.6852307 346 40 348.475347 38.8650469 352.737288 37.3289653 356.01849"></polygon>
                    <polygon id="Fill-74" points="14.490099 316 14 314.854051 18.248685 311.053087 15.615099 312.548187 15.1521504 310.941359 18.1560953 307.531444 21.5443224 307 23 309.739546 22.616414 312.799575 21.2136448 313.875694 20.3135056 311.36034 18.3280476 314.602663"></polygon>
                    <polygon id="Fill-75" points="7.95516399 296 5.23883461 295.082 4 291.917279 5.835485 290.205217 6.96990579 290.574867 6.43292045 288.23231 5.08967202 287.273959 6.14872645 286 13 287.12264 10.7460747 290.109382 9.08958479 289.630206 9.20891486 294.726041"></polygon>
                    <polygon id="Fill-76" points="11 268 8.91361143 265.749808 9.25690151 267.64956 8.46686406 267.605755 5.72524602 263.675604 2.92406166 265.735206 2 260.198104 2.86449534 259.073008 7.17051293 259 10.5830358 265.165742"></polygon>
                    <polygon id="Fill-77" points="13.8332915 337 12 332.248806 14.1051971 327.106578 14.5925182 328.895627 16.6683404 328.210584 16.0529751 324.353179 14.5782074 321.866593 15.8955561 321 17.5134321 321.92172 18 326.128262 15.5799649 334.666299"></polygon>
                    <polygon id="Fill-78" points="8.85866261 243 7.52963526 239.284746 3.87462006 241.963383 1 239.863241 1.36094225 236.497775 2.94984802 236 7.93389058 236.834817 10 241.586688"></polygon>
                    <polygon id="Fill-79" points="14.8261805 249.422155 12.9227708 247.297498 9 245.751392 11.391309 242 14.339787 242.174697 16 243.761117 15.3419383 250"></polygon>
                    <polygon id="Fill-80" points="8.09496608 322 8 318.967463 9.62870403 316.665413 9.96858265 311.387248 11.5701535 310 14 312.274215 13.9864334 314.591311 12.6019279 314.634192 11.1088897 320.140305"></polygon>
                    <polygon id="Fill-81" points="31.041416 346 29.4969921 343.876873 29.3651087 341.334999 30.0120315 340.678225 31.779963 341.40479 31.0282277 339.659271 26 338.024684 27.9268857 336 35 343.737291 34.1948172 344.82677"></polygon>
                    <polygon id="Fill-82" points="3.67782427 249 1 247.15266 2.03417015 244.881264 3.66457462 244.235929 6.92608089 240 8 243.444102"></polygon>
                    <polygon id="Fill-83" points="19.2946519 299 14.417003 297.520741 14 294.34246 15.3380424 292.479156 16.7623613 292 18.3160949 293.246526 20 296.808132"></polygon>
                    <polygon id="Fill-84" points="30.5964158 332 26.5082437 329.941877 24 324 26.5082437 324.898714 32 329.478418"></polygon>
                    <polygon id="Fill-85" points="91.0418899 431 88.0830243 429.106852 85.3258481 430.983408 83.9616124 430.557823 83 428.208396 84.0764318 426 90.7835462 428.081467 92.3056586 427.167247 94 429.864277"></polygon>
                    <polygon id="Fill-86" points="39.2248541 340.513321 36.0811635 336.288405 31 333.051161 32.1176522 330 38.2569015 335.299979 40 339.869187 39.8957589 341"></polygon>
                    <polygon id="Fill-87" points="33.1215352 327 29 323.630317 29.1222459 322.671714 30.851457 322.477157 31.851457 320.575705 31.851457 318 35 325.547523"></polygon>
                    <polygon id="Fill-88" points="164.295397 459 164.143083 457.835489 160.083809 457.265824 160 456.43753 160.263816 454.859212 163.657719 452 166 458.02946"></polygon>
                    <polygon id="Fill-89" points="16.5406955 338 16 337.241055 18.8867007 329 22 329.013073 18.5883086 336.247477"></polygon>
                    <polygon id="Fill-90" points="66.3019282 401 68 403.215708 66.1488894 406.821209 62.849402 407 62 405.128845 64.8681962 401.013753"></polygon>
                    <polygon id="Fill-91" points="36.1428413 346 34.5809988 343.12294 31 339.46555 31.7813088 338 37.469051 342.30154 38 345.31478"></polygon>
                    <polygon id="Fill-92" points="44.3198795 378.139126 45 378.751281 43.5973884 380.658775 45 382.955821 43.139348 384 37 379.266781 40.5284449 380.74225 42.2086567 380.10227 41.3890056 379.266781 41.6673363 378"></polygon>
                    <polygon id="Fill-93" points="10.1472772 241 8 235 10.6175743 235.728115 12.7501547 237.742642 13 240.24258"></polygon>
                    <polygon id="Fill-94" points="25.2625128 309 22.8028601 307.661854 22 305.573418 24.0326864 303 26 306.514761"></polygon>
                    <polygon id="Fill-95" points="28.1885388 308.082 27 299 27.919871 299.794063 30 307.479608 28.5703299 309"></polygon>
                    <polygon id="Fill-96" points="106.742893 407 102.957295 405.714481 102 404.324454 102.271259 403 107.699436 405 108 406.025956"></polygon>
                    <polygon id="Fill-97" points="47.834341 403 44 401.20221 45.5446191 400 49.5864571 400.770569 50 402.451085"></polygon>
                    <polygon id="Fill-98" points="173.391334 440 174 442.486697 172.829877 443 169 442.696684 169.416456 440.490585"></polygon>
                    <polygon id="Fill-99" points="50 335 51.2502055 331.435929 55 330 52.7502877 334.739047"></polygon>
                    <polygon id="Fill-100" points="32.5809501 314 32 309.210867 34.1841978 309 35 312.363608"></polygon>
                    <polygon id="Fill-101" points="11.470702 236 9 234.046563 12.750145 230 13 232.009608"></polygon>
                    <polygon id="Fill-102" points="18.5998154 286 18 285.64953 18.6436481 282.869684 20.0470624 282 23 282.519214"></polygon>
                    <polygon id="Fill-103" points="25 259 25.059375 253 28 256.921478"></polygon>
                    <polygon id="Fill-104" points="12 330 12.7898383 324.771697 14.4880677 324 15 324.928741 14.1362587 328.471634"></polygon>
                    <polygon id="Fill-105" points="30.5310396 316 28.2557966 314.538176 28 311.509475 29.5639491 311 31 314.133068"></polygon>
                    <polygon id="Fill-106" points="178.204648 439.207694 178 441.489677 179.095298 442 180.465141 441.421916 182 438.631022 179.903801 438"></polygon>
                    <polygon id="Fill-107" points="102.804055 426.244037 104 427.953211 98.3708493 429 97 427.622018 100.222685 426"></polygon>
                    <polygon id="Fill-108" points="13.1231267 295.682274 12 293.066738 12.7881281 291.101095 14.9162504 291 15 296"></polygon>
                    <polygon id="Fill-109" points="63.6032817 413 62 410.224938 64.317896 409 67 409.888417 66.8980218 410.91215"></polygon>
                    <polygon id="Fill-110" points="19 335.302735 23.0383339 331 23.8265848 331.415962 24 333.425973 19.0630601 336"></polygon>
                    <polygon id="Fill-111" points="104.698613 404 102.21906 402.050168 102 400.811681 105.493425 400 106 401.63684"></polygon>
                    <polygon id="Fill-112" points="35.7 385 35 383.112188 35.4568 380 39 382.401875"></polygon>
                    <polygon id="Fill-113" points="44.3076244 363.976758 43.5238936 364 42.7669512 363.174312 43.45864 362.686239 42.0745756 362.069725 38 362.314373 41.2777941 361 44.0074576 361.697859 45 362.697859"></polygon>
                    <polygon id="Fill-114" points="37.4547826 328 36.3884783 327.428571 35 323 37.4795652 325.046886 38 326.383883"></polygon>
                    <polygon id="Fill-115" points="154.088558 461.113123 154 462.712478 157.98746 462.117837 158.887804 464 159.272334 463.080129 160.749084 463.10841 161 461"></polygon>
                    <polygon id="Fill-116" points="170.915361 432.068461 173.975428 433.112498 175 436 170 433.004101 170.054606 432"></polygon>
                    <polygon id="Fill-117" points="18.446745 343 17 340.625711 21 340 19.6524902 342.525386"></polygon>
                    <polygon id="Fill-118" points="37.4269348 313 35.8669628 312.527149 35 310.73454 36.6266074 309 38 310.720211"></polygon>
                    <polygon id="Fill-119" points="13.7116105 233 13 232.326405 13.9703779 230 17 230.453426"></polygon>
                    <polygon id="Fill-120" points="19.2747852 339 19 337.000355 22 335 20.7933347 338.392216"></polygon>
                    <polygon id="Fill-121" points="156 454 156.566828 449.764034 157.668277 449 159 452.379443"></polygon>
                    <polygon id="Fill-122" points="108.768373 433 108 432.48522 108.490421 431.543587 112 430 111.588993 431.971944"></polygon>
                    <polygon id="Fill-123" points="32 373.780447 30.3398174 376 28 375.780927 30.9281461 373"></polygon>
                    <polygon id="Fill-124" points="166.226244 464 167 463.842149 166.226244 461.317372 163 461"></polygon>
                    <polygon id="Fill-125" points="36.1021097 330 34 329.536883 34.7864979 327 37 329.097498"></polygon>
                </g>
            </g>
        </g>
    </g>
</svg>